<svg width="1200" height="825" viewBox="0 0 1200 825" fill="none" xmlns="http://www.w3.org/2000/svg">
<g clip-path="url(#clip0_36_2)">
<rect width="1200" height="825" fill="white"/>
<path fill-rule="evenodd" clip-rule="evenodd" d="M1085.15 -177.412C1132.11 -215.986 1181.6 -248.469 1241.9 -256.068C1302.49 -263.705 1363.22 -252.545 1414.19 -218.881C1469.92 -182.06 1514 -129.974 1530.7 -65.2901C1549.94 9.26175 1556.16 93.7135 1510.93 156.02C1464.68 219.728 1381.95 248.056 1303.22 248.056C1232.36 248.056 1180.78 193.447 1120.6 156.02C1047.22 110.375 928.202 95.049 919.064 9.11144C909.912 -76.9466 1018.27 -122.48 1085.15 -177.412Z" fill="#E2C581" fill-opacity="0.51"/>
<path fill-rule="evenodd" clip-rule="evenodd" d="M948.146 -219.412C995.107 -257.986 1044.6 -290.469 1104.9 -298.068C1165.49 -305.705 1226.22 -294.545 1277.19 -260.881C1332.92 -224.06 1377 -171.974 1393.7 -107.29C1412.94 -32.7383 1419.16 51.7135 1373.93 114.02C1327.68 177.728 1244.95 206.056 1166.22 206.056C1095.36 206.056 1043.78 151.447 983.602 114.02C910.217 68.3747 791.202 53.049 782.064 -32.8886C772.912 -118.947 881.271 -164.48 948.146 -219.412Z" stroke="#E2C581" stroke-width="4"/>
<path fill-rule="evenodd" clip-rule="evenodd" d="M666.063 978.476L678.713 866.507C691.888 756.243 717.187 532.304 799.68 494.193C882.173 456.081 1021.33 602.091 1111.17 587.847C1201.01 573.603 1242.05 400.81 1331.89 386.566C1421.73 372.322 1560.89 518.332 1630.21 590.485L1700.05 664.342L1722.61 737.65L1679.53 750.739C1636.45 763.828 1550.28 790.005 1464.12 816.183C1377.95 842.361 1291.79 868.539 1205.62 894.717C1119.45 920.895 1033.29 947.072 947.123 973.25C860.957 999.428 774.792 1025.61 731.709 1038.69L688.626 1051.78L666.063 978.476Z" fill="#E2C581" fill-opacity="0.6"/>
<path fill-rule="evenodd" clip-rule="evenodd" d="M-382.383 660.463L-292.177 588.969C-202.752 519.079 -22.3403 376.09 72.8559 408.008C168.052 439.925 178.814 645.145 263.065 699.528C347.316 753.911 504.274 659.061 588.525 713.444C672.776 767.827 683.538 973.046 689.31 1074.85L694.301 1178.27L660.683 1247.27L615.821 1225.69C570.96 1204.12 481.236 1160.97 391.512 1117.82C301.789 1074.66 212.065 1031.51 122.342 988.365C32.618 945.214 -57.1056 902.064 -146.829 858.914C-236.553 815.764 -326.276 772.613 -371.138 751.038L-416 729.463L-382.383 660.463Z" fill="#006376" fill-opacity="0.45"/>
<path fill-rule="evenodd" clip-rule="evenodd" d="M-451.93 696.906L-368.743 617.452C-286.187 539.667 -119.814 380.759 -22.061 403.82C75.6919 426.88 105.454 630.24 194.394 676.672C283.333 723.105 430.82 614.28 519.759 660.713C608.698 707.145 638.461 910.505 653.657 1011.35L668.224 1113.86L641.153 1185.65L594.48 1168.28C547.807 1150.9 454.461 1116.16 361.115 1081.41C267.769 1046.66 174.423 1011.92 81.0767 977.171C-12.2694 942.424 -105.615 907.677 -198.962 872.931C-292.308 838.184 -385.654 803.438 -432.327 786.065L-479 768.691L-451.93 696.906Z" stroke="#006376" stroke-width="6"/>
<path fill-rule="evenodd" clip-rule="evenodd" d="M708.05 926.821L724.31 810.309C741.111 695.556 773.63 462.531 865.165 421.256C956.7 379.982 1106.71 528.697 1205.83 512.051C1304.94 495.404 1353.7 315.155 1452.82 298.509C1551.93 281.862 1701.94 430.578 1776.68 504.056L1851.95 579.294L1875.24 654.938L1827.57 669.418C1779.91 683.899 1684.59 712.859 1589.26 741.82C1493.93 770.781 1398.61 799.741 1303.28 828.702C1207.96 857.662 1112.63 886.623 1017.31 915.584C921.983 944.544 826.657 973.505 778.995 987.985L731.332 1002.47L708.05 926.821Z" stroke="#E2C581" stroke-width="6"/>
<path fill-rule="evenodd" clip-rule="evenodd" d="M160.354 -404.147C243.746 -368.509 277.074 -276.245 305.484 -190.122C329.899 -116.108 335.465 -39.3108 304.264 32.1077C269.174 112.427 216.259 195.315 130.089 211.348C43.7692 227.409 -29.596 162.606 -97.4192 106.848C-168.885 48.0944 -247.473 -12.7321 -254.671 -104.968C-262.814 -209.314 -220.196 -317.29 -135.293 -378.494C-50.8695 -439.352 64.6546 -445.046 160.354 -404.147Z" stroke="#006376" stroke-width="4"/>
<path fill-rule="evenodd" clip-rule="evenodd" d="M189.354 -363.147C272.746 -327.509 306.074 -235.245 334.484 -149.122C358.899 -75.1082 364.465 1.68923 333.264 73.1077C298.174 153.427 245.259 236.315 159.089 252.348C72.7692 268.409 -0.596015 203.606 -68.4192 147.848C-139.885 89.0944 -218.473 28.2679 -225.671 -63.9683C-233.814 -168.314 -191.196 -276.29 -106.293 -337.494C-21.8695 -398.352 93.6546 -404.046 189.354 -363.147Z" fill="#006376" fill-opacity="0.45"/>
</g>
<defs>
<clipPath id="clip0_36_2">
<rect width="1200" height="825" fill="white"/>
</clipPath>
</defs>
</svg>
