<svg width="1200" height="1024" viewBox="0 0 1200 1024" fill="none" xmlns="http://www.w3.org/2000/svg">
<g clip-path="url(#clip0_19_550)">
<path d="M954.427 368.681C956.906 362.624 946.48 344.277 930.664 354.599C921.04 361.677 923.972 372.546 928.489 378.702C930.257 381.06 937.45 386.303 933.014 395.096" stroke="#C05452" stroke-width="8.97" stroke-linecap="round" stroke-linejoin="round"/>
<path d="M954.427 368.681C956.906 362.624 946.48 344.277 930.664 354.599C921.04 361.677 923.972 372.546 928.489 378.702C930.257 381.06 937.45 386.303 933.014 395.096" stroke="black" stroke-opacity="0.2" stroke-width="8.97" stroke-linecap="round" stroke-linejoin="round"/>
<path d="M832.942 310.434C832.284 306.322 820.493 299.881 815.4 310.759C812.554 317.778 817.769 322.683 822.277 324.496C824.015 325.204 829.66 325.607 830.199 331.834" stroke="#C05452" stroke-width="5.38" stroke-linecap="round" stroke-linejoin="round"/>
<path d="M832.942 310.434C832.284 306.322 820.493 299.881 815.4 310.759C812.554 317.778 817.769 322.683 822.277 324.496C824.015 325.204 829.66 325.607 830.199 331.834" stroke="black" stroke-opacity="0.2" stroke-width="5.38" stroke-linecap="round" stroke-linejoin="round"/>
<path d="M908.301 387.914C909.789 387.266 911.054 382.027 906.452 381.105C903.531 380.653 902.214 383.152 901.967 385.086C901.876 385.827 902.272 388.07 899.969 388.911" stroke="#C05452" stroke-width="3.59" stroke-linecap="round" stroke-linejoin="round"/>
<path d="M908.301 387.914C909.789 387.266 911.054 382.027 906.452 381.105C903.531 380.653 902.214 383.152 901.967 385.086C901.876 385.827 902.272 388.07 899.969 388.911" stroke="black" stroke-opacity="0.2" stroke-width="3.59" stroke-linecap="round" stroke-linejoin="round"/>
<path d="M923.943 403.009C922.742 404.953 923.343 407.502 925.287 408.703C927.23 409.905 929.78 409.303 930.981 407.36C932.182 405.416 931.581 402.867 929.637 401.665C927.694 400.464 925.144 401.066 923.943 403.009Z" fill="#E65557"/>
<path d="M923.943 403.009C922.742 404.953 923.343 407.502 925.287 408.703C927.23 409.905 929.78 409.303 930.981 407.36C932.182 405.416 931.581 402.867 929.637 401.665C927.694 400.464 925.144 401.066 923.943 403.009Z" stroke="#C05452"/>
<path d="M923.943 403.009C922.742 404.953 923.343 407.502 925.287 408.703C927.23 409.905 929.78 409.303 930.981 407.36C932.182 405.416 931.581 402.867 929.637 401.665C927.694 400.464 925.144 401.066 923.943 403.009Z" stroke="black" stroke-opacity="0.2"/>
<path d="M863.261 353.409C862.447 354.725 862.855 356.453 864.171 357.267C865.488 358.08 867.215 357.673 868.029 356.356C868.843 355.039 868.436 353.312 867.119 352.498C865.802 351.684 864.075 352.092 863.261 353.409Z" fill="#E65557"/>
<path d="M863.261 353.409C862.447 354.725 862.855 356.453 864.171 357.267C865.488 358.08 867.215 357.673 868.029 356.356C868.843 355.039 868.436 353.312 867.119 352.498C865.802 351.684 864.075 352.092 863.261 353.409Z" stroke="#C05452"/>
<path d="M863.261 353.409C862.447 354.725 862.855 356.453 864.171 357.267C865.488 358.08 867.215 357.673 868.029 356.356C868.843 355.039 868.436 353.312 867.119 352.498C865.802 351.684 864.075 352.092 863.261 353.409Z" stroke="black" stroke-opacity="0.2"/>
<path d="M829.247 339.338C828.433 340.655 828.84 342.382 830.157 343.196C831.474 344.01 833.201 343.603 834.015 342.286C834.829 340.969 834.421 339.242 833.104 338.428C831.788 337.614 830.06 338.022 829.247 339.338Z" fill="#E65557"/>
<path d="M829.247 339.338C828.433 340.655 828.84 342.382 830.157 343.196C831.474 344.01 833.201 343.603 834.015 342.286C834.829 340.969 834.421 339.242 833.104 338.428C831.788 337.614 830.06 338.022 829.247 339.338Z" stroke="#C05452"/>
<path d="M829.247 339.338C828.433 340.655 828.84 342.382 830.157 343.196C831.474 344.01 833.201 343.603 834.015 342.286C834.829 340.969 834.421 339.242 833.104 338.428C831.788 337.614 830.06 338.022 829.247 339.338Z" stroke="black" stroke-opacity="0.2"/>
<path d="M856.684 407.486C855.673 409.121 856.179 411.266 857.815 412.277C859.45 413.288 861.595 412.782 862.605 411.147C863.616 409.511 863.11 407.366 861.475 406.356C859.84 405.345 857.695 405.851 856.684 407.486Z" fill="#E65557"/>
<path d="M856.684 407.486C855.673 409.121 856.179 411.266 857.815 412.277C859.45 413.288 861.595 412.782 862.605 411.147C863.616 409.511 863.11 407.366 861.475 406.356C859.84 405.345 857.695 405.851 856.684 407.486Z" stroke="#C05452"/>
<path d="M856.684 407.486C855.673 409.121 856.179 411.266 857.815 412.277C859.45 413.288 861.595 412.782 862.605 411.147C863.616 409.511 863.11 407.366 861.475 406.356C859.84 405.345 857.695 405.851 856.684 407.486Z" stroke="black" stroke-opacity="0.2"/>
<path d="M877.491 380.444C877.491 380.444 876.525 366.579 866.766 367.491C856.516 368.44 854.112 380.412 861.558 389.074C865.159 393.273 863.649 398.828 863.649 398.828" stroke="#C05452" stroke-width="7.18" stroke-linecap="round" stroke-linejoin="round"/>
<path d="M877.491 380.444C877.491 380.444 876.525 366.579 866.766 367.491C856.516 368.44 854.112 380.412 861.558 389.074C865.159 393.273 863.649 398.828 863.649 398.828" stroke="black" stroke-opacity="0.2" stroke-width="7.18" stroke-linecap="round" stroke-linejoin="round"/>
<path d="M885.275 429.012C884.133 429.617 883.693 431.071 884.329 432.271C884.966 433.472 886.416 433.924 887.558 433.318C888.699 432.713 889.139 431.259 888.503 430.059C887.867 428.859 886.416 428.407 885.275 429.012Z" fill="#E65557"/>
<path d="M885.275 429.012C884.133 429.617 883.693 431.071 884.329 432.271C884.966 433.472 886.416 433.924 887.558 433.318C888.699 432.713 889.139 431.259 888.503 430.059C887.867 428.859 886.416 428.407 885.275 429.012Z" stroke="#C05452"/>
<path d="M885.275 429.012C884.133 429.617 883.693 431.071 884.329 432.271C884.966 433.472 886.416 433.924 887.558 433.318C888.699 432.713 889.139 431.259 888.503 430.059C887.867 428.859 886.416 428.407 885.275 429.012Z" stroke="black" stroke-opacity="0.2"/>
<path d="M887.104 362.661C886.446 363.009 886.185 363.855 886.56 364.563C886.935 365.271 887.782 365.529 888.44 365.18C889.097 364.831 889.359 363.985 888.984 363.278C888.609 362.57 887.762 362.312 887.104 362.661Z" fill="#E65557"/>
<path d="M887.104 362.661C886.446 363.009 886.185 363.855 886.56 364.563C886.935 365.271 887.782 365.529 888.44 365.18C889.097 364.831 889.359 363.985 888.984 363.278C888.609 362.57 887.762 362.312 887.104 362.661Z" stroke="#C05452"/>
<path d="M887.104 362.661C886.446 363.009 886.185 363.855 886.56 364.563C886.935 365.271 887.782 365.529 888.44 365.18C889.097 364.831 889.359 363.985 888.984 363.278C888.609 362.57 887.762 362.312 887.104 362.661Z" stroke="black" stroke-opacity="0.2"/>
<path d="M895.064 389.408C894.406 389.756 894.144 390.602 894.519 391.31C894.895 392.018 895.742 392.276 896.399 391.927C897.057 391.579 897.319 390.732 896.944 390.025C896.569 389.317 895.722 389.059 895.064 389.408Z" fill="#E65557"/>
<path d="M895.064 389.408C894.406 389.756 894.144 390.602 894.519 391.31C894.895 392.018 895.742 392.276 896.399 391.927C897.057 391.579 897.319 390.732 896.944 390.025C896.569 389.317 895.722 389.059 895.064 389.408Z" stroke="#C05452"/>
<path d="M895.064 389.408C894.406 389.756 894.144 390.602 894.519 391.31C894.895 392.018 895.742 392.276 896.399 391.927C897.057 391.579 897.319 390.732 896.944 390.025C896.569 389.317 895.722 389.059 895.064 389.408Z" stroke="black" stroke-opacity="0.2"/>
<path d="M907.839 419.745C907.839 419.745 912.179 410.678 905.771 407.602C899.018 404.326 893.234 410.92 894.817 419.183C894.999 420.426 894.899 421.693 894.524 422.891C894.149 424.089 893.509 425.187 892.651 426.104" stroke="#C05452" stroke-width="5.38" stroke-linecap="round" stroke-linejoin="round"/>
<path d="M907.839 419.745C907.839 419.745 912.179 410.678 905.771 407.602C899.018 404.326 893.234 410.92 894.817 419.183C894.999 420.426 894.899 421.693 894.524 422.891C894.149 424.089 893.509 425.187 892.651 426.104" stroke="black" stroke-opacity="0.2" stroke-width="5.38" stroke-linecap="round" stroke-linejoin="round"/>
<path d="M900.907 356.48C900.907 356.48 903.453 351.173 899.709 349.352C895.751 347.449 892.363 351.312 893.266 356.133C893.378 356.86 893.324 357.603 893.108 358.306C892.893 359.01 892.521 359.655 892.021 360.195" stroke="#C05452" stroke-width="3.59" stroke-linecap="round" stroke-linejoin="round"/>
<path d="M900.907 356.48C900.907 356.48 903.453 351.173 899.709 349.352C895.751 347.449 892.363 351.312 893.266 356.133C893.378 356.86 893.324 357.603 893.108 358.306C892.893 359.01 892.521 359.655 892.021 360.195" stroke="black" stroke-opacity="0.2" stroke-width="3.59" stroke-linecap="round" stroke-linejoin="round"/>
<path d="M878.021 331.053C881.597 325.269 870.934 315.162 864.992 324.264C859.049 333.365 869.494 335.989 868.975 341.903C868.455 347.818 868.559 345.441 868.559 345.441" stroke="#C05452" stroke-width="5.38" stroke-linecap="round" stroke-linejoin="round"/>
<path d="M878.021 331.053C881.597 325.269 870.934 315.162 864.992 324.264C859.049 333.365 869.494 335.989 868.975 341.903C868.455 347.818 868.559 345.441 868.559 345.441" stroke="black" stroke-opacity="0.2" stroke-width="5.38" stroke-linecap="round" stroke-linejoin="round"/>
<path d="M940.895 429.268C939.476 428.648 937.824 429.296 937.204 430.715C936.585 432.133 937.233 433.785 938.651 434.405C940.07 435.025 941.722 434.377 942.342 432.958C942.961 431.54 942.313 429.887 940.895 429.268Z" fill="#E65557"/>
<path d="M940.895 429.268C939.476 428.648 937.824 429.296 937.204 430.715C936.585 432.133 937.233 433.785 938.651 434.405C940.07 435.025 941.722 434.377 942.342 432.958C942.961 431.54 942.313 429.887 940.895 429.268Z" stroke="#C05452"/>
<path d="M940.895 429.268C939.476 428.648 937.824 429.296 937.204 430.715C936.585 432.133 937.233 433.785 938.651 434.405C940.07 435.025 941.722 434.377 942.342 432.958C942.961 431.54 942.313 429.887 940.895 429.268Z" stroke="black" stroke-opacity="0.2"/>
<path d="M966.6 430.324C975.766 429.982 977.004 420.123 968.6 417.104C960.58 414.221 958 425.514 952.608 428.1C947.215 430.686 949.382 429.534 949.382 429.534" stroke="#C05452" stroke-width="7.18" stroke-linecap="round" stroke-linejoin="round"/>
<path d="M966.6 430.324C975.766 429.982 977.004 420.123 968.6 417.104C960.58 414.221 958 425.514 952.608 428.1C947.215 430.686 949.382 429.534 949.382 429.534" stroke="black" stroke-opacity="0.2" stroke-width="7.18" stroke-linecap="round" stroke-linejoin="round"/>
<path d="M825.351 357.661C824.895 354.306 816.531 349.237 812.218 358.056C809.811 363.752 812.738 367.446 816.447 369.017C817.852 369.608 822.471 370.034 822.795 375.117" stroke="#C05452" stroke-width="5.38" stroke-linecap="round" stroke-linejoin="round"/>
<path d="M825.351 357.661C824.895 354.306 816.531 349.237 812.218 358.056C809.811 363.752 812.738 367.446 816.447 369.017C817.852 369.608 822.471 370.034 822.795 375.117" stroke="black" stroke-opacity="0.2" stroke-width="5.38" stroke-linecap="round" stroke-linejoin="round"/>
<path d="M820.593 382.127C819.919 383.216 820.257 384.645 821.346 385.319C822.435 385.992 823.864 385.655 824.537 384.565C825.211 383.476 824.874 382.047 823.784 381.374C822.695 380.701 821.266 381.038 820.593 382.127Z" fill="#E65557"/>
<path d="M820.593 382.127C819.919 383.216 820.257 384.645 821.346 385.319C822.435 385.992 823.864 385.655 824.537 384.565C825.211 383.476 824.874 382.047 823.784 381.374C822.695 380.701 821.266 381.038 820.593 382.127Z" stroke="#C05452"/>
<path d="M820.593 382.127C819.919 383.216 820.257 384.645 821.346 385.319C822.435 385.992 823.864 385.655 824.537 384.565C825.211 383.476 824.874 382.047 823.784 381.374C822.695 380.701 821.266 381.038 820.593 382.127Z" stroke="black" stroke-opacity="0.2"/>
<path d="M796.435 365.703C795.191 364.074 789.347 363.851 789.644 369.714C790.028 373.429 792.68 374.5 795.026 374.306C795.943 374.214 798.475 373.085 800.134 375.68" stroke="#C05452" stroke-width="3.59" stroke-linecap="round" stroke-linejoin="round"/>
<path d="M796.435 365.703C795.191 364.074 789.347 363.851 789.644 369.714C790.028 373.429 792.68 374.5 795.026 374.306C795.943 374.214 798.475 373.085 800.134 375.68" stroke="black" stroke-opacity="0.2" stroke-width="3.59" stroke-linecap="round" stroke-linejoin="round"/>
<path d="M801.412 379.375C801.063 379.939 801.238 380.678 801.801 381.027C802.365 381.375 803.104 381.201 803.453 380.637C803.801 380.073 803.627 379.334 803.063 378.986C802.499 378.637 801.76 378.812 801.412 379.375Z" fill="#E65557"/>
<path d="M801.412 379.375C801.063 379.939 801.238 380.678 801.801 381.027C802.365 381.375 803.104 381.201 803.453 380.637C803.801 380.073 803.627 379.334 803.063 378.986C802.499 378.637 801.76 378.812 801.412 379.375Z" stroke="#C05452"/>
<path d="M801.412 379.375C801.063 379.939 801.238 380.678 801.801 381.027C802.365 381.375 803.104 381.201 803.453 380.637C803.801 380.073 803.627 379.334 803.063 378.986C802.499 378.637 801.76 378.812 801.412 379.375Z" stroke="black" stroke-opacity="0.2"/>
<path d="M687.447 562.668L613.507 567.339C613.507 567.339 627.332 621.562 677.906 656.711C711.095 679.754 732.248 684.303 732.248 684.303L720.969 664.075L719.389 653.577L716.093 661.061L683.486 566.909L687.425 562.655" fill="#006376"/>
<path d="M720.785 567.817C720.785 567.817 703.694 549.67 699.418 549.838C695.142 550.007 722.014 664.701 722.014 664.701L747.44 643.978C747.44 643.978 747.871 629.668 741.666 616.586C735.461 603.503 720.785 567.817 720.785 567.817Z" fill="#CECECE"/>
<path d="M890.685 506.006C890.685 506.006 889.658 523.531 875.727 542.437C873.216 560.475 885.236 569.225 878.548 575.068C875.421 577.795 868.777 577.738 862.165 576.218C862.634 580.386 850.861 598.282 836.997 603.912C817.151 611.945 801.789 607.961 783.031 598.914C763.086 610.408 719.689 651.368 719.689 651.368L691.439 581.204C691.439 581.204 730.675 563.658 739.237 547.492C747.798 531.326 762.646 499.03 755.101 490.052C747.557 481.075 845.228 466.519 863.575 472.785C881.921 479.05 890.685 506.006 890.685 506.006Z" fill="#9D4E49"/>
<path d="M858.489 542.541C856.319 541.199 856.442 537.067 858.764 533.311C861.085 529.555 864.727 527.598 866.897 528.939C869.067 530.281 868.944 534.413 866.622 538.169C864.3 541.925 860.659 543.882 858.489 542.541Z" fill="#0C0C0C"/>
<g style="mix-blend-mode:multiply">
<path d="M833.097 584.916C829.567 590.742 838.267 592.973 838.267 592.973C838.267 592.973 846.072 594.895 851.216 581.336C851.267 581.368 836.926 578.574 833.097 584.916Z" fill="#A26D4B"/>
</g>
<path d="M876.667 517.206C876.667 517.206 871.69 519.509 867.227 519.603C864.464 519.751 861.696 519.433 859.039 518.662" stroke="#1D1E40" stroke-width="7.18" stroke-linecap="round" stroke-linejoin="round"/>
<path opacity="0.52" d="M762.95 613.369C762.95 613.369 750.478 584.842 765.554 565.018C766.4 589.364 782.303 599.123 782.303 599.123L762.95 613.369Z" fill="#9D4E49"/>
<path d="M766.178 558.228C765.236 565.885 766.292 573.655 769.243 580.783C772.194 587.911 776.938 594.154 783.016 598.905" stroke="#541D1C" stroke-width="2.69" stroke-linecap="round" stroke-linejoin="round"/>
<path d="M859.966 488.672C848.921 491.366 848.537 502.924 832.363 498.235C816.189 493.545 808.487 508.141 805.34 513.758C802.192 519.374 794.653 527.564 791.34 519.558C788.026 511.552 791.055 498.442 775.329 498.496C766.805 498.525 761.927 507.467 762.621 516.016C763.315 524.566 772.519 532.731 772.519 532.731C772.519 532.731 750.141 554.943 733.052 548.318C717.933 542.464 725.196 533.21 729.406 532.869C733.003 532.616 736.518 533.794 743.341 528.389C746.332 525.809 748.81 522.688 750.642 519.188C750.642 519.188 736.665 531.225 728.867 525.694C722.82 521.388 726.478 517.802 728.86 516.362C731.243 514.922 737.196 516.013 743.298 509.279C732.571 514.596 723.197 513.389 718.188 509.258C713.18 505.127 709.688 495.883 719.443 492.351C729.198 488.82 732.926 493.052 744.002 477.842C746.144 474.706 747.735 471.227 748.707 467.555C748.707 467.555 733.668 465.364 731.711 458.399C729.432 450.18 739.976 456.982 752.607 452.903C759.047 450.794 766.421 446.977 773.835 435.442C781.25 423.906 863.745 459.471 873.825 465.265C883.906 471.06 905.878 482.642 899.966 485.556C894.055 488.469 903.617 499.272 918.895 502.686C929.478 505.056 928.857 519.756 913.442 519.109C898.028 518.463 893.658 511.163 885.658 502.594C877.658 494.026 871.01 485.978 859.966 488.672Z" fill="#1D1E40"/>
<path d="M769.268 514.624C769.268 514.624 771.516 506.34 776.112 507.689C784.34 510.045 782.563 519.472 782.563 519.472C782.563 519.472 780.429 513.22 776.693 515.174" stroke="#541D1C" stroke-width="2.69" stroke-linecap="round" stroke-linejoin="round"/>
<path opacity="0.45" d="M775.115 434.456C773.483 438.36 801.906 451.017 835.945 465.247C869.984 479.477 898.885 487.912 900.51 483.953C902.135 479.994 876.151 464.673 841.851 451.063C802.807 435.587 776.747 430.552 775.115 434.456Z" fill="#1D1E40"/>
<path d="M699.391 549.832L683.508 566.923L716.033 658.497L732.412 634.709C732.412 634.709 702.403 581.678 699.391 549.832Z" fill="white"/>
<path d="M726.429 737.681C728.908 731.624 718.481 713.277 702.666 723.599C693.041 730.677 695.973 741.546 700.49 747.702C702.258 750.06 709.452 755.303 705.016 764.096" stroke="#C05452" stroke-width="8.97" stroke-linecap="round" stroke-linejoin="round"/>
<path d="M726.429 737.681C728.908 731.624 718.481 713.277 702.666 723.599C693.041 730.677 695.973 741.546 700.49 747.702C702.258 750.06 709.452 755.303 705.016 764.096" stroke="black" stroke-opacity="0.2" stroke-width="8.97" stroke-linecap="round" stroke-linejoin="round"/>
<path d="M604.943 679.434C604.285 675.322 592.494 668.881 587.402 679.759C584.556 686.778 589.77 691.683 594.278 693.496C596.016 694.204 601.661 694.607 602.2 700.834" stroke="#C05452" stroke-width="5.38" stroke-linecap="round" stroke-linejoin="round"/>
<path d="M604.943 679.434C604.285 675.322 592.494 668.881 587.402 679.759C584.556 686.778 589.77 691.683 594.278 693.496C596.016 694.204 601.661 694.607 602.2 700.834" stroke="black" stroke-opacity="0.2" stroke-width="5.38" stroke-linecap="round" stroke-linejoin="round"/>
<path d="M680.302 756.914C681.791 756.266 683.056 751.027 678.453 750.105C675.532 749.653 674.215 752.152 673.968 754.086C673.877 754.827 674.273 757.07 671.97 757.911" stroke="#C05452" stroke-width="3.59" stroke-linecap="round" stroke-linejoin="round"/>
<path d="M680.302 756.914C681.791 756.266 683.056 751.027 678.453 750.105C675.532 749.653 674.215 752.152 673.968 754.086C673.877 754.827 674.273 757.07 671.97 757.911" stroke="black" stroke-opacity="0.2" stroke-width="3.59" stroke-linecap="round" stroke-linejoin="round"/>
<path d="M695.944 772.009C694.743 773.953 695.344 776.502 697.288 777.703C699.231 778.905 701.781 778.303 702.982 776.36C704.183 774.416 703.582 771.867 701.638 770.665C699.695 769.464 697.146 770.066 695.944 772.009Z" fill="#E65557"/>
<path d="M695.944 772.009C694.743 773.953 695.344 776.502 697.288 777.703C699.231 778.905 701.781 778.303 702.982 776.36C704.183 774.416 703.582 771.867 701.638 770.665C699.695 769.464 697.146 770.066 695.944 772.009Z" stroke="#C05452"/>
<path d="M695.944 772.009C694.743 773.953 695.344 776.502 697.288 777.703C699.231 778.905 701.781 778.303 702.982 776.36C704.183 774.416 703.582 771.867 701.638 770.665C699.695 769.464 697.146 770.066 695.944 772.009Z" stroke="black" stroke-opacity="0.2"/>
<path d="M635.262 722.409C634.448 723.725 634.856 725.453 636.173 726.267C637.489 727.08 639.217 726.673 640.03 725.356C640.844 724.039 640.437 722.312 639.12 721.498C637.803 720.684 636.076 721.092 635.262 722.409Z" fill="#E65557"/>
<path d="M635.262 722.409C634.448 723.725 634.856 725.453 636.173 726.267C637.489 727.08 639.217 726.673 640.03 725.356C640.844 724.039 640.437 722.312 639.12 721.498C637.803 720.684 636.076 721.092 635.262 722.409Z" stroke="#C05452"/>
<path d="M635.262 722.409C634.448 723.725 634.856 725.453 636.173 726.267C637.489 727.08 639.217 726.673 640.03 725.356C640.844 724.039 640.437 722.312 639.12 721.498C637.803 720.684 636.076 721.092 635.262 722.409Z" stroke="black" stroke-opacity="0.2"/>
<path d="M601.248 708.338C600.434 709.655 600.841 711.382 602.158 712.196C603.475 713.01 605.202 712.603 606.016 711.286C606.83 709.969 606.422 708.242 605.106 707.428C603.789 706.614 602.062 707.022 601.248 708.338Z" fill="#E65557"/>
<path d="M601.248 708.338C600.434 709.655 600.841 711.382 602.158 712.196C603.475 713.01 605.202 712.603 606.016 711.286C606.83 709.969 606.422 708.242 605.106 707.428C603.789 706.614 602.062 707.022 601.248 708.338Z" stroke="#C05452"/>
<path d="M601.248 708.338C600.434 709.655 600.841 711.382 602.158 712.196C603.475 713.01 605.202 712.603 606.016 711.286C606.83 709.969 606.422 708.242 605.106 707.428C603.789 706.614 602.062 707.022 601.248 708.338Z" stroke="black" stroke-opacity="0.2"/>
<path d="M628.685 776.486C627.674 778.121 628.181 780.266 629.816 781.277C631.451 782.288 633.596 781.782 634.607 780.147C635.617 778.511 635.111 776.366 633.476 775.356C631.841 774.345 629.696 774.851 628.685 776.486Z" fill="#E65557"/>
<path d="M628.685 776.486C627.674 778.121 628.181 780.266 629.816 781.277C631.451 782.288 633.596 781.782 634.607 780.147C635.617 778.511 635.111 776.366 633.476 775.356C631.841 774.345 629.696 774.851 628.685 776.486Z" stroke="#C05452"/>
<path d="M628.685 776.486C627.674 778.121 628.181 780.266 629.816 781.277C631.451 782.288 633.596 781.782 634.607 780.147C635.617 778.511 635.111 776.366 633.476 775.356C631.841 774.345 629.696 774.851 628.685 776.486Z" stroke="black" stroke-opacity="0.2"/>
<path d="M649.492 749.444C649.492 749.444 648.526 735.579 638.768 736.491C628.518 737.44 626.114 749.412 633.559 758.074C637.161 762.273 635.65 767.828 635.65 767.828" stroke="#C05452" stroke-width="7.18" stroke-linecap="round" stroke-linejoin="round"/>
<path d="M649.492 749.444C649.492 749.444 648.526 735.579 638.768 736.491C628.518 737.44 626.114 749.412 633.559 758.074C637.161 762.273 635.65 767.828 635.65 767.828" stroke="black" stroke-opacity="0.2" stroke-width="7.18" stroke-linecap="round" stroke-linejoin="round"/>
<path d="M657.276 798.012C656.134 798.617 655.695 800.071 656.331 801.271C656.967 802.472 658.417 802.924 659.559 802.318C660.701 801.713 661.14 800.259 660.504 799.059C659.868 797.859 658.418 797.407 657.276 798.012Z" fill="#E65557"/>
<path d="M657.276 798.012C656.134 798.617 655.695 800.071 656.331 801.271C656.967 802.472 658.417 802.924 659.559 802.318C660.701 801.713 661.14 800.259 660.504 799.059C659.868 797.859 658.418 797.407 657.276 798.012Z" stroke="#C05452"/>
<path d="M657.276 798.012C656.134 798.617 655.695 800.071 656.331 801.271C656.967 802.472 658.417 802.924 659.559 802.318C660.701 801.713 661.14 800.259 660.504 799.059C659.868 797.859 658.418 797.407 657.276 798.012Z" stroke="black" stroke-opacity="0.2"/>
<path d="M659.105 731.661C658.448 732.009 658.186 732.855 658.561 733.563C658.936 734.271 659.783 734.529 660.441 734.18C661.099 733.831 661.36 732.985 660.985 732.278C660.61 731.57 659.763 731.312 659.105 731.661Z" fill="#E65557"/>
<path d="M659.105 731.661C658.448 732.009 658.186 732.855 658.561 733.563C658.936 734.271 659.783 734.529 660.441 734.18C661.099 733.831 661.36 732.985 660.985 732.278C660.61 731.57 659.763 731.312 659.105 731.661Z" stroke="#C05452"/>
<path d="M659.105 731.661C658.448 732.009 658.186 732.855 658.561 733.563C658.936 734.271 659.783 734.529 660.441 734.18C661.099 733.831 661.36 732.985 660.985 732.278C660.61 731.57 659.763 731.312 659.105 731.661Z" stroke="black" stroke-opacity="0.2"/>
<path d="M667.065 758.408C666.407 758.756 666.146 759.602 666.521 760.31C666.896 761.018 667.743 761.276 668.401 760.927C669.058 760.579 669.32 759.732 668.945 759.025C668.57 758.317 667.723 758.059 667.065 758.408Z" fill="#E65557"/>
<path d="M667.065 758.408C666.407 758.756 666.146 759.602 666.521 760.31C666.896 761.018 667.743 761.276 668.401 760.927C669.058 760.579 669.32 759.732 668.945 759.025C668.57 758.317 667.723 758.059 667.065 758.408Z" stroke="#C05452"/>
<path d="M667.065 758.408C666.407 758.756 666.146 759.602 666.521 760.31C666.896 761.018 667.743 761.276 668.401 760.927C669.058 760.579 669.32 759.732 668.945 759.025C668.57 758.317 667.723 758.059 667.065 758.408Z" stroke="black" stroke-opacity="0.2"/>
<path d="M679.84 788.745C679.84 788.745 684.18 779.678 677.772 776.602C671.019 773.326 665.236 779.92 666.818 788.183C667 789.426 666.9 790.693 666.525 791.891C666.15 793.089 665.51 794.187 664.653 795.104" stroke="#C05452" stroke-width="5.38" stroke-linecap="round" stroke-linejoin="round"/>
<path d="M679.84 788.745C679.84 788.745 684.18 779.678 677.772 776.602C671.019 773.326 665.236 779.92 666.818 788.183C667 789.426 666.9 790.693 666.525 791.891C666.15 793.089 665.51 794.187 664.653 795.104" stroke="black" stroke-opacity="0.2" stroke-width="5.38" stroke-linecap="round" stroke-linejoin="round"/>
<path d="M672.908 725.48C672.908 725.48 675.454 720.173 671.711 718.352C667.752 716.449 664.364 720.312 665.268 725.133C665.379 725.86 665.325 726.603 665.109 727.306C664.894 728.01 664.522 728.655 664.022 729.195" stroke="#C05452" stroke-width="3.59" stroke-linecap="round" stroke-linejoin="round"/>
<path d="M672.908 725.48C672.908 725.48 675.454 720.173 671.711 718.352C667.752 716.449 664.364 720.312 665.268 725.133C665.379 725.86 665.325 726.603 665.109 727.306C664.894 728.01 664.522 728.655 664.022 729.195" stroke="black" stroke-opacity="0.2" stroke-width="3.59" stroke-linecap="round" stroke-linejoin="round"/>
<path d="M650.023 700.053C653.598 694.269 642.935 684.162 636.993 693.264C631.051 702.365 641.495 704.989 640.976 710.903C640.457 716.818 640.56 714.441 640.56 714.441" stroke="#C05452" stroke-width="5.38" stroke-linecap="round" stroke-linejoin="round"/>
<path d="M650.023 700.053C653.598 694.269 642.935 684.162 636.993 693.264C631.051 702.365 641.495 704.989 640.976 710.903C640.457 716.818 640.56 714.441 640.56 714.441" stroke="black" stroke-opacity="0.2" stroke-width="5.38" stroke-linecap="round" stroke-linejoin="round"/>
<path d="M712.896 798.268C711.478 797.648 709.825 798.296 709.206 799.715C708.586 801.133 709.234 802.785 710.653 803.405C712.071 804.025 713.724 803.377 714.343 801.958C714.963 800.54 714.315 798.887 712.896 798.268Z" fill="#E65557"/>
<path d="M712.896 798.268C711.478 797.648 709.825 798.296 709.206 799.715C708.586 801.133 709.234 802.785 710.653 803.405C712.071 804.025 713.724 803.377 714.343 801.958C714.963 800.54 714.315 798.887 712.896 798.268Z" stroke="#C05452"/>
<path d="M712.896 798.268C711.478 797.648 709.825 798.296 709.206 799.715C708.586 801.133 709.234 802.785 710.653 803.405C712.071 804.025 713.724 803.377 714.343 801.958C714.963 800.54 714.315 798.887 712.896 798.268Z" stroke="black" stroke-opacity="0.2"/>
<path d="M738.601 799.324C747.767 798.982 749.005 789.123 740.601 786.104C732.581 783.221 730.001 794.514 724.609 797.1C719.216 799.686 721.383 798.534 721.383 798.534" stroke="#C05452" stroke-width="7.18" stroke-linecap="round" stroke-linejoin="round"/>
<path d="M738.601 799.324C747.767 798.982 749.005 789.123 740.601 786.104C732.581 783.221 730.001 794.514 724.609 797.1C719.216 799.686 721.383 798.534 721.383 798.534" stroke="black" stroke-opacity="0.2" stroke-width="7.18" stroke-linecap="round" stroke-linejoin="round"/>
<path d="M597.352 726.661C596.896 723.306 588.532 718.237 584.22 727.056C581.812 732.752 584.739 736.446 588.448 738.017C589.853 738.608 594.472 739.034 594.796 744.117" stroke="#C05452" stroke-width="5.38" stroke-linecap="round" stroke-linejoin="round"/>
<path d="M597.352 726.661C596.896 723.306 588.532 718.237 584.22 727.056C581.812 732.752 584.739 736.446 588.448 738.017C589.853 738.608 594.472 739.034 594.796 744.117" stroke="black" stroke-opacity="0.2" stroke-width="5.38" stroke-linecap="round" stroke-linejoin="round"/>
<path d="M592.594 751.127C591.921 752.216 592.258 753.645 593.347 754.319C594.436 754.992 595.865 754.655 596.539 753.565C597.212 752.476 596.875 751.047 595.785 750.374C594.696 749.701 593.267 750.038 592.594 751.127Z" fill="#E65557"/>
<path d="M592.594 751.127C591.921 752.216 592.258 753.645 593.347 754.319C594.436 754.992 595.865 754.655 596.539 753.565C597.212 752.476 596.875 751.047 595.785 750.374C594.696 749.701 593.267 750.038 592.594 751.127Z" stroke="#C05452"/>
<path d="M592.594 751.127C591.921 752.216 592.258 753.645 593.347 754.319C594.436 754.992 595.865 754.655 596.539 753.565C597.212 752.476 596.875 751.047 595.785 750.374C594.696 749.701 593.267 750.038 592.594 751.127Z" stroke="black" stroke-opacity="0.2"/>
<path d="M568.437 734.703C567.192 733.074 561.348 732.851 561.645 738.714C562.029 742.429 564.681 743.5 567.027 743.306C567.944 743.214 570.476 742.085 572.135 744.68" stroke="#C05452" stroke-width="3.59" stroke-linecap="round" stroke-linejoin="round"/>
<path d="M568.437 734.703C567.192 733.074 561.348 732.851 561.645 738.714C562.029 742.429 564.681 743.5 567.027 743.306C567.944 743.214 570.476 742.085 572.135 744.68" stroke="black" stroke-opacity="0.2" stroke-width="3.59" stroke-linecap="round" stroke-linejoin="round"/>
<path d="M573.413 748.375C573.064 748.939 573.239 749.678 573.803 750.027C574.366 750.375 575.106 750.201 575.454 749.637C575.803 749.073 575.628 748.334 575.064 747.986C574.501 747.637 573.761 747.812 573.413 748.375Z" fill="#E65557"/>
<path d="M573.413 748.375C573.064 748.939 573.239 749.678 573.803 750.027C574.366 750.375 575.106 750.201 575.454 749.637C575.803 749.073 575.628 748.334 575.064 747.986C574.501 747.637 573.761 747.812 573.413 748.375Z" stroke="#C05452"/>
<path d="M573.413 748.375C573.064 748.939 573.239 749.678 573.803 750.027C574.366 750.375 575.106 750.201 575.454 749.637C575.803 749.073 575.628 748.334 575.064 747.986C574.501 747.637 573.761 747.812 573.413 748.375Z" stroke="black" stroke-opacity="0.2"/>
<path d="M459.449 931.668L385.508 936.339C385.508 936.339 399.333 990.562 449.907 1025.71C483.096 1048.75 504.249 1053.3 504.249 1053.3L492.971 1033.08L491.39 1022.58L488.094 1030.06L455.488 935.909L459.427 931.655" fill="#006376"/>
<path d="M492.787 936.817C492.787 936.817 475.695 918.67 471.419 918.838C467.143 919.007 494.015 1033.7 494.015 1033.7L519.442 1012.98C519.442 1012.98 519.872 998.668 513.667 985.586C507.462 972.503 492.787 936.817 492.787 936.817Z" fill="#CECECE"/>
<path d="M662.686 875.006C662.686 875.006 661.659 892.531 647.729 911.437C645.217 929.475 657.237 938.225 650.549 944.068C647.422 946.795 640.779 946.738 634.166 945.218C634.635 949.386 622.862 967.282 608.998 972.912C589.152 980.945 573.79 976.961 555.032 967.914C535.087 979.408 491.691 1020.37 491.691 1020.37L463.44 950.204C463.44 950.204 502.677 932.658 511.238 916.492C519.8 900.326 534.648 868.03 527.103 859.052C519.558 850.075 617.23 835.519 635.576 841.785C653.922 848.05 662.686 875.006 662.686 875.006Z" fill="#9D4E49"/>
<path d="M630.49 911.541C628.32 910.199 628.443 906.067 630.765 902.311C633.087 898.555 636.728 896.598 638.898 897.939C641.068 899.281 640.945 903.413 638.623 907.169C636.302 910.925 632.66 912.882 630.49 911.541Z" fill="#0C0C0C"/>
<g style="mix-blend-mode:multiply">
<path d="M605.099 953.916C601.568 959.742 610.268 961.973 610.268 961.973C610.268 961.973 618.074 963.895 623.217 950.336C623.268 950.368 608.928 947.574 605.099 953.916Z" fill="#A26D4B"/>
</g>
<path d="M648.668 886.206C648.668 886.206 643.692 888.509 639.229 888.603C636.466 888.751 633.698 888.433 631.04 887.662" stroke="#1D1E40" stroke-width="7.18" stroke-linecap="round" stroke-linejoin="round"/>
<path opacity="0.52" d="M534.952 982.369C534.952 982.369 522.48 953.842 537.555 934.018C538.401 958.364 554.304 968.123 554.304 968.123L534.952 982.369Z" fill="#9D4E49"/>
<path d="M538.179 927.228C537.238 934.885 538.294 942.655 541.244 949.783C544.195 956.911 548.94 963.154 555.017 967.905" stroke="#541D1C" stroke-width="2.69" stroke-linecap="round" stroke-linejoin="round"/>
<path d="M631.967 857.672C620.923 860.366 620.539 871.924 604.365 867.235C588.191 862.545 580.488 877.141 577.341 882.758C574.194 888.374 566.655 896.564 563.341 888.558C560.028 880.552 563.056 867.442 547.331 867.496C538.806 867.525 533.929 876.467 534.623 885.016C535.316 893.566 544.52 901.731 544.52 901.731C544.52 901.731 522.142 923.943 505.053 917.318C489.934 911.464 497.197 902.21 501.407 901.869C505.005 901.616 508.52 902.794 515.342 897.389C518.334 894.809 520.811 891.688 522.643 888.188C522.643 888.188 508.666 900.225 500.869 894.694C494.822 890.388 498.479 886.802 500.862 885.362C503.244 883.922 509.198 885.013 515.299 878.279C504.572 883.596 495.198 882.389 490.19 878.258C485.182 874.127 481.689 864.883 491.444 861.351C501.2 857.82 504.927 862.052 516.004 846.842C518.146 843.706 519.737 840.227 520.708 836.555C520.708 836.555 505.67 834.364 503.712 827.399C501.434 819.18 511.978 825.982 524.609 821.903C531.049 819.794 538.422 815.977 545.837 804.442C553.252 792.906 635.746 828.471 645.827 834.265C655.907 840.06 677.879 851.642 671.968 854.556C666.056 857.469 675.619 868.272 690.896 871.686C701.479 874.056 700.858 888.756 685.444 888.109C670.029 887.463 665.66 880.163 657.659 871.594C649.659 863.026 643.011 854.978 631.967 857.672Z" fill="#1D1E40"/>
<path d="M541.269 883.624C541.269 883.624 543.517 875.34 548.114 876.689C556.342 879.045 554.564 888.472 554.564 888.472C554.564 888.472 552.43 882.22 548.695 884.174" stroke="#541D1C" stroke-width="2.69" stroke-linecap="round" stroke-linejoin="round"/>
<path opacity="0.45" d="M547.116 803.456C545.485 807.36 573.908 820.017 607.947 834.247C641.985 848.477 670.887 856.912 672.512 852.953C674.137 848.994 648.152 833.673 613.852 820.063C574.808 804.587 548.748 799.552 547.116 803.456Z" fill="#1D1E40"/>
<path d="M471.393 918.832L455.51 935.923L488.035 1027.5L504.414 1003.71C504.414 1003.71 474.404 950.678 471.393 918.832Z" fill="white"/>
<path d="M629.961 181.649L710.806 225.629C710.806 225.629 716.764 214.95 709.802 208.236C707.688 206.246 705.172 204.733 702.423 203.799C699.674 202.865 696.757 202.531 693.868 202.821C693.868 202.821 704.991 199.795 700.139 191.68C696.496 185.487 688.771 188.518 688.771 188.518C688.771 188.518 702.81 174.17 689.009 166.788C674.607 159.101 669.519 177.898 669.519 177.898C669.519 177.898 668.757 164.647 660.027 162.868C651.297 161.088 649.253 176.866 649.253 176.866C649.253 176.866 640.821 168.519 635.428 169.819C630.036 171.118 629.961 181.649 629.961 181.649Z" fill="#006376" fill-opacity="0.65"/>
<path d="M573.11 192.756L655.767 237.721C655.767 237.721 663.696 229.399 655.758 218.711C645.769 205.232 630.772 211.509 630.772 211.509C630.772 211.509 639.853 196.306 624.304 186.932C609.565 178.082 600.275 191.191 600.275 191.191C600.275 191.191 598.038 180.34 587.674 179.514C577.309 178.688 573.11 192.756 573.11 192.756Z" fill="#006376"/>
<path d="M643.278 252.285L715.154 291.385C715.154 291.385 720.391 281.04 713.775 275.725C707.158 270.409 699.273 273.774 699.273 273.774C699.273 273.774 712.598 263.333 704.74 255.247C696.882 247.161 688.472 254.821 688.472 254.821C688.472 254.821 700.149 238.387 690.812 235.034C681.474 231.681 671.999 251.345 671.999 251.345C671.999 251.345 656.535 235.794 647.704 244.247C642.505 248.673 643.278 252.285 643.278 252.285Z" fill="#006376" fill-opacity="0.72"/>
<path d="M593.584 381.337C593.584 381.337 557.718 404.682 553.947 409.833C550.177 414.984 514.011 449.18 479.124 450.208C457.034 450.826 446.624 432.528 446.624 432.528L422.48 449.54C422.48 449.54 394.781 397.618 376.477 395.4C399.12 379.287 445.037 360.189 453.401 345.743C461.765 331.298 449.335 289.767 475.27 286.438C501.204 283.109 566.193 324.086 584.099 348.716C602.006 373.346 593.584 381.337 593.584 381.337Z" fill="#EFB6AB"/>
<path d="M566.96 336.912C566.96 336.912 557.327 365.188 583.86 382.96C608.121 398.579 620.711 378.978 623.129 374.533C625.547 370.089 627.897 360.911 623.003 352.584C618.109 344.256 586.952 293.233 522.507 254.005C508.1 245.241 465.827 270.745 451.916 293.723C438.659 315.595 445.664 331.946 428.446 347.24C418.463 356.109 411.179 355.232 413.299 363.219C415.865 373.038 424.649 367.635 430.719 363.871C436.788 360.108 459.789 340.725 459.789 340.725C459.789 340.725 450.573 313.863 472.94 302.054C489.74 294.514 492.874 313.277 491.802 320.802C490.731 328.327 485.864 337.273 492.056 342.537C498.248 347.801 509.002 343.479 514.284 340.698C519.567 337.917 539.626 317.883 566.96 336.912Z" fill="#A26D4B"/>
<path d="M474.255 319.79C474.255 319.79 482.61 321.271 478.504 335.633C478.504 335.633 484.678 329.915 484.01 319.085C483.341 308.255 472.567 311.259 472.567 311.259" stroke="#532210" stroke-width="2.69" stroke-linecap="round" stroke-linejoin="round"/>
<path d="M557.14 396.396C557.14 396.396 550.988 433.157 545.631 439.541C540.274 445.924 533.118 444.832 528.478 439.812C524.931 435.977 518.527 426.534 518.527 426.534" fill="#EFB6AB"/>
<path d="M533.192 389.485C533.192 389.485 528.642 402.804 542.585 405.124" stroke="black" stroke-width="5.38" stroke-miterlimit="10" stroke-linecap="round"/>
<path d="M541.291 379.421C541.291 379.421 554.518 381.721 560.726 389.994" stroke="#A26D4B" stroke-width="7.18" stroke-linecap="round" stroke-linejoin="round"/>
<path d="M483.65 430.169C483.65 430.169 501.306 427.833 502.609 437.903" stroke="#532210" stroke-width="3.59" stroke-linecap="round" stroke-linejoin="round"/>
<path d="M446.655 432.511C425.886 404.491 448.027 374.67 448.027 374.67" stroke="#532210" stroke-width="2.69" stroke-linecap="round" stroke-linejoin="round"/>
<path d="M444.291 381.542C444.291 381.542 434.454 396.103 433.915 396.957C429.431 404.194 416.519 424.116 431.483 443.218C441.368 436.254 446.655 432.518 446.655 432.518C446.655 432.518 429.28 416.569 444.291 381.542Z" fill="#EFB6AB"/>
<path d="M338.067 402.236C338.067 402.236 363.992 375.873 395.488 409.181C426.985 442.489 424.323 473.125 452.977 506.413C463.122 518.25 477.692 530.662 477.692 530.662C477.692 530.662 377.686 514.955 338.067 402.236Z" fill="#006376"/>
<path opacity="0.62" d="M625.322 363.885C621.019 368.041 594.051 347.158 565.087 317.208C536.123 287.257 516.123 259.625 520.411 255.46C524.698 251.295 561.733 280.983 582.042 301.002C610.159 328.754 629.626 359.73 625.322 363.885Z" fill="#A26D4B"/>
<path d="M491.453 138.275L572.298 182.255C572.298 182.255 578.255 171.576 571.294 164.862C569.18 162.872 566.664 161.359 563.915 160.425C561.166 159.491 558.249 159.157 555.36 159.447C555.36 159.447 566.483 156.421 561.631 148.306C557.988 142.113 550.263 145.144 550.263 145.144C550.263 145.144 564.302 130.796 550.501 123.414C536.099 115.727 531.011 134.524 531.011 134.524C531.011 134.524 530.249 121.273 521.519 119.494C512.789 117.714 510.745 133.492 510.745 133.492C510.745 133.492 502.313 125.145 496.92 126.445C491.528 127.744 491.453 138.275 491.453 138.275Z" fill="#006376" fill-opacity="0.65"/>
<path d="M434.605 149.361L517.263 194.326C517.263 194.326 525.191 186.004 517.254 175.316C507.265 161.837 492.267 168.114 492.267 168.114C492.267 168.114 501.349 152.911 485.8 143.537C471.061 134.687 461.77 147.796 461.77 147.796C461.77 147.796 459.534 136.945 449.169 136.119C438.805 135.293 434.605 149.361 434.605 149.361Z" fill="#006376"/>
<path d="M504.759 208.907L576.635 248.007C576.635 248.007 581.872 237.663 575.256 232.347C568.639 227.031 560.754 230.396 560.754 230.396C560.754 230.396 574.079 219.955 566.221 211.869C558.363 203.783 549.953 211.443 549.953 211.443C549.953 211.443 561.63 195.009 552.293 191.656C542.955 188.304 533.48 207.967 533.48 207.967C533.48 207.967 518.016 192.416 509.185 200.869C503.986 205.295 504.759 208.907 504.759 208.907Z" fill="#006376" fill-opacity="0.72"/>
<path d="M401.963 550.649L482.808 594.629C482.808 594.629 488.765 583.95 481.804 577.236C479.69 575.246 477.173 573.733 474.424 572.799C471.675 571.865 468.758 571.531 465.87 571.821C465.87 571.821 476.992 568.795 472.141 560.68C468.497 554.487 460.772 557.518 460.772 557.518C460.772 557.518 474.812 543.17 461.011 535.788C446.608 528.101 441.521 546.898 441.521 546.898C441.521 546.898 440.758 533.647 432.028 531.868C423.299 530.088 421.255 545.866 421.255 545.866C421.255 545.866 412.822 537.519 407.43 538.819C402.037 540.118 401.963 550.649 401.963 550.649Z" fill="#006376" fill-opacity="0.65"/>
<path d="M345.111 561.756L427.769 606.721C427.769 606.721 435.697 598.399 427.76 587.711C417.771 574.232 402.773 580.509 402.773 580.509C402.773 580.509 411.855 565.306 396.306 555.932C381.566 547.082 372.276 560.191 372.276 560.191C372.276 560.191 370.04 549.34 359.675 548.514C349.311 547.688 345.111 561.756 345.111 561.756Z" fill="#006376"/>
<path d="M415.28 621.285L487.155 660.385C487.155 660.385 492.393 650.04 485.776 644.725C479.16 639.409 471.274 642.774 471.274 642.774C471.274 642.774 484.599 632.333 476.741 624.247C468.884 616.161 460.473 623.821 460.473 623.821C460.473 623.821 472.151 607.387 462.813 604.034C453.476 600.681 444 620.345 444 620.345C444 620.345 428.537 604.794 419.705 613.247C414.507 617.673 415.28 621.285 415.28 621.285Z" fill="#006376" fill-opacity="0.72"/>
<path d="M365.585 750.337C365.585 750.337 329.72 773.682 325.949 778.833C322.178 783.984 286.012 818.18 251.126 819.208C229.035 819.826 218.625 801.528 218.625 801.528L194.482 818.54C194.482 818.54 166.783 766.618 148.478 764.4C171.121 748.287 217.038 729.189 225.402 714.743C233.766 700.298 221.337 658.767 247.271 655.438C273.206 652.109 338.195 693.086 356.101 717.716C374.007 742.346 365.585 750.337 365.585 750.337Z" fill="#EFB6AB"/>
<path d="M338.962 705.912C338.962 705.912 329.329 734.188 355.862 751.96C380.123 767.579 392.713 747.978 395.131 743.533C397.548 739.089 399.898 729.911 395.004 721.584C390.11 713.256 358.953 662.233 294.508 623.005C280.101 614.241 237.829 639.745 223.917 662.723C210.661 684.595 217.666 700.946 200.448 716.24C190.464 725.109 183.181 724.232 185.301 732.219C187.867 742.038 196.651 736.635 202.72 732.871C208.79 729.108 231.79 709.725 231.79 709.725C231.79 709.725 222.575 682.863 244.941 671.054C261.741 663.514 264.875 682.277 263.804 689.802C262.732 697.327 257.866 706.273 264.058 711.537C270.25 716.801 281.003 712.479 286.286 709.698C291.568 706.917 311.628 686.883 338.962 705.912Z" fill="#A26D4B"/>
<path d="M246.256 688.79C246.256 688.79 254.611 690.271 250.505 704.633C250.505 704.633 256.68 698.915 256.011 688.085C255.343 677.255 244.569 680.259 244.569 680.259" stroke="#532210" stroke-width="2.69" stroke-linecap="round" stroke-linejoin="round"/>
<path d="M329.141 765.396C329.141 765.396 322.99 802.157 317.633 808.541C312.275 814.924 305.119 813.832 300.479 808.812C296.932 804.977 290.529 795.534 290.529 795.534" fill="#EFB6AB"/>
<path d="M305.193 758.485C305.193 758.485 300.643 771.804 314.586 774.124" stroke="black" stroke-width="5.38" stroke-miterlimit="10" stroke-linecap="round"/>
<path d="M313.292 748.421C313.292 748.421 326.52 750.721 332.728 758.994" stroke="#A26D4B" stroke-width="7.18" stroke-linecap="round" stroke-linejoin="round"/>
<path d="M255.652 799.169C255.652 799.169 273.307 796.833 274.61 806.903" stroke="#532210" stroke-width="3.59" stroke-linecap="round" stroke-linejoin="round"/>
<path d="M218.657 801.511C197.888 773.491 220.028 743.67 220.028 743.67" stroke="#532210" stroke-width="2.69" stroke-linecap="round" stroke-linejoin="round"/>
<path d="M216.293 750.542C216.293 750.542 206.456 765.103 205.917 765.957C201.432 773.194 188.521 793.116 203.485 812.218C213.369 805.254 218.656 801.518 218.656 801.518C218.656 801.518 201.282 785.569 216.293 750.542Z" fill="#EFB6AB"/>
<path d="M110.069 771.236C110.069 771.236 135.993 744.873 167.49 778.181C198.986 811.489 196.324 842.125 224.978 875.413C235.123 887.25 249.694 899.662 249.694 899.662C249.694 899.662 149.688 883.955 110.069 771.236Z" fill="#006376"/>
<path opacity="0.62" d="M397.324 732.885C393.02 737.041 366.052 716.158 337.089 686.208C308.125 656.257 288.125 628.625 292.412 624.46C296.699 620.295 333.735 649.983 354.044 670.002C382.161 697.754 401.627 728.73 397.324 732.885Z" fill="#A26D4B"/>
<path d="M263.455 507.275L344.3 551.255C344.3 551.255 350.257 540.576 343.296 533.862C341.181 531.872 338.665 530.359 335.916 529.425C333.167 528.491 330.25 528.157 327.361 528.447C327.361 528.447 338.484 525.421 333.632 517.306C329.989 511.113 322.264 514.144 322.264 514.144C322.264 514.144 336.304 499.796 322.503 492.414C308.1 484.727 303.013 503.524 303.013 503.524C303.013 503.524 302.25 490.273 293.52 488.494C284.791 486.714 282.747 502.492 282.747 502.492C282.747 502.492 274.314 494.145 268.922 495.445C263.529 496.744 263.455 507.275 263.455 507.275Z" fill="#006376" fill-opacity="0.65"/>
<path d="M206.607 518.361L289.264 563.326C289.264 563.326 297.193 555.004 289.255 544.316C279.267 530.837 264.269 537.114 264.269 537.114C264.269 537.114 273.35 521.911 257.801 512.537C243.062 503.687 233.772 516.796 233.772 516.796C233.772 516.796 231.535 505.945 221.171 505.119C210.806 504.293 206.607 518.361 206.607 518.361Z" fill="#006376"/>
<path d="M276.761 577.907L348.636 617.007C348.636 617.007 353.874 606.663 347.257 601.347C340.641 596.031 332.755 599.396 332.755 599.396C332.755 599.396 346.08 588.955 338.222 580.869C330.365 572.783 321.954 580.443 321.954 580.443C321.954 580.443 333.632 564.009 324.294 560.656C314.957 557.304 305.481 576.967 305.481 576.967C305.481 576.967 290.017 561.416 281.186 569.869C275.988 574.295 276.761 577.907 276.761 577.907Z" fill="#006376" fill-opacity="0.72"/>
<path d="M893.389 847.78C893.389 847.78 906.425 787.985 892.635 747.18C878.845 706.374 829.773 734.285 829.773 734.285C829.773 734.285 834.562 804.611 893.389 847.78Z" fill="#E2C581"/>
<path d="M1071.6 683.997C1071.6 683.997 1067.06 710.204 1052.64 734.784C1057.02 757.603 1051.61 762.594 1051.61 762.594C1051.61 762.594 1044.93 764.734 1030.46 760.392C1022.92 769.642 1000.6 788.868 983.746 787.862C973.849 787.28 960.592 780.252 953.616 768.67C950.045 762.728 908.439 785.062 897.219 797.965C886 810.868 875.139 819.37 873.061 779.485C870.982 739.599 868.326 711.041 891.082 701.932C913.839 692.823 947.883 706.344 947.883 706.344C947.883 706.344 921.551 681.796 950.426 669.175C968.914 661.071 967.391 689.121 967.391 689.121C967.391 689.121 987.641 641.139 999.974 650.911C1012.31 660.683 1064.47 677.52 1071.6 683.997Z" fill="#EFB6AB"/>
<path d="M1051.72 712.527C1051.72 712.527 1046.96 705.81 1035.16 707.13" stroke="#A26D4B" stroke-width="5.38" stroke-linecap="round" stroke-linejoin="round"/>
<path d="M1030.22 722.818C1030.22 722.818 1030.42 727.416 1035.7 730.192C1039.24 732.057 1042.93 728.978 1042.93 728.978" stroke="black" stroke-width="5.38" stroke-linecap="round" stroke-linejoin="round"/>
<path d="M1003.02 757.208C1003.02 757.208 1003.07 776.84 1018.9 771.564Z" fill="#CB4646"/>
<path d="M950.343 678.683C950.343 678.683 958.23 674.345 961.589 681.32C964.948 688.294 958.964 695.361 958.964 695.361C958.964 695.361 958.78 683.846 950.634 688.988" stroke="#532210" stroke-width="2.69" stroke-linecap="round" stroke-linejoin="round"/>
<path d="M1060.49 683.44C1060.49 683.44 1041.95 699.137 996.077 687.344C974.333 681.747 966.924 692.755 966.924 692.755C966.924 692.755 971.233 663.722 951.873 670.446C924.288 680.045 947.913 706.329 947.913 706.329C947.913 706.329 908.428 724.657 891.882 754.074C885.688 765.056 882.232 778.028 884.345 792.908C892.123 846.801 904.009 855.065 904.009 855.065C904.009 855.065 842.205 823.084 830.124 737.782C827.071 698.818 832.778 684.138 832.778 684.138C832.778 684.138 884.147 681.109 911.307 658.923C938.466 636.738 961.585 617.478 974.616 612.968C987.647 608.458 1059.1 662.173 1070.72 682.319C1074.87 690.696 1060.49 683.44 1060.49 683.44Z" fill="#C05452"/>
<path d="M1060.49 683.44C1060.49 683.44 1041.95 699.137 996.077 687.344C974.333 681.747 966.924 692.755 966.924 692.755C966.924 692.755 971.233 663.722 951.873 670.446C924.288 680.045 947.913 706.329 947.913 706.329C947.913 706.329 908.428 724.657 891.882 754.074C885.688 765.056 882.232 778.028 884.345 792.908C892.123 846.801 904.009 855.065 904.009 855.065C904.009 855.065 842.205 823.084 830.124 737.782C827.071 698.818 832.778 684.138 832.778 684.138C832.778 684.138 884.147 681.109 911.307 658.923C938.466 636.738 961.585 617.478 974.616 612.968C987.647 608.458 1059.1 662.173 1070.72 682.319C1074.87 690.696 1060.49 683.44 1060.49 683.44Z" fill="black" fill-opacity="0.2"/>
<path d="M1019.03 656.522C1044.96 676.362 1068.31 689.413 1071.17 685.672C1074.03 681.931 1055.33 662.814 1029.39 642.974C1003.46 623.134 980.11 610.084 977.248 613.825C974.386 617.566 993.091 636.682 1019.03 656.522Z" fill="#E69766"/>
<g opacity="0.59">
<path d="M1019.03 656.522C1044.96 676.362 1068.31 689.413 1071.17 685.672C1074.03 681.931 1055.33 662.814 1029.39 642.974C1003.46 623.134 980.11 610.084 977.248 613.825C974.386 617.566 993.091 636.682 1019.03 656.522Z" fill="#C05452"/>
<path d="M1019.03 656.522C1044.96 676.362 1068.31 689.413 1071.17 685.672C1074.03 681.931 1055.33 662.814 1029.39 642.974C1003.46 623.134 980.11 610.084 977.248 613.825C974.386 617.566 993.091 636.682 1019.03 656.522Z" fill="black" fill-opacity="0.2"/>
</g>
<g opacity="0.59">
<path d="M1019.03 656.523C1044.96 676.363 1068.31 689.413 1071.17 685.672C1074.03 681.931 1055.33 662.815 1029.39 642.975C1003.45 623.135 980.109 610.084 977.247 613.825C974.386 617.566 993.091 636.683 1019.03 656.523Z" fill="#C05452"/>
<path d="M1019.03 656.523C1044.96 676.363 1068.31 689.413 1071.17 685.672C1074.03 681.931 1055.33 662.815 1029.39 642.975C1003.45 623.135 980.109 610.084 977.247 613.825C974.386 617.566 993.091 636.683 1019.03 656.523Z" fill="black" fill-opacity="0.2"/>
</g>
<path d="M1022.28 659.017C1022.28 659.017 1005.45 673.725 967.538 678.294" stroke="#A26D4B" stroke-width="2.69" stroke-linecap="round" stroke-linejoin="round"/>
<path d="M991.525 633.277C991.525 633.277 978.704 626.688 949.03 650.738C894.748 694.721 830.439 707.255 830.439 707.255" stroke="#A26D4B" stroke-width="2.69" stroke-linecap="round" stroke-linejoin="round"/>
<path d="M945.129 705.308C839.171 748.751 876.74 832.374 876.74 832.374" stroke="#A26D4B" stroke-width="2.69" stroke-linecap="round" stroke-linejoin="round"/>
<path d="M844.347 784.335C844.347 784.335 866.153 742.913 914.173 721.581" stroke="#A26D4B" stroke-width="2.69" stroke-linecap="round" stroke-linejoin="round"/>
<path d="M838.366 768.994C838.366 768.994 858.079 748.063 887.557 736.972" stroke="#A26D4B" stroke-width="2.69" stroke-linecap="round" stroke-linejoin="round"/>
<path d="M952.944 767.356C945.191 748.509 947.392 734.934 947.392 734.934" stroke="#532210" stroke-width="2.69" stroke-linecap="round" stroke-linejoin="round"/>
<path d="M948.147 732.649C948.147 732.649 922.615 752.166 930.521 775.072C944.365 767.898 952.758 767.801 952.758 767.801C952.758 767.801 944.145 755.333 948.147 732.649Z" fill="#EFB6AB"/>
<path d="M1083.37 670.137C1083.37 670.137 1090.81 665.957 1113.33 655.533C1135.84 645.109 1144.49 619.532 1144.49 619.532C1144.49 619.532 1136.91 636.933 1114.09 644.954C1091.27 652.975 1080.84 661.434 1081.19 667.43C1081.38 671.394 1083.37 670.137 1083.37 670.137Z" fill="#38646D"/>
<path d="M1108.19 574.6C1108.19 574.6 1086.32 590.154 1080.35 613.204C1074.39 636.255 1052.06 643.868 1043.52 642.083C1059.62 638.768 1068.32 612.821 1071.74 605.194C1075.16 597.566 1079.29 591.24 1108.19 574.6Z" fill="#6BB487"/>
<path d="M1074.53 558.325C1074.53 558.325 1055.6 585.237 1057.4 597.583C1059.2 609.929 1063.05 609.814 1055.3 623.562C1078.91 597.909 1072.85 582.139 1074.53 558.325Z" fill="#C5D786"/>
<path d="M1068.48 538.734C1068.48 538.734 1022.12 551.217 1016.52 581.501C1013.99 595.114 1016.09 609.183 1022.49 621.461C1022.49 621.461 1031.48 611.895 1033.84 594.977C1035.94 579.99 1042.11 558.835 1068.48 538.734Z" fill="#38646D"/>
<path d="M1062.4 542.441C1062.4 542.441 1035.75 552.772 1031.18 585.676C1027.88 609.721 1021.89 622.365 1021.89 622.365" stroke="#1D1E40" stroke-width="1.79" stroke-linecap="round" stroke-linejoin="round"/>
<path d="M955.842 543.013C955.842 543.013 987.247 544.087 997.67 566.132C1008.09 588.177 1003.36 603.487 1003.36 603.487L1006.22 607.323C1006.22 607.323 1020.03 576.637 1002.89 555.883C985.753 535.128 955.842 543.013 955.842 543.013Z" fill="#6BB487"/>
<path d="M1020.9 542.326C1022.27 541.754 1040.06 589.393 1007.96 609.395C1009.08 590.911 1023.15 569.882 1020.9 542.326Z" fill="#C5D786"/>
<path d="M1147.18 646.049C1147.18 646.049 1129.64 644.115 1116.92 661.555C1101.89 682.186 1086.74 671.913 1086.74 671.913" stroke="#1D1E40" stroke-width="1.79" stroke-linecap="round" stroke-linejoin="round"/>
<path d="M1146.21 593.495C1146.21 593.495 1103.99 590.254 1063.31 656.493" stroke="#38646D" stroke-width="1.79" stroke-linecap="round" stroke-linejoin="round"/>
<path d="M1144.06 589.308C1144.06 589.308 1136.39 590.315 1134.33 593.943" stroke="#38646D" stroke-width="2.69" stroke-linecap="round" stroke-linejoin="round"/>
<path d="M1134.97 587.54C1134.97 587.54 1128.58 590.034 1128.3 596.258" stroke="#38646D" stroke-width="2.69" stroke-linecap="round" stroke-linejoin="round"/>
<path d="M1126.7 589.32C1124.61 590.109 1122.81 591.505 1121.52 593.33C1120.23 595.154 1119.51 597.323 1119.46 599.557" stroke="#38646D" stroke-width="2.69" stroke-linecap="round" stroke-linejoin="round"/>
<path d="M1118.32 590.792C1118.32 590.792 1111.76 596.217 1113.12 603.372" stroke="#38646D" stroke-width="2.69" stroke-linecap="round" stroke-linejoin="round"/>
<path d="M1110.69 592.841C1110.69 592.841 1104.81 599.975 1104.86 608.359" stroke="#38646D" stroke-width="2.69" stroke-linecap="round" stroke-linejoin="round"/>
<path d="M1102.41 599.817C1102.41 599.817 1096.17 608.757 1096.93 614.761" stroke="#38646D" stroke-width="2.69" stroke-linecap="round" stroke-linejoin="round"/>
<path d="M1094.29 604.578C1094.29 604.578 1088.1 613.273 1089.35 622.537" stroke="#38646D" stroke-width="2.69" stroke-linecap="round" stroke-linejoin="round"/>
<path d="M1085.54 612.851C1085.54 612.851 1082.55 620.434 1083.92 627.918" stroke="#38646D" stroke-width="2.69" stroke-linecap="round" stroke-linejoin="round"/>
<path d="M1077.89 620.957C1077.89 620.957 1075.35 629.09 1077.53 635.445" stroke="#38646D" stroke-width="2.69" stroke-linecap="round" stroke-linejoin="round"/>
<path d="M1072.43 628.084C1072.43 628.084 1066.43 637.712 1069.22 646.053" stroke="#38646D" stroke-width="2.69" stroke-linecap="round" stroke-linejoin="round"/>
<path d="M1143.33 596.549C1143.33 596.549 1138.1 597.923 1134.99 594.811" stroke="#38646D" stroke-width="2.69" stroke-linecap="round" stroke-linejoin="round"/>
<path d="M1139.75 599.301C1139.75 599.301 1133.64 600.97 1129.18 597.082" stroke="#38646D" stroke-width="2.69" stroke-linecap="round" stroke-linejoin="round"/>
<path d="M1134.79 603.392C1134.79 603.392 1129.19 605.979 1120.75 600.129" stroke="#38646D" stroke-width="2.69" stroke-linecap="round" stroke-linejoin="round"/>
<path d="M1125.32 607.476C1123.2 607.788 1121.04 607.61 1119 606.956C1116.96 606.302 1115.1 605.19 1113.55 603.705" stroke="#38646D" stroke-width="2.69" stroke-linecap="round" stroke-linejoin="round"/>
<path d="M1120.85 611.533C1120.85 611.533 1112.19 612.974 1109.48 607.305" stroke="#38646D" stroke-width="2.69" stroke-linecap="round" stroke-linejoin="round"/>
<path d="M1117.03 615.486C1117.03 615.486 1107.33 617.292 1103.82 610.97" stroke="#38646D" stroke-width="2.69" stroke-linecap="round" stroke-linejoin="round"/>
<path d="M1113.5 619.273C1113.5 619.273 1099.4 622.717 1096.41 616.464" stroke="#38646D" stroke-width="2.69" stroke-linecap="round" stroke-linejoin="round"/>
<path d="M1109.56 624.424C1109.56 624.424 1095.04 628.246 1090.41 623.305" stroke="#38646D" stroke-width="2.69" stroke-linecap="round" stroke-linejoin="round"/>
<path d="M1099.43 631.004C1099.43 631.004 1087.58 634.834 1082.64 631.057" stroke="#38646D" stroke-width="2.69" stroke-linecap="round" stroke-linejoin="round"/>
<path d="M1095.27 636.443C1095.27 636.443 1083.14 638.414 1079.99 635.118" stroke="#38646D" stroke-width="2.69" stroke-linecap="round" stroke-linejoin="round"/>
<path d="M1085.81 641.78C1085.81 641.78 1077.74 642.977 1074.71 640.377" stroke="#38646D" stroke-width="2.69" stroke-linecap="round" stroke-linejoin="round"/>
<path d="M1032.77 633.132C1032.77 633.132 1046.02 630.664 1056.33 612.502" stroke="#6BB487" stroke-width="1.79" stroke-linecap="round" stroke-linejoin="round"/>
<path d="M1051.39 567.455C1051.53 568.285 1038.13 626.285 1027.94 629.243" stroke="#38646D" stroke-width="1.79" stroke-linecap="round" stroke-linejoin="round"/>
<path d="M1048.7 562.24C1048.7 562.24 1046.4 569.527 1049.25 573.302" stroke="#38646D" stroke-width="2.69" stroke-linecap="round" stroke-linejoin="round"/>
<path d="M1043.54 567.325C1043.54 567.325 1044.19 578.388 1048.02 580.197" stroke="#38646D" stroke-width="2.69" stroke-linecap="round" stroke-linejoin="round"/>
<path d="M1038.2 583.447C1038.2 583.447 1039.94 593.666 1043.76 595.833" stroke="#38646D" stroke-width="2.69" stroke-linecap="round" stroke-linejoin="round"/>
<path d="M1033.74 598.484C1034.22 602.669 1036.1 606.566 1039.09 609.536" stroke="#38646D" stroke-width="2.69" stroke-linecap="round" stroke-linejoin="round"/>
<path d="M1029.65 607.145C1029.65 607.145 1032.5 614.375 1036.41 615.675" stroke="#38646D" stroke-width="2.69" stroke-linecap="round" stroke-linejoin="round"/>
<path d="M1056.24 565.69C1056.24 565.69 1054.5 571.035 1050.76 572.861" stroke="#38646D" stroke-width="2.69" stroke-linecap="round" stroke-linejoin="round"/>
<path d="M1056.2 574.022C1054.26 576.281 1051.9 578.146 1049.26 579.517" stroke="#38646D" stroke-width="2.69" stroke-linecap="round" stroke-linejoin="round"/>
<path d="M1053.22 581.324C1053.22 581.324 1051.29 588.123 1046.66 588.699C1042.03 589.275 1040.05 576.152 1040.05 576.152" stroke="#38646D" stroke-width="2.69" stroke-linecap="round" stroke-linejoin="round"/>
<path d="M1051.26 591.352C1051.26 591.352 1048.53 595.843 1043.76 595.842" stroke="#38646D" stroke-width="2.69" stroke-linecap="round" stroke-linejoin="round"/>
<path d="M1051.93 597.287C1051.93 597.287 1046.88 605.283 1041.69 602.463C1038.34 600.637 1036.43 591.59 1036.43 591.59" stroke="#38646D" stroke-width="2.69" stroke-linecap="round" stroke-linejoin="round"/>
<path d="M1049.55 605.069C1047.17 608.468 1043.56 610.808 1039.49 611.589" stroke="#38646D" stroke-width="2.69" stroke-linecap="round" stroke-linejoin="round"/>
<path d="M1046.47 615.216C1046.47 615.216 1041.38 621.212 1036.22 620.079" stroke="#38646D" stroke-width="2.69" stroke-linecap="round" stroke-linejoin="round"/>
<path d="M1040.67 624.246C1040.67 624.246 1036.49 629.71 1030.45 628.133" stroke="#38646D" stroke-width="2.69" stroke-linecap="round" stroke-linejoin="round"/>
<path d="M1104.49 678.258C1132.55 656.966 1169.87 670.933 1169.87 670.933C1169.87 670.933 1157.42 653.209 1130.83 656.771C1107.69 659.859 1101.06 681.205 1101.06 681.205L1104.49 678.258Z" fill="#6BB487"/>
<path d="M843.604 1053C843.604 1053 839.066 1079.2 824.639 1103.78C829.016 1126.6 823.608 1131.59 823.608 1131.59C823.608 1131.59 816.93 1133.73 802.458 1129.39C794.919 1138.64 772.598 1157.87 755.747 1156.86C745.85 1156.28 732.593 1149.25 725.617 1137.67C722.046 1131.73 680.44 1154.06 669.22 1166.96C658.001 1179.87 647.14 1188.37 645.061 1148.48C642.983 1108.6 640.327 1080.04 663.083 1070.93C685.84 1061.82 719.884 1075.34 719.884 1075.34C719.884 1075.34 693.552 1050.8 722.427 1038.17C740.915 1030.07 739.392 1058.12 739.392 1058.12C739.392 1058.12 759.642 1010.14 771.975 1019.91C784.308 1029.68 836.472 1046.52 843.604 1053Z" fill="#EFB6AB"/>
<path d="M832.493 1052.44C832.493 1052.44 813.95 1068.14 768.078 1056.34C746.334 1050.75 738.925 1061.75 738.925 1061.75C738.925 1061.75 743.235 1032.72 723.874 1039.45C696.289 1049.04 719.915 1075.33 719.915 1075.33C719.915 1075.33 680.429 1093.66 663.883 1123.07C657.689 1134.06 654.234 1147.03 656.346 1161.91C664.124 1215.8 676.011 1224.07 676.011 1224.07C676.011 1224.07 614.206 1192.08 602.126 1106.78C599.072 1067.82 604.779 1053.14 604.779 1053.14C604.779 1053.14 656.149 1050.11 683.308 1027.92C710.467 1005.74 733.586 986.478 746.617 981.968C759.648 977.458 831.102 1031.17 842.72 1051.32C846.866 1059.7 832.493 1052.44 832.493 1052.44Z" fill="#C05452"/>
<path d="M832.493 1052.44C832.493 1052.44 813.95 1068.14 768.078 1056.34C746.334 1050.75 738.925 1061.75 738.925 1061.75C738.925 1061.75 743.235 1032.72 723.874 1039.45C696.289 1049.04 719.915 1075.33 719.915 1075.33C719.915 1075.33 680.429 1093.66 663.883 1123.07C657.689 1134.06 654.234 1147.03 656.346 1161.91C664.124 1215.8 676.011 1224.07 676.011 1224.07C676.011 1224.07 614.206 1192.08 602.126 1106.78C599.072 1067.82 604.779 1053.14 604.779 1053.14C604.779 1053.14 656.149 1050.11 683.308 1027.92C710.467 1005.74 733.586 986.478 746.617 981.968C759.648 977.458 831.102 1031.17 842.72 1051.32C846.866 1059.7 832.493 1052.44 832.493 1052.44Z" fill="black" fill-opacity="0.2"/>
<path d="M791.029 1025.52C816.965 1045.36 840.31 1058.41 843.172 1054.67C846.034 1050.93 827.328 1031.81 801.392 1011.97C775.456 992.134 752.111 979.084 749.249 982.825C746.387 986.566 765.092 1005.68 791.029 1025.52Z" fill="#E69766"/>
<g opacity="0.59">
<path d="M791.029 1025.52C816.965 1045.36 840.31 1058.41 843.172 1054.67C846.034 1050.93 827.328 1031.81 801.392 1011.97C775.456 992.134 752.111 979.084 749.249 982.825C746.387 986.566 765.092 1005.68 791.029 1025.52Z" fill="#C05452"/>
<path d="M791.029 1025.52C816.965 1045.36 840.31 1058.41 843.172 1054.67C846.034 1050.93 827.328 1031.81 801.392 1011.97C775.456 992.134 752.111 979.084 749.249 982.825C746.387 986.566 765.092 1005.68 791.029 1025.52Z" fill="black" fill-opacity="0.2"/>
</g>
<g opacity="0.59">
<path d="M791.029 1025.52C816.965 1045.36 840.31 1058.41 843.172 1054.67C846.034 1050.93 827.328 1031.81 801.392 1011.97C775.456 992.135 752.111 979.084 749.249 982.825C746.387 986.566 765.092 1005.68 791.029 1025.52Z" fill="#C05452"/>
<path d="M791.029 1025.52C816.965 1045.36 840.31 1058.41 843.172 1054.67C846.034 1050.93 827.328 1031.81 801.392 1011.97C775.456 992.135 752.111 979.084 749.249 982.825C746.387 986.566 765.092 1005.68 791.029 1025.52Z" fill="black" fill-opacity="0.2"/>
</g>
<path d="M794.277 1028.02C794.277 1028.02 777.454 1042.73 739.539 1047.29" stroke="#A26D4B" stroke-width="2.69" stroke-linecap="round" stroke-linejoin="round"/>
<path d="M763.527 1002.28C763.527 1002.28 750.705 995.688 721.031 1019.74C666.749 1063.72 602.44 1076.26 602.44 1076.26" stroke="#A26D4B" stroke-width="2.69" stroke-linecap="round" stroke-linejoin="round"/>
<path d="M855.375 1039.14C855.375 1039.14 862.812 1034.96 885.329 1024.53C907.846 1014.11 916.492 988.532 916.492 988.532C916.492 988.532 908.907 1005.93 886.09 1013.95C863.273 1021.97 852.84 1030.43 853.194 1036.43C853.386 1040.39 855.375 1039.14 855.375 1039.14Z" fill="#38646D"/>
<path d="M880.192 943.6C880.192 943.6 858.316 959.154 852.352 982.204C846.388 1005.25 824.064 1012.87 815.525 1011.08C831.625 1007.77 840.325 981.821 843.744 974.194C847.163 966.566 851.289 960.24 880.192 943.6Z" fill="#6BB487"/>
<path d="M846.533 927.325C846.533 927.325 827.601 954.237 829.402 966.583C831.204 978.929 835.048 978.814 827.298 992.562C850.908 966.909 844.852 951.139 846.533 927.325Z" fill="#C5D786"/>
<path d="M840.479 907.734C840.479 907.734 794.125 920.217 788.522 950.501C785.989 964.114 788.091 978.183 794.493 990.461C794.493 990.461 803.478 980.895 805.838 963.977C807.942 948.99 814.11 927.835 840.479 907.734Z" fill="#38646D"/>
<path d="M834.397 911.441C834.397 911.441 807.747 921.772 803.184 954.676C799.878 978.721 793.89 991.365 793.89 991.365" stroke="#1D1E40" stroke-width="1.79" stroke-linecap="round" stroke-linejoin="round"/>
<path d="M727.843 912.013C727.843 912.013 759.248 913.087 769.671 935.132C780.094 957.177 775.365 972.487 775.365 972.487L778.216 976.323C778.216 976.323 792.026 945.637 774.89 924.883C757.754 904.128 727.843 912.013 727.843 912.013Z" fill="#6BB487"/>
<path d="M792.904 911.326C794.272 910.754 812.066 958.393 779.963 978.395C781.081 959.911 795.15 938.882 792.904 911.326Z" fill="#C5D786"/>
<path d="M919.182 1015.05C919.182 1015.05 901.637 1013.11 888.923 1030.56C873.89 1051.19 858.739 1040.91 858.739 1040.91" stroke="#1D1E40" stroke-width="1.79" stroke-linecap="round" stroke-linejoin="round"/>
<path d="M918.207 962.495C918.207 962.495 875.994 959.254 835.313 1025.49" stroke="#38646D" stroke-width="1.79" stroke-linecap="round" stroke-linejoin="round"/>
<path d="M916.061 958.308C916.061 958.308 908.393 959.315 906.33 962.943" stroke="#38646D" stroke-width="2.69" stroke-linecap="round" stroke-linejoin="round"/>
<path d="M906.974 956.54C906.974 956.54 900.585 959.034 900.305 965.258" stroke="#38646D" stroke-width="2.69" stroke-linecap="round" stroke-linejoin="round"/>
<path d="M898.705 958.32C896.614 959.109 894.808 960.505 893.517 962.33C892.227 964.154 891.513 966.323 891.465 968.557" stroke="#38646D" stroke-width="2.69" stroke-linecap="round" stroke-linejoin="round"/>
<path d="M890.323 959.792C890.323 959.792 883.756 965.217 885.12 972.372" stroke="#38646D" stroke-width="2.69" stroke-linecap="round" stroke-linejoin="round"/>
<path d="M882.688 961.841C882.688 961.841 876.808 968.975 876.857 977.359" stroke="#38646D" stroke-width="2.69" stroke-linecap="round" stroke-linejoin="round"/>
<path d="M874.408 968.817C874.408 968.817 868.173 977.757 868.931 983.761" stroke="#38646D" stroke-width="2.69" stroke-linecap="round" stroke-linejoin="round"/>
<path d="M866.294 973.578C866.294 973.578 860.102 982.273 861.349 991.537" stroke="#38646D" stroke-width="2.69" stroke-linecap="round" stroke-linejoin="round"/>
<path d="M857.54 981.851C857.54 981.851 854.553 989.434 855.919 996.918" stroke="#38646D" stroke-width="2.69" stroke-linecap="round" stroke-linejoin="round"/>
<path d="M849.888 989.957C849.888 989.957 847.351 998.09 849.531 1004.44" stroke="#38646D" stroke-width="2.69" stroke-linecap="round" stroke-linejoin="round"/>
<path d="M844.436 997.084C844.436 997.084 838.436 1006.71 841.224 1015.05" stroke="#38646D" stroke-width="2.69" stroke-linecap="round" stroke-linejoin="round"/>
<path d="M915.329 965.549C915.329 965.549 910.098 966.923 906.995 963.811" stroke="#38646D" stroke-width="2.69" stroke-linecap="round" stroke-linejoin="round"/>
<path d="M911.753 968.301C911.753 968.301 905.644 969.97 901.178 966.082" stroke="#38646D" stroke-width="2.69" stroke-linecap="round" stroke-linejoin="round"/>
<path d="M906.794 972.392C906.794 972.392 901.191 974.979 892.754 969.129" stroke="#38646D" stroke-width="2.69" stroke-linecap="round" stroke-linejoin="round"/>
<path d="M897.321 976.476C895.202 976.788 893.04 976.61 891 975.956C888.96 975.302 887.097 974.19 885.554 972.705" stroke="#38646D" stroke-width="2.69" stroke-linecap="round" stroke-linejoin="round"/>
<path d="M892.851 980.533C892.851 980.533 884.187 981.974 881.481 976.305" stroke="#38646D" stroke-width="2.69" stroke-linecap="round" stroke-linejoin="round"/>
<path d="M889.031 984.486C889.031 984.486 879.328 986.292 875.817 979.97" stroke="#38646D" stroke-width="2.69" stroke-linecap="round" stroke-linejoin="round"/>
<path d="M885.504 988.273C885.504 988.273 871.406 991.717 868.411 985.464" stroke="#38646D" stroke-width="2.69" stroke-linecap="round" stroke-linejoin="round"/>
<path d="M881.563 993.424C881.563 993.424 867.043 997.246 862.416 992.305" stroke="#38646D" stroke-width="2.69" stroke-linecap="round" stroke-linejoin="round"/>
<path d="M871.433 1000C871.433 1000 859.577 1003.83 854.639 1000.06" stroke="#38646D" stroke-width="2.69" stroke-linecap="round" stroke-linejoin="round"/>
<path d="M867.271 1005.44C867.271 1005.44 855.146 1007.41 851.99 1004.12" stroke="#38646D" stroke-width="2.69" stroke-linecap="round" stroke-linejoin="round"/>
<path d="M857.812 1010.78C857.812 1010.78 849.745 1011.98 846.709 1009.38" stroke="#38646D" stroke-width="2.69" stroke-linecap="round" stroke-linejoin="round"/>
<path d="M804.774 1002.13C804.774 1002.13 818.017 999.664 828.334 981.502" stroke="#6BB487" stroke-width="1.79" stroke-linecap="round" stroke-linejoin="round"/>
<path d="M823.388 936.455C823.526 937.285 810.13 995.285 799.943 998.243" stroke="#38646D" stroke-width="1.79" stroke-linecap="round" stroke-linejoin="round"/>
<path d="M820.7 931.24C820.7 931.24 818.399 938.527 821.249 942.302" stroke="#38646D" stroke-width="2.69" stroke-linecap="round" stroke-linejoin="round"/>
<path d="M815.542 936.325C815.542 936.325 816.187 947.388 820.021 949.197" stroke="#38646D" stroke-width="2.69" stroke-linecap="round" stroke-linejoin="round"/>
<path d="M810.201 952.447C810.201 952.447 811.938 962.666 815.765 964.833" stroke="#38646D" stroke-width="2.69" stroke-linecap="round" stroke-linejoin="round"/>
<path d="M805.74 967.484C806.218 971.669 808.106 975.566 811.093 978.536" stroke="#38646D" stroke-width="2.69" stroke-linecap="round" stroke-linejoin="round"/>
<path d="M801.651 976.145C801.651 976.145 804.503 983.375 808.413 984.675" stroke="#38646D" stroke-width="2.69" stroke-linecap="round" stroke-linejoin="round"/>
<path d="M828.245 934.69C828.245 934.69 826.5 940.035 822.76 941.861" stroke="#38646D" stroke-width="2.69" stroke-linecap="round" stroke-linejoin="round"/>
<path d="M828.196 943.022C826.259 945.281 823.905 947.146 821.263 948.517" stroke="#38646D" stroke-width="2.69" stroke-linecap="round" stroke-linejoin="round"/>
<path d="M825.22 950.324C825.22 950.324 823.292 957.123 818.661 957.699C814.029 958.275 812.048 945.152 812.048 945.152" stroke="#38646D" stroke-width="2.69" stroke-linecap="round" stroke-linejoin="round"/>
<path d="M823.265 960.352C823.265 960.352 820.531 964.843 815.76 964.842" stroke="#38646D" stroke-width="2.69" stroke-linecap="round" stroke-linejoin="round"/>
<path d="M823.933 966.287C823.933 966.287 818.879 974.283 813.692 971.463C810.342 969.637 808.432 960.59 808.432 960.59" stroke="#38646D" stroke-width="2.69" stroke-linecap="round" stroke-linejoin="round"/>
<path d="M821.55 974.069C819.172 977.468 815.563 979.808 811.488 980.589" stroke="#38646D" stroke-width="2.69" stroke-linecap="round" stroke-linejoin="round"/>
<path d="M818.475 984.216C818.475 984.216 813.381 990.212 808.22 989.079" stroke="#38646D" stroke-width="2.69" stroke-linecap="round" stroke-linejoin="round"/>
<path d="M812.671 993.246C812.671 993.246 808.491 998.71 802.451 997.133" stroke="#38646D" stroke-width="2.69" stroke-linecap="round" stroke-linejoin="round"/>
<path d="M876.488 1047.26C904.552 1025.97 941.87 1039.93 941.87 1039.93C941.87 1039.93 929.422 1022.21 902.829 1025.77C879.69 1028.86 873.061 1050.2 873.061 1050.2L876.488 1047.26Z" fill="#6BB487"/>
<path d="M155.635 273.916C155.635 273.916 174.181 298.598 210.475 306.714C246.769 314.83 261.382 296.031 263.664 283.423C266.997 264.8 254.702 254.435 266.148 235.948C277.594 217.461 276.706 199.746 276.706 199.746C276.706 199.746 301.539 169.665 304.32 156.633C307.101 143.6 306.11 121.863 294.595 111.644C283.08 101.426 214.29 80.7204 214.29 80.7204C214.29 80.7204 126.607 147.268 115.086 197.188C103.565 247.108 155.635 273.916 155.635 273.916Z" fill="#9D4E49"/>
<path d="M166.851 332.224L163.155 272.629C163.155 272.629 138.473 212.492 98.9655 217.221C66.9759 221.057 45.3994 242.543 45.3994 242.543C45.3994 242.543 80.0116 317.89 166.851 332.224Z" fill="#006376"/>
<path d="M233.724 250.487C233.724 250.487 246.463 275.612 237.079 290.506C229.415 302.63 213.104 302.829 203.427 303.691" stroke="#3C131C" stroke-width="2.69" stroke-linecap="round" stroke-linejoin="round"/>
<path d="M230.125 250.854C230.125 250.854 238.167 270.681 225.911 282.417C213.655 294.153 184.935 291.534 173.724 289.305" stroke="#3C131C" stroke-width="2.69" stroke-linecap="round" stroke-linejoin="round"/>
<path d="M152.324 266.459L163.169 272.616L193.614 234.753C193.614 234.753 201.238 245.616 212.115 248.887C225.636 252.962 239.841 252.204 254.154 240.461C268.467 228.718 273.417 214.868 277.685 204.353C287.819 206.702 294.165 203.023 296.357 195.145C298.55 187.267 293.023 176.987 288.965 166.302C295.425 148.15 292.563 121.986 291.388 113.924C291.388 113.924 257.567 83.08 202.773 91.6724C147.979 100.265 130.017 207.268 130.017 207.268L152.324 266.459Z" fill="#EFB6AB"/>
<path d="M263.318 168.531C264.248 164.299 266.888 161.282 269.215 161.793C271.542 162.305 272.675 166.15 271.745 170.382C270.815 174.614 268.175 177.63 265.848 177.119C263.522 176.608 262.389 172.763 263.318 168.531Z" fill="black"/>
<path d="M281.213 144.366C281.518 145.96 281.354 147.801 279.082 148.58C276.81 149.359 268.141 152.237 265.34 152.631C263.883 152.835 262.251 152.856 261.355 150.585C259.977 147.05 263.736 146.303 263.736 146.303L276.748 142.671C276.748 142.671 280.531 141.52 281.213 144.366Z" fill="#9D4E49"/>
<path d="M169.541 158.929C169.541 158.929 171.22 154.17 175.687 155.956C181.25 158.149 182.363 169.059 182.363 169.059C182.363 169.059 176.635 161.951 172.692 164.11" stroke="#532210" stroke-width="2.69" stroke-linecap="round" stroke-linejoin="round"/>
<path d="M179.028 201.612C179.028 201.612 184.595 222.646 193.352 235.482C189.056 240.353 181.923 249.337 181.923 249.337C181.923 249.337 173.897 225.963 179.028 201.612Z" fill="#EFB6AB"/>
<path d="M179.028 201.612C179.028 201.612 183.773 222.322 193.616 234.772" stroke="#532210" stroke-width="2.69" stroke-linecap="round" stroke-linejoin="round"/>
<path d="M268.346 112.851C268.346 112.851 266.77 120.761 260.579 130.418C254.388 140.075 243.568 151.447 225.078 158.354C202.986 166.623 187.738 161.62 187.738 161.62C187.738 161.62 181.966 141.38 168.124 149.225C155.56 156.334 156.801 178.433 171.244 187.631C160.068 187.963 157.054 204.085 165.169 228.111C173.284 252.137 157.317 274.317 136.608 279.395C115.9 284.472 93.8074 273.435 81.6981 263.005C64.2923 248.022 53.8318 223.887 50.9226 216.822C47.2472 207.885 42.45 178.481 61.2032 160.44C79.9563 142.399 127.889 138.46 155.444 98.5006C165.35 84.1331 176.036 77.1782 178.566 76.0911C180.456 75.2776 191.492 75.4678 207.284 78.4756C223.206 81.4958 268.813 93.9524 285.844 105.261C285.844 105.261 297.836 112.41 290.3 114.318C283.792 115.946 268.346 112.851 268.346 112.851Z" fill="#9D4E49"/>
<path d="M266.358 216.99C266.358 216.99 257.798 204.058 244.185 225.794Z" fill="#CB4646"/>
<path d="M183.192 151.138C183.192 151.138 202.752 134.716 229.982 135.48C248.49 136.008 264.102 122.146 264.102 122.146" stroke="#3C131C" stroke-width="2.69" stroke-linecap="round" stroke-linejoin="round"/>
<path d="M239.112 106.282C239.112 106.282 219.342 104.586 201.898 120.216C184.454 135.845 178.796 147.593 178.796 147.593" stroke="#3C131C" stroke-width="2.69" stroke-linecap="round" stroke-linejoin="round"/>
<path d="M209.267 96.6968C209.267 96.6968 192.008 104.851 184.587 126.386C177.769 146.108 177.451 147.058 177.451 147.058" stroke="#3C131C" stroke-width="2.69" stroke-linecap="round" stroke-linejoin="round"/>
<path d="M158.478 168.901C158.478 168.901 140.555 198.877 108.144 192.769C76.354 186.776 66.8526 201.599 63.3184 214.414C58.3615 232.433 67.8186 247.61 67.8186 247.61" stroke="#3C131C" stroke-width="2.69" stroke-linecap="round" stroke-linejoin="round"/>
<path d="M124.635 236.979C124.635 236.979 125.177 216.548 142.885 215.899C167.45 214.973 172.613 248.631 159.289 264.302" stroke="#3C131C" stroke-width="2.69" stroke-linecap="round" stroke-linejoin="round"/>
<path opacity="0.66" d="M176.639 78.1378C175.143 83.1527 198.295 94.2605 231.398 104.106C264.501 113.952 291.409 117.61 292.899 112.611C294.389 107.612 269.895 95.7718 236.786 85.942C203.677 76.1122 178.126 73.0748 176.639 78.1378Z" fill="#9D4E49"/>
<path d="M272.413 49.8682C272.413 49.8682 289.084 71.6011 267.045 75.175C245.005 78.7489 238.773 62.892 239.757 57.5606C240.741 52.2291 234.557 48.9795 252.849 42.5969C271.141 36.2144 317.781 39.4401 311.952 50.9074C306.124 62.3746 267.137 43.2082 242.815 23.7953C218.494 4.38246 252.729 -10.1834 278.819 7.53132C304.909 25.246 304.357 48.0845 324.416 40.9432C344.475 33.8019 310.51 14.7965 282.208 23.3876C253.906 31.9786 222.561 45.0428 233.274 53.7122C243.987 62.3816 270.983 44.1619 258.931 20.8625C246.88 -2.4369 198.062 -4.08161 205.195 12.1914C212.328 28.4645 243.165 36.6538 249.052 15.7868C254.94 -5.08016 253.833 -24.7989 235.057 -23.7601C216.28 -22.7213 227.767 8.33975 253.902 3.95577C280.037 -0.428211 295.191 -40.0131 319.891 -19.0903C344.592 1.83249 345.866 33.8666 313.281 15.1767C280.696 -3.51325 299.799 -24.1909 277.696 -24.4115C255.593 -24.6322 233.963 -12.8884 261.098 -5.63406C288.233 1.62023 346.053 5.70567 341.849 27.6625C337.645 49.6192 322.506 34.5942 301.026 13.9051C279.545 -6.78393 269.895 -30.9891 259.021 -30.3896C248.147 -29.7901 250.49 -5.78259 266.293 -12.1502C282.096 -18.5179 285.58 -47.8086 263.947 -43.6427C242.314 -39.4768 208.2 -37.0719 207.277 -22.8184C206.354 -8.56497 226.843 -11.7754 224.37 -29.1593C221.896 -46.5432 195.388 -34.7559 190.47 -21.5231C185.552 -8.29039 209.381 20.3147 223.967 16.3488C238.552 12.383 210.975 -0.674688 197.781 9.50548C184.587 19.6856 212.362 47.6338 227.628 43.1785C242.895 38.7231 218.358 36.4958 206.449 43.8118" stroke="#1D1E40" stroke-width="3.47928" stroke-linecap="round" stroke-linejoin="round"/>
<path d="M-72.364 642.916C-72.364 642.916 -53.8178 667.598 -17.5239 675.714C18.7699 683.83 33.3824 665.031 35.6643 652.423C38.9975 633.8 26.7023 623.435 38.1485 604.948C49.5948 586.461 48.7065 568.746 48.7065 568.746C48.7065 568.746 73.5402 538.665 76.3209 525.633C79.1015 512.6 78.111 490.863 66.5957 480.644C55.0805 470.426 -13.7096 449.72 -13.7096 449.72C-13.7096 449.72 -101.392 516.268 -112.913 566.188C-124.434 616.108 -72.364 642.916 -72.364 642.916Z" fill="#9D4E49"/>
<path d="M5.72465 619.487C5.72465 619.487 18.4635 644.612 9.07945 659.506C1.41557 671.63 -14.8957 671.829 -24.5727 672.691" stroke="#3C131C" stroke-width="2.69" stroke-linecap="round" stroke-linejoin="round"/>
<path d="M2.12544 619.854C2.12544 619.854 10.168 639.681 -2.08822 651.417C-14.3445 663.153 -43.0647 660.534 -54.2752 658.305" stroke="#3C131C" stroke-width="2.69" stroke-linecap="round" stroke-linejoin="round"/>
<path d="M-75.675 635.459L-64.83 641.616L-34.3856 603.753C-34.3856 603.753 -26.7609 614.616 -15.884 617.887C-2.36314 621.962 11.8414 621.204 26.1545 609.461C40.4677 597.718 45.4181 583.868 49.6853 573.353C59.8194 575.702 66.1656 572.023 68.358 564.145C70.5504 556.267 65.0237 545.987 60.9662 535.302C67.4255 517.15 64.5639 490.986 63.3889 482.924C63.3889 482.924 29.5679 452.08 -25.2261 460.672C-80.0202 469.265 -97.9822 576.268 -97.9822 576.268L-75.675 635.459Z" fill="#EFB6AB"/>
<path d="M35.3191 537.531C36.2487 533.299 38.8887 530.282 41.2156 530.793C43.5425 531.305 44.6753 535.15 43.7457 539.382C42.8161 543.614 40.1761 546.63 37.8492 546.119C35.5223 545.608 34.3895 541.763 35.3191 537.531Z" fill="black"/>
<path d="M53.2138 513.366C53.5186 514.96 53.3547 516.801 51.0825 517.58C48.8103 518.359 40.1422 521.237 37.3404 521.631C35.8834 521.835 34.2517 521.856 33.3553 519.585C31.978 516.05 35.7364 515.303 35.7364 515.303L48.7485 511.671C48.7485 511.671 52.5313 510.52 53.2138 513.366Z" fill="#9D4E49"/>
<path d="M40.3471 481.851C40.3471 481.851 38.7709 489.761 32.58 499.418C26.3892 509.075 15.5688 520.447 -2.92162 527.354C-25.0131 535.623 -40.2609 530.62 -40.2609 530.62C-40.2609 530.62 -46.0332 510.38 -59.8755 518.225C-72.4395 525.334 -71.1979 547.433 -56.7557 556.631C-67.9311 556.963 -70.9449 573.085 -62.83 597.111C-54.7152 621.137 -70.6828 643.317 -91.3909 648.395C-112.099 653.472 -134.192 642.435 -146.301 632.005C-163.707 617.022 -174.167 592.887 -177.077 585.822C-180.752 576.885 -185.549 547.481 -166.796 529.44C-148.043 511.399 -100.11 507.46 -72.5552 467.501C-62.649 453.133 -51.9633 446.178 -49.4332 445.091C-47.543 444.278 -36.5078 444.468 -20.7156 447.476C-4.79351 450.496 40.8136 462.952 57.8444 474.261C57.8444 474.261 69.8369 481.41 62.3007 483.318C55.7931 484.946 40.3471 481.851 40.3471 481.851Z" fill="#9D4E49"/>
<path d="M38.359 585.99C38.359 585.99 29.7992 573.058 16.1854 594.794Z" fill="#CB4646"/>
<path d="M-44.8071 520.138C-44.8071 520.138 -25.2471 503.716 1.98261 504.48C20.4908 505.008 36.1028 491.146 36.1028 491.146" stroke="#3C131C" stroke-width="2.69" stroke-linecap="round" stroke-linejoin="round"/>
<path d="M11.1125 475.282C11.1125 475.282 -8.6568 473.586 -26.1011 489.216C-43.5454 504.845 -49.2037 516.593 -49.2037 516.593" stroke="#3C131C" stroke-width="2.69" stroke-linecap="round" stroke-linejoin="round"/>
<path opacity="0.66" d="M-51.3602 447.138C-52.8563 452.153 -29.7044 463.26 3.3989 473.106C36.5022 482.952 63.4096 486.61 64.8998 481.611C66.3901 476.612 41.8956 464.772 8.78646 454.942C-24.3227 445.112 -49.8731 442.075 -51.3602 447.138Z" fill="#9D4E49"/>
<path d="M44.4134 418.868C44.4134 418.868 61.0851 440.601 39.0454 444.175C17.0056 447.749 10.774 431.892 11.7577 426.561C12.7414 421.229 6.5581 417.979 24.8497 411.597C43.1413 405.214 89.7817 408.44 83.9532 419.907C78.1247 431.375 39.1379 412.208 14.8161 392.795C-9.50571 373.382 24.73 358.817 50.82 376.531C76.9101 394.246 76.3581 417.084 96.4169 409.943C116.476 402.802 82.5112 383.796 54.2091 392.388C25.9071 400.979 -5.43828 414.043 5.27478 422.712C15.9878 431.382 42.9837 413.162 30.9321 389.863C18.8804 366.563 -29.9372 364.918 -22.8044 381.191C-15.6716 397.464 15.1655 405.654 21.0531 384.787C26.9407 363.92 25.8342 344.201 7.05731 345.24C-11.7196 346.279 -0.232112 377.34 25.9029 372.956C52.0379 368.572 67.1915 328.987 91.8919 349.91C116.592 370.832 117.867 402.867 85.2822 384.177C52.6972 365.487 71.8 344.809 49.697 344.588C27.594 344.368 5.96379 356.112 33.099 363.366C60.2341 370.62 118.054 374.706 113.849 396.662C109.645 418.619 94.5067 403.594 73.0263 382.905C51.5458 362.216 41.8962 338.011 31.0218 338.61C20.1474 339.21 22.491 363.217 38.294 356.85C54.097 350.482 57.5808 321.191 35.9476 325.357C14.3144 329.523 -19.7989 331.928 -20.7222 346.182C-21.6455 360.435 -1.15647 357.225 -3.62966 339.841C-6.10284 322.457 -32.6108 334.244 -37.5291 347.477C-42.4474 360.71 -18.6181 389.315 -4.03268 385.349C10.5528 381.383 -17.0245 368.325 -30.2183 378.505C-43.4121 388.686 -15.6373 416.634 -0.370981 412.178C14.8953 407.723 -9.64105 405.496 -21.5499 412.812" stroke="#1D1E40" stroke-width="3.47928" stroke-linecap="round" stroke-linejoin="round"/>
<path d="M1203.94 3.43427C1203.29 -0.678264 1191.49 -7.11918 1186.4 3.75944C1183.56 10.778 1188.77 15.6834 1193.28 17.496C1195.02 18.2036 1200.66 18.6067 1201.2 24.8342" stroke="#C05452" stroke-width="5.38" stroke-linecap="round" stroke-linejoin="round"/>
<path d="M1203.94 3.43427C1203.29 -0.678264 1191.49 -7.11918 1186.4 3.75944C1183.56 10.778 1188.77 15.6834 1193.28 17.496C1195.02 18.2036 1200.66 18.6067 1201.2 24.8342" stroke="black" stroke-opacity="0.2" stroke-width="5.38" stroke-linecap="round" stroke-linejoin="round"/>
<path d="M1200.25 32.3383C1199.43 33.6551 1199.84 35.3823 1201.16 36.1962C1202.48 37.0102 1204.2 36.6025 1205.02 35.2858C1205.83 33.969 1205.42 32.2419 1204.11 31.4279C1202.79 30.614 1201.06 31.0216 1200.25 32.3383Z" fill="#E65557"/>
<path d="M1200.25 32.3383C1199.43 33.6551 1199.84 35.3823 1201.16 36.1962C1202.48 37.0102 1204.2 36.6025 1205.02 35.2858C1205.83 33.969 1205.42 32.2419 1204.11 31.4279C1202.79 30.614 1201.06 31.0216 1200.25 32.3383Z" stroke="#C05452"/>
<path d="M1200.25 32.3383C1199.43 33.6551 1199.84 35.3823 1201.16 36.1962C1202.48 37.0102 1204.2 36.6025 1205.02 35.2858C1205.83 33.969 1205.42 32.2419 1204.11 31.4279C1202.79 30.614 1201.06 31.0216 1200.25 32.3383Z" stroke="black" stroke-opacity="0.2"/>
<path d="M1196.35 50.6612C1195.9 47.306 1187.53 42.2372 1183.22 51.0558C1180.81 56.7516 1183.74 60.4457 1187.45 62.0171C1188.85 62.6078 1193.47 63.0342 1193.8 68.1166" stroke="#C05452" stroke-width="5.38" stroke-linecap="round" stroke-linejoin="round"/>
<path d="M1196.35 50.6612C1195.9 47.306 1187.53 42.2372 1183.22 51.0558C1180.81 56.7516 1183.74 60.4457 1187.45 62.0171C1188.85 62.6078 1193.47 63.0342 1193.8 68.1166" stroke="black" stroke-opacity="0.2" stroke-width="5.38" stroke-linecap="round" stroke-linejoin="round"/>
<path d="M1191.59 75.127C1190.92 76.2164 1191.26 77.6453 1192.35 78.3186C1193.44 78.992 1194.87 78.6547 1195.54 77.5654C1196.21 76.4761 1195.88 75.0472 1194.79 74.3739C1193.7 73.7005 1192.27 74.0377 1191.59 75.127Z" fill="#E65557"/>
<path d="M1191.59 75.127C1190.92 76.2164 1191.26 77.6453 1192.35 78.3186C1193.44 78.992 1194.87 78.6547 1195.54 77.5654C1196.21 76.4761 1195.88 75.0472 1194.79 74.3739C1193.7 73.7005 1192.27 74.0377 1191.59 75.127Z" stroke="#C05452"/>
<path d="M1191.59 75.127C1190.92 76.2164 1191.26 77.6453 1192.35 78.3186C1193.44 78.992 1194.87 78.6547 1195.54 77.5654C1196.21 76.4761 1195.88 75.0472 1194.79 74.3739C1193.7 73.7005 1192.27 74.0377 1191.59 75.127Z" stroke="black" stroke-opacity="0.2"/>
<path d="M1167.44 58.7032C1166.19 57.074 1160.35 56.8509 1160.64 62.7135C1161.03 66.4294 1163.68 67.4997 1166.03 67.3056C1166.94 67.2144 1169.48 66.0853 1171.14 68.6796" stroke="#C05452" stroke-width="3.59" stroke-linecap="round" stroke-linejoin="round"/>
<path d="M1167.44 58.7032C1166.19 57.074 1160.35 56.8509 1160.64 62.7135C1161.03 66.4294 1163.68 67.4997 1166.03 67.3056C1166.94 67.2144 1169.48 66.0853 1171.14 68.6796" stroke="black" stroke-opacity="0.2" stroke-width="3.59" stroke-linecap="round" stroke-linejoin="round"/>
<path d="M1172.41 72.3753C1172.06 72.939 1172.24 73.6784 1172.8 74.0268C1173.37 74.3752 1174.11 74.2008 1174.45 73.6371C1174.8 73.0734 1174.63 72.3341 1174.06 71.9856C1173.5 71.6372 1172.76 71.8117 1172.41 72.3753Z" fill="#E65557"/>
<path d="M1172.41 72.3753C1172.06 72.939 1172.24 73.6784 1172.8 74.0268C1173.37 74.3752 1174.11 74.2008 1174.45 73.6371C1174.8 73.0734 1174.63 72.3341 1174.06 71.9856C1173.5 71.6372 1172.76 71.8117 1172.41 72.3753Z" stroke="#C05452"/>
<path d="M1172.41 72.3753C1172.06 72.939 1172.24 73.6784 1172.8 74.0268C1173.37 74.3752 1174.11 74.2008 1174.45 73.6371C1174.8 73.0734 1174.63 72.3341 1174.06 71.9856C1173.5 71.6372 1172.76 71.8117 1172.41 72.3753Z" stroke="black" stroke-opacity="0.2"/>
<path d="M1058.45 255.668L984.509 260.339C984.509 260.339 998.334 314.562 1048.91 349.711C1082.1 372.754 1103.25 377.303 1103.25 377.303L1091.97 357.075L1090.39 346.577L1087.09 354.061L1054.49 259.909L1058.43 255.655" fill="#006376"/>
<path d="M1091.79 260.817C1091.79 260.817 1074.7 242.67 1070.42 242.838C1066.14 243.007 1093.02 357.701 1093.02 357.701L1118.44 336.978C1118.44 336.978 1118.87 322.668 1112.67 309.586C1106.46 296.503 1091.79 260.817 1091.79 260.817Z" fill="#CECECE"/>
<path d="M1261.69 199.006C1261.69 199.006 1260.66 216.531 1246.73 235.437C1244.22 253.475 1256.24 262.225 1249.55 268.068C1246.42 270.795 1239.78 270.738 1233.17 269.218C1233.64 273.386 1221.86 291.282 1208 296.912C1188.15 304.945 1172.79 300.961 1154.03 291.914C1134.09 303.408 1090.69 344.368 1090.69 344.368L1062.44 274.204C1062.44 274.204 1101.68 256.658 1110.24 240.492C1118.8 224.326 1133.65 192.03 1126.1 183.052C1118.56 174.075 1216.23 159.519 1234.58 165.785C1252.92 172.05 1261.69 199.006 1261.69 199.006Z" fill="#9D4E49"/>
<path opacity="0.52" d="M1133.95 306.369C1133.95 306.369 1121.48 277.842 1136.56 258.018C1137.4 282.364 1153.3 292.123 1153.3 292.123L1133.95 306.369Z" fill="#9D4E49"/>
<path d="M1137.18 251.228C1136.24 258.885 1137.29 266.655 1140.24 273.783C1143.2 280.911 1147.94 287.154 1154.02 291.905" stroke="#541D1C" stroke-width="2.69" stroke-linecap="round" stroke-linejoin="round"/>
<path d="M1230.97 181.672C1219.92 184.366 1219.54 195.924 1203.36 191.235C1187.19 186.545 1179.49 201.141 1176.34 206.758C1173.19 212.374 1165.65 220.564 1162.34 212.558C1159.03 204.552 1162.06 191.442 1146.33 191.496C1137.81 191.525 1132.93 200.467 1133.62 209.016C1134.32 217.566 1143.52 225.731 1143.52 225.731C1143.52 225.731 1121.14 247.943 1104.05 241.318C1088.93 235.464 1096.2 226.21 1100.41 225.869C1104.01 225.616 1107.52 226.794 1114.34 221.389C1117.33 218.809 1119.81 215.688 1121.64 212.188C1121.64 212.188 1107.67 224.225 1099.87 218.694C1093.82 214.388 1097.48 210.802 1099.86 209.362C1102.24 207.922 1108.2 209.013 1114.3 202.279C1103.57 207.596 1094.2 206.389 1089.19 202.258C1084.18 198.127 1080.69 188.883 1090.44 185.351C1100.2 181.82 1103.93 186.052 1115 170.842C1117.15 167.706 1118.74 164.227 1119.71 160.555C1119.71 160.555 1104.67 158.364 1102.71 151.399C1100.43 143.18 1110.98 149.982 1123.61 145.903C1130.05 143.794 1137.42 139.977 1144.84 128.442C1152.25 116.906 1234.75 152.471 1244.83 158.265C1254.91 164.06 1276.88 175.642 1270.97 178.556C1265.06 181.469 1274.62 192.272 1289.9 195.686C1300.48 198.056 1299.86 212.756 1284.44 212.109C1269.03 211.463 1264.66 204.163 1256.66 195.594C1248.66 187.026 1242.01 178.978 1230.97 181.672Z" fill="#1D1E40"/>
<path d="M1140.27 207.624C1140.27 207.624 1142.52 199.34 1147.11 200.689C1155.34 203.045 1153.56 212.472 1153.56 212.472C1153.56 212.472 1151.43 206.22 1147.69 208.174" stroke="#541D1C" stroke-width="2.69" stroke-linecap="round" stroke-linejoin="round"/>
<path opacity="0.45" d="M1146.12 127.456C1144.48 131.36 1172.91 144.017 1206.95 158.247C1240.99 172.477 1269.89 180.912 1271.51 176.953C1273.14 172.994 1247.15 157.673 1212.85 144.063C1173.81 128.587 1147.75 123.552 1146.12 127.456Z" fill="#1D1E40"/>
<path d="M1070.39 242.832L1054.51 259.923L1087.04 351.497L1103.41 327.709C1103.41 327.709 1073.4 274.678 1070.39 242.832Z" fill="white"/>
<path d="M964.585 74.3372C964.585 74.3372 928.72 97.6823 924.949 102.833C921.178 107.984 885.012 142.18 850.126 143.208C828.035 143.826 817.626 125.528 817.626 125.528L793.482 142.54C793.482 142.54 765.783 90.618 747.478 88.3995C770.122 72.2873 816.039 53.1888 824.402 38.7432C832.766 24.2976 820.337 -17.2329 846.272 -20.5617C872.206 -23.8905 937.195 17.0865 955.101 41.7164C973.007 66.3463 964.585 74.3372 964.585 74.3372Z" fill="#EFB6AB"/>
<path d="M937.962 29.912C937.962 29.912 928.329 58.1877 954.862 75.9596C979.123 91.5793 991.713 71.9778 994.131 67.5334C996.549 63.0889 998.898 53.9111 994.004 45.5838C989.11 37.2565 957.954 -13.7669 893.508 -52.9949C879.102 -61.7589 836.829 -36.2554 822.918 -13.2766C809.661 8.59491 816.666 24.9463 799.448 40.2405C789.464 49.1086 782.181 48.2317 784.301 56.2188C786.867 66.0384 795.651 60.6345 801.72 56.871C807.79 53.1075 830.791 33.7254 830.791 33.7254C830.791 33.7254 821.575 6.86299 843.941 -4.94599C860.742 -12.4856 863.876 6.27741 862.804 13.8023C861.732 21.3273 856.866 30.2731 863.058 35.5369C869.25 40.8007 880.004 36.479 885.286 33.6982C890.568 30.9174 910.628 10.883 937.962 29.912Z" fill="#A26D4B"/>
<path d="M845.256 12.7904C845.256 12.7904 853.611 14.2715 849.505 28.6326C849.505 28.6326 855.68 22.915 855.012 12.0848C854.343 1.25469 843.569 4.25945 843.569 4.25945" stroke="#532210" stroke-width="2.69" stroke-linecap="round" stroke-linejoin="round"/>
<path d="M928.142 89.3962C928.142 89.3962 921.99 126.157 916.633 132.541C911.275 138.924 904.12 137.832 899.479 132.812C895.933 128.977 889.529 119.534 889.529 119.534" fill="#EFB6AB"/>
<path d="M904.194 82.4849C904.194 82.4849 899.643 95.8042 913.586 98.1242" stroke="black" stroke-width="5.38" stroke-miterlimit="10" stroke-linecap="round"/>
<path d="M912.292 72.4214C912.292 72.4214 925.52 74.7208 931.728 82.9943" stroke="#A26D4B" stroke-width="7.18" stroke-linecap="round" stroke-linejoin="round"/>
<path d="M854.652 123.169C854.652 123.169 872.307 120.833 873.61 130.903" stroke="#532210" stroke-width="3.59" stroke-linecap="round" stroke-linejoin="round"/>
<path d="M817.657 125.511C796.888 97.4911 819.029 67.6696 819.029 67.6696" stroke="#532210" stroke-width="2.69" stroke-linecap="round" stroke-linejoin="round"/>
<path d="M815.293 74.5423C815.293 74.5423 805.456 89.1025 804.917 89.9572C800.433 97.1944 787.521 117.116 802.485 136.218C812.37 129.254 817.656 125.518 817.656 125.518C817.656 125.518 800.282 109.569 815.293 74.5423Z" fill="#EFB6AB"/>
<path d="M709.069 95.2361C709.069 95.2361 734.993 68.8732 766.49 102.181C797.986 135.489 795.325 166.125 823.978 199.413C834.123 211.25 848.694 223.662 848.694 223.662C848.694 223.662 748.688 207.955 709.069 95.2361Z" fill="#006376"/>
<path opacity="0.62" d="M996.324 56.8854C992.02 61.0411 965.053 40.1581 936.089 10.2078C907.125 -19.7425 887.125 -47.3754 891.412 -51.5399C895.7 -55.7045 932.735 -26.0172 953.044 -5.99775C981.161 21.7544 1000.63 52.7297 996.324 56.8854Z" fill="#A26D4B"/>
<path d="M1264.39 540.78C1264.39 540.78 1277.43 480.985 1263.64 440.18C1249.85 399.374 1200.77 427.285 1200.77 427.285C1200.77 427.285 1205.56 497.611 1264.39 540.78Z" fill="#E2C581"/>
<path d="M1442.6 376.997C1442.6 376.997 1438.07 403.204 1423.64 427.784C1428.02 450.603 1422.61 455.594 1422.61 455.594C1422.61 455.594 1415.93 457.734 1401.46 453.392C1393.92 462.642 1371.6 481.868 1354.75 480.862C1344.85 480.28 1331.59 473.252 1324.62 461.67C1321.05 455.728 1279.44 478.062 1268.22 490.965C1257 503.868 1246.14 512.37 1244.06 472.485C1241.98 432.599 1239.33 404.041 1262.08 394.932C1284.84 385.823 1318.88 399.344 1318.88 399.344C1318.88 399.344 1292.55 374.796 1321.43 362.175C1339.92 354.071 1338.39 382.121 1338.39 382.121C1338.39 382.121 1358.64 334.139 1370.98 343.911C1383.31 353.683 1435.47 370.52 1442.6 376.997Z" fill="#EFB6AB"/>
<path d="M1431.49 376.44C1431.49 376.44 1412.95 392.137 1367.08 380.344C1345.33 374.747 1337.93 385.755 1337.93 385.755C1337.93 385.755 1342.24 356.722 1322.87 363.446C1295.29 373.045 1318.92 399.329 1318.92 399.329C1318.92 399.329 1279.43 417.657 1262.88 447.074C1256.69 458.056 1253.23 471.028 1255.35 485.908C1263.12 539.801 1275.01 548.065 1275.01 548.065C1275.01 548.065 1213.21 516.084 1201.13 430.782C1198.07 391.818 1203.78 377.138 1203.78 377.138C1203.78 377.138 1255.15 374.109 1282.31 351.923C1309.47 329.738 1332.59 310.478 1345.62 305.968C1358.65 301.458 1430.1 355.173 1441.72 375.319C1445.87 383.696 1431.49 376.44 1431.49 376.44Z" fill="#C05452"/>
<path d="M1431.49 376.44C1431.49 376.44 1412.95 392.137 1367.08 380.344C1345.33 374.747 1337.93 385.755 1337.93 385.755C1337.93 385.755 1342.24 356.722 1322.87 363.446C1295.29 373.045 1318.92 399.329 1318.92 399.329C1318.92 399.329 1279.43 417.657 1262.88 447.074C1256.69 458.056 1253.23 471.028 1255.35 485.908C1263.12 539.801 1275.01 548.065 1275.01 548.065C1275.01 548.065 1213.21 516.084 1201.13 430.782C1198.07 391.818 1203.78 377.138 1203.78 377.138C1203.78 377.138 1255.15 374.109 1282.31 351.923C1309.47 329.738 1332.59 310.478 1345.62 305.968C1358.65 301.458 1430.1 355.173 1441.72 375.319C1445.87 383.696 1431.49 376.44 1431.49 376.44Z" fill="black" fill-opacity="0.2"/>
<path d="M1362.53 326.277C1362.53 326.277 1349.71 319.688 1320.03 343.738C1265.75 387.721 1201.44 400.255 1201.44 400.255" stroke="#A26D4B" stroke-width="2.69" stroke-linecap="round" stroke-linejoin="round"/>
<path d="M526.636 -33.0841C526.636 -33.0841 545.182 -8.40173 581.476 -0.285798C617.77 7.83013 632.383 -10.9691 634.665 -23.5773C637.998 -42.1999 625.703 -52.5649 637.149 -71.0518C648.595 -89.5387 647.707 -107.254 647.707 -107.254C647.707 -107.254 672.54 -137.335 675.321 -150.367C678.102 -163.4 677.111 -185.137 665.596 -195.356C654.081 -205.574 585.291 -226.28 585.291 -226.28C585.291 -226.28 497.608 -159.732 486.087 -109.812C474.566 -59.8919 526.636 -33.0841 526.636 -33.0841Z" fill="#9D4E49"/>
<path d="M537.852 25.2237L534.156 -34.3707C534.156 -34.3707 509.474 -94.5082 469.966 -89.779C437.977 -85.9428 416.4 -64.457 416.4 -64.457C416.4 -64.457 451.013 10.8896 537.852 25.2237Z" fill="#006376"/>
<path d="M604.725 -56.513C604.725 -56.513 617.464 -31.3876 608.08 -16.494C600.416 -4.37013 584.105 -4.17096 574.428 -3.3091" stroke="#3C131C" stroke-width="2.69" stroke-linecap="round" stroke-linejoin="round"/>
<path d="M601.126 -56.1464C601.126 -56.1464 609.168 -36.3188 596.912 -24.5831C584.656 -12.8473 555.936 -15.466 544.725 -17.6949" stroke="#3C131C" stroke-width="2.69" stroke-linecap="round" stroke-linejoin="round"/>
<path d="M639.347 -194.149C639.347 -194.149 637.771 -186.239 631.58 -176.582C625.389 -166.925 614.569 -155.553 596.079 -148.646C573.987 -140.377 558.739 -145.38 558.739 -145.38C558.739 -145.38 552.967 -165.62 539.125 -157.775C526.561 -150.666 527.802 -128.567 542.245 -119.369C531.069 -119.037 528.055 -102.915 536.17 -78.889C544.285 -54.8631 528.317 -32.6832 507.609 -27.6054C486.901 -22.5275 464.808 -33.5646 452.699 -43.9951C435.293 -58.9777 424.833 -83.1128 421.924 -90.1777C418.248 -99.1152 413.451 -128.519 432.204 -146.56C450.957 -164.601 498.89 -168.54 526.445 -208.499C536.351 -222.867 547.037 -229.822 549.567 -230.909C551.457 -231.722 562.492 -231.532 578.285 -228.524C594.207 -225.504 639.814 -213.048 656.845 -201.739C656.845 -201.739 668.837 -194.59 661.301 -192.682C654.793 -191.054 639.347 -194.149 639.347 -194.149Z" fill="#9D4E49"/>
<rect width="1200" height="1054" fill="#EEC4B4" fill-opacity="0.25"/>
</g>
<defs>
<clipPath id="clip0_19_550">
<rect width="1200" height="1024" fill="white"/>
</clipPath>
</defs>
</svg>
