<svg width="226" height="386" viewBox="0 0 226 386" fill="none" xmlns="http://www.w3.org/2000/svg">
<path d="M176.829 13.4949C175.804 7.34266 158.157 -2.30609 150.508 13.987C146.253 24.5483 154.076 31.89 160.823 34.6175C163.438 35.6429 171.897 36.2889 172.707 45.6403" stroke="#C05452" stroke-width="8.97" stroke-linecap="round" stroke-linejoin="round"/>
<path d="M176.829 13.4949C175.804 7.34266 158.157 -2.30609 150.508 13.987C146.253 24.5483 154.076 31.89 160.823 34.6175C163.438 35.6429 171.897 36.2889 172.707 45.6403" stroke="black" stroke-opacity="0.2" stroke-width="8.97" stroke-linecap="round" stroke-linejoin="round"/>
<path d="M49.1535 27.1536C46.5593 24.1492 33.773 24.8362 35.0957 36.2076C36.3056 43.3237 42.991 44.6874 47.5539 43.8979C49.3175 43.6005 54.0958 41.0986 57.6538 45.8768" stroke="#C05452" stroke-width="5.38" stroke-linecap="round" stroke-linejoin="round"/>
<path d="M49.1535 27.1536C46.5593 24.1492 33.773 24.8362 35.0957 36.2076C36.3056 43.3237 42.991 44.6874 47.5539 43.8979C49.3175 43.6005 54.0958 41.0986 57.6538 45.8768" stroke="black" stroke-opacity="0.2" stroke-width="5.38" stroke-linecap="round" stroke-linejoin="round"/>
<path d="M149.073 52.2017C149.955 50.9303 148.355 46.0495 144.161 47.6081C141.567 48.7052 141.752 51.3917 142.521 53.0835C142.818 53.7295 144.264 55.3496 142.818 57.185" stroke="#C05452" stroke-width="3.59" stroke-linecap="round" stroke-linejoin="round"/>
<path d="M149.073 52.2017C149.955 50.9303 148.355 46.0495 144.161 47.6081C141.567 48.7052 141.752 51.3917 142.521 53.0835C142.818 53.7295 144.264 55.3496 142.818 57.185" stroke="black" stroke-opacity="0.2" stroke-width="3.59" stroke-linecap="round" stroke-linejoin="round"/>
<path d="M169.342 56.601C169.342 58.7656 171.097 60.5204 173.262 60.5204C175.426 60.5204 177.181 58.7656 177.181 56.601C177.181 54.4364 175.426 52.6816 173.262 52.6816C171.097 52.6816 169.342 54.4364 169.342 56.601Z" fill="#E65557"/>
<path d="M169.342 56.601C169.342 58.7656 171.097 60.5204 173.262 60.5204C175.426 60.5204 177.181 58.7656 177.181 56.601C177.181 54.4364 175.426 52.6816 173.262 52.6816C171.097 52.6816 169.342 54.4364 169.342 56.601Z" stroke="#C05452"/>
<path d="M169.342 56.601C169.342 58.7656 171.097 60.5204 173.262 60.5204C175.426 60.5204 177.181 58.7656 177.181 56.601C177.181 54.4364 175.426 52.6816 173.262 52.6816C171.097 52.6816 169.342 54.4364 169.342 56.601Z" stroke="black" stroke-opacity="0.2"/>
<path d="M95.2919 46.7992C95.2919 48.2616 96.4774 49.4471 97.9398 49.4471C99.4021 49.4471 100.588 48.2616 100.588 46.7992C100.588 45.3368 99.4022 44.1514 97.9398 44.1514C96.4774 44.1514 95.2919 45.3368 95.2919 46.7992Z" fill="#E65557"/>
<path d="M95.2919 46.7992C95.2919 48.2616 96.4774 49.4471 97.9398 49.4471C99.4021 49.4471 100.588 48.2616 100.588 46.7992C100.588 45.3368 99.4022 44.1514 97.9398 44.1514C96.4774 44.1514 95.2919 45.3368 95.2919 46.7992Z" stroke="#C05452"/>
<path d="M95.2919 46.7992C95.2919 48.2616 96.4774 49.4471 97.9398 49.4471C99.4021 49.4471 100.588 48.2616 100.588 46.7992C100.588 45.3368 99.4022 44.1514 97.9398 44.1514C96.4774 44.1514 95.2919 45.3368 95.2919 46.7992Z" stroke="black" stroke-opacity="0.2"/>
<path d="M60.6657 52.4379C60.6657 53.9003 61.8512 55.0858 63.3136 55.0858C64.776 55.0858 65.9614 53.9003 65.9614 52.4379C65.9614 50.9755 64.776 49.79 63.3136 49.79C61.8512 49.79 60.6657 50.9755 60.6657 52.4379Z" fill="#E65557"/>
<path d="M60.6657 52.4379C60.6657 53.9003 61.8512 55.0858 63.3136 55.0858C64.776 55.0858 65.9614 53.9003 65.9614 52.4379C65.9614 50.9755 64.776 49.79 63.3136 49.79C61.8512 49.79 60.6657 50.9755 60.6657 52.4379Z" stroke="#C05452"/>
<path d="M60.6657 52.4379C60.6657 53.9003 61.8512 55.0858 63.3136 55.0858C64.776 55.0858 65.9614 53.9003 65.9614 52.4379C65.9614 50.9755 64.776 49.79 63.3136 49.79C61.8512 49.79 60.6657 50.9755 60.6657 52.4379Z" stroke="black" stroke-opacity="0.2"/>
<path d="M117.059 93.9355C117.059 95.7546 118.534 97.2294 120.353 97.2294C122.172 97.2294 123.647 95.7546 123.647 93.9355C123.647 92.1163 122.172 90.6416 120.353 90.6416C118.534 90.6416 117.059 92.1163 117.059 93.9355Z" fill="#E65557"/>
<path d="M117.059 93.9355C117.059 95.7546 118.534 97.2294 120.353 97.2294C122.172 97.2294 123.647 95.7546 123.647 93.9355C123.647 92.1163 122.172 90.6416 120.353 90.6416C118.534 90.6416 117.059 92.1163 117.059 93.9355Z" stroke="#C05452"/>
<path d="M117.059 93.9355C117.059 95.7546 118.534 97.2294 120.353 97.2294C122.172 97.2294 123.647 95.7546 123.647 93.9355C123.647 92.1163 122.172 90.6416 120.353 90.6416C118.534 90.6416 117.059 92.1163 117.059 93.9355Z" stroke="black" stroke-opacity="0.2"/>
<path d="M120.353 61.5852C120.353 61.5852 112.621 50.8291 105.167 56.4584C97.333 62.3645 101.383 73.2744 111.76 76.5658C116.784 78.1654 118.343 83.4256 118.343 83.4256" stroke="#C05452" stroke-width="7.18" stroke-linecap="round" stroke-linejoin="round"/>
<path d="M120.353 61.5852C120.353 61.5852 112.621 50.8291 105.167 56.4584C97.333 62.3645 101.383 73.2744 111.76 76.5658C116.784 78.1654 118.343 83.4256 118.343 83.4256" stroke="black" stroke-opacity="0.2" stroke-width="7.18" stroke-linecap="round" stroke-linejoin="round"/>
<path d="M151.021 97.0705C150.406 98.1216 150.773 99.5066 151.88 100.154C152.986 100.802 154.374 100.445 154.989 99.394C155.605 98.3429 155.237 96.9579 154.131 96.31C153.024 95.6622 151.637 96.0193 151.021 97.0705Z" fill="#E65557"/>
<path d="M151.021 97.0705C150.406 98.1216 150.773 99.5066 151.88 100.154C152.986 100.802 154.374 100.445 154.989 99.394C155.605 98.3429 155.237 96.9579 154.131 96.31C153.024 95.6622 151.637 96.0193 151.021 97.0705Z" stroke="#C05452"/>
<path d="M151.021 97.0705C150.406 98.1216 150.773 99.5066 151.88 100.154C152.986 100.802 154.374 100.445 154.989 99.394C155.605 98.3429 155.237 96.9579 154.131 96.31C153.024 95.6622 151.637 96.0193 151.021 97.0705Z" stroke="black" stroke-opacity="0.2"/>
<path d="M119.255 42.3633C118.903 42.9639 119.11 43.7668 119.758 44.1462C120.406 44.5257 121.208 44.3134 121.559 43.7128C121.911 43.1122 121.704 42.3093 121.056 41.9299C120.408 41.5504 119.606 41.7627 119.255 42.3633Z" fill="#E65557"/>
<path d="M119.255 42.3633C118.903 42.9639 119.11 43.7668 119.758 44.1462C120.406 44.5257 121.208 44.3134 121.559 43.7128C121.911 43.1122 121.704 42.3093 121.056 41.9299C120.408 41.5504 119.606 41.7627 119.255 42.3633Z" stroke="#C05452"/>
<path d="M119.255 42.3633C118.903 42.9639 119.11 43.7668 119.758 44.1462C120.406 44.5257 121.208 44.3134 121.559 43.7128C121.911 43.1122 121.704 42.3093 121.056 41.9299C120.408 41.5504 119.606 41.7627 119.255 42.3633Z" stroke="black" stroke-opacity="0.2"/>
<path d="M139.111 60.0581C138.759 60.6587 138.966 61.4616 139.614 61.841C140.262 62.2205 141.064 62.0082 141.416 61.4076C141.767 60.807 141.56 60.0041 140.912 59.6247C140.264 59.2452 139.462 59.4575 139.111 60.0581Z" fill="#E65557"/>
<path d="M139.111 60.0581C138.759 60.6587 138.966 61.4616 139.614 61.841C140.262 62.2205 141.064 62.0082 141.416 61.4076C141.767 60.807 141.56 60.0041 140.912 59.6247C140.264 59.2452 139.462 59.4575 139.111 60.0581Z" stroke="#C05452"/>
<path d="M139.111 60.0581C138.759 60.6587 138.966 61.4616 139.614 61.841C140.262 62.2205 141.064 62.0082 141.416 61.4076C141.767 60.807 141.56 60.0041 140.912 59.6247C140.264 59.2452 139.462 59.4575 139.111 60.0581Z" stroke="black" stroke-opacity="0.2"/>
<path d="M164.65 78.2387C164.65 78.2387 163.625 68.7129 156.888 69.4307C149.772 70.1587 148.388 78.4027 153.812 84.3088C154.582 85.2247 155.135 86.3022 155.432 87.4614C155.728 88.6205 155.76 89.8315 155.524 91.0045" stroke="#C05452" stroke-width="5.38" stroke-linecap="round" stroke-linejoin="round"/>
<path d="M164.65 78.2387C164.65 78.2387 163.625 68.7129 156.888 69.4307C149.772 70.1587 148.388 78.4027 153.812 84.3088C154.582 85.2247 155.135 86.3022 155.432 87.4614C155.728 88.6205 155.76 89.8315 155.524 91.0045" stroke="black" stroke-opacity="0.2" stroke-width="5.38" stroke-linecap="round" stroke-linejoin="round"/>
<path d="M127.326 30.4237C127.326 30.4237 126.732 24.8457 122.784 25.2456C118.621 25.6865 117.811 30.516 120.959 33.9715C121.414 34.5051 121.742 35.1344 121.92 35.8126C122.097 36.4908 122.119 37.2004 121.984 37.8884" stroke="#C05452" stroke-width="3.59" stroke-linecap="round" stroke-linejoin="round"/>
<path d="M127.326 30.4237C127.326 30.4237 126.732 24.8457 122.784 25.2456C118.621 25.6865 117.811 30.516 120.959 33.9715C121.414 34.5051 121.742 35.1344 121.92 35.8126C122.097 36.4908 122.119 37.2004 121.984 37.8884" stroke="black" stroke-opacity="0.2" stroke-width="3.59" stroke-linecap="round" stroke-linejoin="round"/>
<path d="M96.0315 21.2789C96.0315 14.7985 82.3223 11.948 82.066 22.3042C81.8096 32.6605 91.5917 29.5536 94.1346 34.6087C96.6775 39.6637 95.5701 37.6848 95.5701 37.6848" stroke="#C05452" stroke-width="5.38" stroke-linecap="round" stroke-linejoin="round"/>
<path d="M96.0315 21.2789C96.0315 14.7985 82.3223 11.948 82.066 22.3042C81.8096 32.6605 91.5917 29.5536 94.1346 34.6087C96.6775 39.6637 95.5701 37.6848 95.5701 37.6848" stroke="black" stroke-opacity="0.2" stroke-width="5.38" stroke-linecap="round" stroke-linejoin="round"/>
<path d="M196.223 69.4167C194.776 69.6235 193.77 70.9647 193.977 72.4124C194.183 73.8601 195.525 74.866 196.972 74.6592C198.42 74.4524 199.426 73.1111 199.219 71.6634C199.012 70.2158 197.671 69.2098 196.223 69.4167Z" fill="#E65557"/>
<path d="M196.223 69.4167C194.776 69.6235 193.77 70.9647 193.977 72.4124C194.183 73.8601 195.525 74.866 196.972 74.6592C198.42 74.4524 199.426 73.1111 199.219 71.6634C199.012 70.2158 197.671 69.2098 196.223 69.4167Z" stroke="#C05452"/>
<path d="M196.223 69.4167C194.776 69.6235 193.77 70.9647 193.977 72.4124C194.183 73.8601 195.525 74.866 196.972 74.6592C198.42 74.4524 199.426 73.1111 199.219 71.6634C199.012 70.2158 197.671 69.2098 196.223 69.4167Z" stroke="black" stroke-opacity="0.2"/>
<path d="M217.588 57.3684C224.848 52.4979 220.91 43.8848 212.584 45.6484C204.638 47.33 208.206 57.7785 205.13 62.5773C202.054 67.376 203.233 65.356 203.233 65.356" stroke="#C05452" stroke-width="7.18" stroke-linecap="round" stroke-linejoin="round"/>
<path d="M217.588 57.3684C224.848 52.4979 220.91 43.8848 212.584 45.6484C204.638 47.33 208.206 57.7785 205.13 62.5773C202.054 67.376 203.233 65.356 203.233 65.356" stroke="black" stroke-opacity="0.2" stroke-width="7.18" stroke-linecap="round" stroke-linejoin="round"/>
<path d="M66.6657 69.2439C64.6149 66.7523 55.2943 66.8344 56.2171 76.1447C57.1195 81.9688 61.344 83.4966 65.1379 82.9121C66.5734 82.6865 70.5313 80.7178 73.3408 84.6757" stroke="#C05452" stroke-width="5.38" stroke-linecap="round" stroke-linejoin="round"/>
<path d="M66.6657 69.2439C64.6149 66.7523 55.2943 66.8344 56.2171 76.1447C57.1195 81.9688 61.344 83.4966 65.1379 82.9121C66.5734 82.6865 70.5313 80.7178 73.3408 84.6757" stroke="black" stroke-opacity="0.2" stroke-width="5.38" stroke-linecap="round" stroke-linejoin="round"/>
<path d="M75.0924 91.4628C75.0924 92.6704 76.0713 93.6494 77.2789 93.6494C78.4864 93.6494 79.4653 92.6704 79.4653 91.4628C79.4653 90.2553 78.4864 89.2764 77.2789 89.2764C76.0713 89.2764 75.0924 90.2553 75.0924 91.4628Z" fill="#E65557"/>
<path d="M75.0924 91.4628C75.0924 92.6704 76.0713 93.6494 77.2789 93.6494C78.4864 93.6494 79.4653 92.6704 79.4653 91.4628C79.4653 90.2553 78.4864 89.2764 77.2789 89.2764C76.0713 89.2764 75.0924 90.2553 75.0924 91.4628Z" stroke="#C05452"/>
<path d="M75.0924 91.4628C75.0924 92.6704 76.0713 93.6494 77.2789 93.6494C78.4864 93.6494 79.4653 92.6704 79.4653 91.4628C79.4653 90.2553 78.4864 89.2764 77.2789 89.2764C76.0713 89.2764 75.0924 90.2553 75.0924 91.4628Z" stroke="black" stroke-opacity="0.2"/>
<path d="M47.2546 90.254C45.4294 89.5568 40.5794 92.3048 43.7581 96.9087C45.9319 99.7285 48.6183 99.2671 50.423 97.9341C51.1202 97.4009 52.607 95.2168 55.2524 96.4883" stroke="#C05452" stroke-width="3.59" stroke-linecap="round" stroke-linejoin="round"/>
<path d="M47.2546 90.254C45.4294 89.5568 40.5794 92.3048 43.7581 96.9087C45.9319 99.7285 48.6183 99.2671 50.423 97.9341C51.1202 97.4009 52.607 95.2168 55.2524 96.4883" stroke="black" stroke-opacity="0.2" stroke-width="3.59" stroke-linecap="round" stroke-linejoin="round"/>
<path d="M58.1637 98.8442C58.1637 99.4628 58.6651 99.9643 59.2837 99.9643C59.9023 99.9643 60.4038 99.4628 60.4038 98.8442C60.4038 98.2256 59.9023 97.7241 59.2837 97.7241C58.6651 97.7241 58.1637 98.2256 58.1637 98.8442Z" fill="#E65557"/>
<path d="M58.1637 98.8442C58.1637 99.4628 58.6651 99.9643 59.2837 99.9643C59.9023 99.9643 60.4038 99.4628 60.4038 98.8442C60.4038 98.2256 59.9023 97.7241 59.2837 97.7241C58.6651 97.7241 58.1637 98.2256 58.1637 98.8442Z" stroke="#C05452"/>
<path d="M58.1637 98.8442C58.1637 99.4628 58.6651 99.9643 59.2837 99.9643C59.9023 99.9643 60.4038 99.4628 60.4038 98.8442C60.4038 98.2256 59.9023 97.7241 59.2837 97.7241C58.6651 97.7241 58.1637 98.2256 58.1637 98.8442Z" stroke="black" stroke-opacity="0.2"/>
<path d="M57.602 304.548L-1.52588e-05 345.388C-1.52588e-05 345.388 38.3794 382.417 96.9935 385.569C135.447 387.618 154.875 380.706 154.875 380.706L135.595 369.959L129.053 362.24L130.131 369.959L56.5158 309.971L57.5773 304.548" fill="#006376"/>
<path d="M87.2093 292.016C87.2093 292.016 64.259 285.869 60.8769 288.148C57.4949 290.427 136.755 369.943 136.755 369.943L146.984 340.401C146.984 340.401 140.162 328.585 128.576 321.088C116.989 313.592 87.2093 292.016 87.2093 292.016Z" fill="#CECECE"/>
<path d="M193.97 156.766C193.97 156.766 201.92 171.488 200.101 193.796C207.104 209.678 221.233 210.748 218.739 218.837C217.571 222.614 212.156 225.897 206.034 227.979C208.503 231.122 207.927 251.53 199.509 263.042C187.445 279.5 172.995 283.968 153.254 286.033C142.845 305.346 128.189 360.299 128.189 360.299L70.1262 317.575C70.1262 317.575 93.1423 283.688 91.9821 266.292C90.8218 248.897 86.6745 215.273 76.0592 211.776C65.444 208.279 137.331 147.534 155.344 143.419C173.357 139.305 193.97 156.766 193.97 156.766Z" fill="#9D4E49"/>
<path d="M186.178 202.519C183.746 202.519 181.775 199.107 181.775 194.899C181.775 190.69 183.746 187.279 186.178 187.279C188.609 187.279 190.58 190.69 190.58 194.899C190.58 199.107 188.609 202.519 186.178 202.519Z" fill="#0C0C0C"/>
<g style="mix-blend-mode:multiply">
<path d="M186.828 249.595C186.886 256.088 195.057 253.537 195.057 253.537C195.057 253.537 202.348 251.184 199.723 237.614C199.78 237.614 186.754 242.535 186.828 249.595Z" fill="#A26D4B"/>
</g>
<path d="M188.219 172.87C188.219 172.87 185.338 177.231 181.767 179.544C179.602 181.049 177.198 182.178 174.657 182.885" stroke="#1D1E40" stroke-width="7.18" stroke-linecap="round" stroke-linejoin="round"/>
<path opacity="0.52" d="M144.219 307.815C144.219 307.815 119.812 290.938 122.1 267.312C134.986 286.626 152.769 286.568 152.769 286.568L144.219 307.815Z" fill="#9D4E49"/>
<path d="M119.203 261.495C122.277 268.174 127.027 273.944 132.991 278.244C138.955 282.544 145.93 285.227 153.238 286.034" stroke="#541D1C" stroke-width="2.69" stroke-linecap="round" stroke-linejoin="round"/>
<path d="M160.38 158.107C152.777 165.826 158.257 175.388 142.795 179.692C127.333 183.995 128.403 199.688 128.666 205.818C128.93 211.949 126.922 222.367 120.224 217.536C113.525 212.706 109.411 200.56 96.6889 208.484C89.7932 212.78 90.3198 222.474 95.1666 229.057C100.013 235.64 111.567 237.648 111.567 237.648C111.567 237.648 104.556 266.868 87.3821 270.061C72.1917 272.892 73.4424 261.75 76.6846 259.363C79.4742 257.356 82.9138 256.549 85.7363 248.748C86.8689 245.158 87.3129 241.386 87.0448 237.631C87.0448 237.631 81.7454 254.393 72.6525 253.817C65.5921 253.356 66.7606 248.617 67.9703 246.255C69.1799 243.893 74.5533 241.795 76.125 233.278C70.0933 242.963 61.8891 246.683 55.7586 245.843C49.6281 245.004 42.1646 239.26 48.3033 231.509C54.442 223.757 59.5851 225.321 60.9429 207.439C61.1073 203.823 60.6537 200.206 59.6015 196.742C59.6015 196.742 46.312 202.502 41.2347 197.836C35.2688 192.315 47.2253 192.545 55.4213 182.909C59.5851 177.972 63.6501 171.183 63.8805 158.116C64.1109 145.048 148.811 132.54 159.887 132.187C170.963 131.833 194.579 130.212 191.247 135.536C187.914 140.86 201.08 144.826 215.176 139.938C224.944 136.556 231.807 148.784 218.986 155.984C206.166 163.185 198.965 159.457 188.186 156.519C177.406 153.582 167.984 150.389 160.38 158.107Z" fill="#1D1E40"/>
<path d="M99.8572 224.597C99.8572 224.597 97.5284 216.754 101.931 215.545C109.781 213.331 113.064 221.865 113.064 221.865C113.064 221.865 108.201 217.865 106.152 221.322" stroke="#541D1C" stroke-width="2.69" stroke-linecap="round" stroke-linejoin="round"/>
<path opacity="0.45" d="M64.4234 156.676C65.057 160.659 94.4423 156.676 129.168 151.154C163.894 145.633 191.551 137.988 190.884 133.964C190.218 129.94 161.475 130.541 126.848 136.696C87.4395 143.715 63.7898 152.693 64.4234 156.676Z" fill="#1D1E40"/>
<path d="M60.8523 288.156L56.5404 309.971L128.798 367.91L130.156 340.418C130.156 340.418 79.252 312.464 60.8523 288.156Z" fill="white"/>
</svg>
