<svg width="226" height="376" viewBox="0 0 226 376" fill="none" xmlns="http://www.w3.org/2000/svg">
<path d="M125.977 324.18C125.977 324.18 150.741 340.072 185.859 335.271C220.978 330.471 227.79 308.824 225.642 296.803C222.436 279.06 208.011 273.882 212.098 253.566C216.185 233.25 209.509 217.719 209.509 217.719C209.509 217.719 221.707 182.6 219.864 170.034C218.02 157.468 209.918 138.378 196.238 133.073C182.558 127.767 114.228 132.111 114.228 132.111C114.228 132.111 57.9926 220.676 64.2757 269.098C70.5589 317.52 125.977 324.18 125.977 324.18Z" fill="#9D4E49"/>
<path d="M155.357 372.546L132.268 320.533C132.268 320.533 90.2494 275.004 56.5256 292.347C29.2212 306.396 17.0797 332.755 17.0797 332.755C17.0797 332.755 73.0189 388.574 155.357 372.546Z" fill="#006376"/>
<path d="M187.959 277.321C187.959 277.321 207.682 295.537 204.244 311.958C201.423 325.334 186.917 330.928 178.559 334.911" stroke="#3C131C" stroke-width="2.69" stroke-linecap="round" stroke-linejoin="round"/>
<path d="M184.866 278.843C184.866 278.843 198.634 293.886 191.581 308.44C184.529 322.994 158.002 330.19 147.247 331.921" stroke="#3C131C" stroke-width="2.69" stroke-linecap="round" stroke-linejoin="round"/>
<path d="M120.543 318.618L132.276 320.518L146.902 276.584C146.902 276.584 157.321 283.756 168.124 283.067C181.556 282.218 193.994 276.824 202.881 261.581C211.769 246.338 211.593 232.321 211.914 221.51C221.747 220.244 226.195 214.85 225.538 207.084C224.881 199.318 216.53 191.969 209.357 183.771C209.101 165.41 197.857 142.987 194.13 136.174C194.13 136.174 153.674 119.85 107.576 145.719C61.4787 171.589 80.9612 273.145 80.9612 273.145L120.543 318.618Z" fill="#EFB6AB"/>
<path d="M187.185 194.277C186.61 190.188 187.967 186.617 190.216 186.301C192.464 185.985 194.753 189.044 195.328 193.133C195.902 197.223 194.545 200.794 192.297 201.11C190.048 201.426 187.76 198.367 187.185 194.277Z" fill="black"/>
<path d="M195.148 166.748C195.949 168.071 196.414 169.77 194.643 171.22C192.872 172.671 186.083 178.12 183.711 179.403C182.477 180.068 181.026 180.629 179.472 178.898C177.067 176.197 180.177 174.282 180.177 174.282L190.595 166.716C190.595 166.716 193.593 164.432 195.148 166.748Z" fill="#9D4E49"/>
<path d="M100.219 216.837C100.219 216.837 100.139 212.029 104.723 212.141C110.421 212.253 115.038 221.63 115.038 221.63C115.038 221.63 107.56 217.182 104.755 220.42" stroke="#532210" stroke-width="2.69" stroke-linecap="round" stroke-linejoin="round"/>
<path d="M122.868 251.819C122.868 251.819 134.825 268.761 146.91 277.321C144.69 283.099 141.3 293.493 141.3 293.493C141.3 293.493 126.37 275.277 122.868 251.819Z" fill="#EFB6AB"/>
<path d="M122.868 251.819C122.868 251.819 133.983 268.745 146.91 276.599" stroke="#532210" stroke-width="2.69" stroke-linecap="round" stroke-linejoin="round"/>
<path d="M173.189 142.866C173.189 142.866 174.407 150.456 172.083 161.138C169.759 171.821 163.869 185.574 149.643 197.884C132.653 212.606 117.37 213.199 117.37 213.199C117.37 213.199 105.493 197.034 95.7317 208.639C86.868 219.161 95.315 238.492 111.271 241.914C101.398 245.921 104.059 261.324 119.286 280.094C134.513 298.863 127.612 323.979 110.799 335.392C93.9847 346.804 70.5832 344.279 56.3018 338.982C35.7774 331.376 18.4186 313.288 13.4739 307.943C7.22276 301.179 -6.82617 276.503 3.93692 254.16C14.7 231.816 56.2137 212.381 67.5618 167.534C71.641 151.409 78.8779 141.648 80.7772 139.837C82.1957 138.482 92.1173 134.988 107.224 132.432C122.451 129.843 167.331 125.828 186.3 130.276C186.3 130.276 199.388 132.68 193.289 136.887C188.015 140.502 173.189 142.866 173.189 142.866Z" fill="#9D4E49"/>
<path d="M205.991 236.56C205.991 236.56 194.05 227.848 189.105 251.787L205.991 236.56Z" fill="#CB4646"/>
<path d="M109.829 205.345C109.829 205.345 121.85 184.18 146.43 175.821C163.139 170.147 172.484 152.58 172.484 152.58" stroke="#3C131C" stroke-width="2.69" stroke-linecap="round" stroke-linejoin="round"/>
<path d="M144.891 146.705C144.891 146.705 126.667 151.754 116.272 171.509C105.878 191.264 104.724 203.638 104.724 203.638" stroke="#3C131C" stroke-width="2.69" stroke-linecap="round" stroke-linejoin="round"/>
<path d="M115.046 148.051C115.046 148.051 102.335 161.066 102.856 182.769C103.313 202.652 103.345 203.606 103.345 203.606" stroke="#3C131C" stroke-width="2.69" stroke-linecap="round" stroke-linejoin="round"/>
<path d="M93.6479 229.419C93.6479 229.419 87.5892 262.149 56.6063 267.455C26.2163 272.656 22.65 289.053 23.748 301.676C25.3027 319.419 38.7906 329.838 38.7906 329.838" stroke="#3C131C" stroke-width="2.69" stroke-linecap="round" stroke-linejoin="round"/>
<path d="M86.0187 301.475C86.0187 301.475 79.7196 283.043 95.3232 276.583C116.962 267.599 132.75 295.954 126.05 314.378" stroke="#3C131C" stroke-width="2.69" stroke-linecap="round" stroke-linejoin="round"/>
<path opacity="0.66" d="M79.7352 142.305C80.0638 147.282 104.435 149.518 137.277 147.322C170.12 145.126 195.372 139.46 195.044 134.499C194.715 129.539 168.901 127.094 136.059 129.306C103.217 131.518 79.3825 137.288 79.7352 142.305Z" fill="#9D4E49"/>
<path d="M155.909 85.2501C155.909 85.2501 178.019 99.1298 159.516 109.641C141.013 120.151 130.181 108.055 129.29 102.965C128.398 97.8756 121.795 97.0256 136.017 85.2501C150.239 73.4747 192.977 60.87 191.577 73.0497C190.178 85.2294 148.985 81.052 120.811 71.7851C92.6367 62.5182 118.385 38.1381 147.575 45.3008C176.765 52.4635 183.855 73.0497 199.403 60.0097C214.952 46.9696 178.299 41.2685 155.867 58.3408C133.436 75.4131 109.771 97.492 122.22 101.68C134.67 105.867 152.737 80.627 134.234 63.8139C115.731 47.0007 71.5736 61.7408 83.3491 73.9101C95.1245 86.0794 125.392 83.1563 123.723 62.5597C122.055 41.963 114.519 24.7145 98.089 31.8772C81.6594 39.0399 102.235 62.9743 124.128 50.38C146.02 37.7856 146.414 -2.60947 175.427 7.88061C204.441 18.3707 216.216 46.5654 180.901 40.688C145.585 34.8107 155.785 9.99522 135.965 17.1372C116.146 24.2791 100.722 41.9526 127.372 39.4234C154.022 36.8942 207.033 21.3457 210.567 42.3569C214.102 63.3682 195.589 54.972 169.529 43.6215C143.47 32.2711 126.812 13.8513 117.297 17.9975C107.781 22.1438 117.846 42.813 129.85 31.8772C141.853 20.9414 135.24 -6.38258 117.297 4.52213C99.3537 15.4268 69.6767 28.9022 73.5846 41.9423C77.4925 54.9823 94.7306 45.3111 86.749 30.6022C78.7674 15.8933 59.0001 35.2253 59.0001 48.68C59.0001 62.1347 89.7862 79.7771 101.499 71.3912C113.213 63.0054 84.2405 60.4969 75.8339 73.9723C67.4274 87.4477 101.52 103.193 113.679 94.1439C125.838 85.0947 103.179 91.2519 94.969 101.742" stroke="#1D1E40" stroke-width="3.47928" stroke-linecap="round" stroke-linejoin="round"/>
</svg>
