<svg width="411" height="593" viewBox="0 0 411 593" fill="none" xmlns="http://www.w3.org/2000/svg">
<path d="M258.565 592.208C258.565 592.208 213.049 495.113 150.417 453.005C87.784 410.896 49.2036 501.981 49.2036 501.981C49.2036 501.981 130.737 594.757 258.565 592.208Z" fill="#E2C581"/>
<path d="M332.225 174.539C332.225 174.539 353.809 215.843 359.899 265.409C390.283 292.507 388.07 305.211 388.07 305.211C388.07 305.211 381.054 315.298 356.291 324.662C355.647 345.562 345.049 396.081 320.528 412.621C306.134 422.347 280.203 426.68 258.163 417.987C246.868 413.52 212.741 488.896 210.863 518.797C208.985 548.698 202.922 572.094 157.567 518.797C112.213 465.501 78.1128 428.584 100.086 391.681C122.059 354.777 183.833 337.352 183.833 337.352C183.833 337.352 121.053 331.221 147.802 282.915C164.905 251.955 192.646 292.614 192.646 292.614C192.646 292.614 169.748 204.279 197.315 204.749C224.882 205.218 315.403 173.117 332.225 174.539Z" fill="#EFB6AB"/>
<path d="M334.923 235.418C334.923 235.418 321.147 231.139 306.136 245.532" stroke="#A26D4B" stroke-width="5.57019" stroke-linecap="round" stroke-linejoin="round"/>
<path d="M315.956 272.626C315.956 272.626 321.134 278.81 331.436 277.053C338.358 275.872 340.21 267.663 340.21 267.663" stroke="black" stroke-width="5.57019" stroke-linecap="round" stroke-linejoin="round"/>
<path d="M314.719 349.441C314.719 349.441 335.686 376.713 352.106 352.513L314.719 349.441Z" fill="#CB4646"/>
<path d="M157.811 296.239C157.811 296.239 164.169 281.805 176.269 287.936C188.369 294.066 187.564 310.271 187.564 310.271C187.564 310.271 175.048 294.442 169.186 310.271" stroke="#532210" stroke-width="2.7851" stroke-linecap="round" stroke-linejoin="round"/>
<path d="M316.168 185.59C316.168 185.59 307.073 227.175 230.677 259.598C194.458 274.958 195.866 298.165 195.866 298.165C195.866 298.165 170.955 253.172 151.169 283.14C122.998 325.866 183.86 337.295 183.86 337.295C183.86 337.295 148.419 404.838 156.709 463.392C159.781 485.271 168.782 507.003 187.563 525.461C255.762 592.186 281.102 591.032 281.102 591.032C281.102 591.032 161.042 612.321 53.4168 506.466C7.68656 455.491 0 428.984 0 428.984C0 428.984 68.2668 370.08 82.446 310.292C96.6252 250.503 108.296 199.085 121.63 178.936C134.964 158.787 291.593 157.473 329.207 173.141C343.896 180.385 316.168 185.59 316.168 185.59Z" fill="#C05452"/>
<path d="M316.168 185.59C316.168 185.59 307.073 227.175 230.677 259.598C194.458 274.958 195.866 298.165 195.866 298.165C195.866 298.165 170.955 253.172 151.169 283.14C122.998 325.866 183.86 337.295 183.86 337.295C183.86 337.295 148.419 404.838 156.709 463.392C159.781 485.271 168.782 507.003 187.563 525.461C255.762 592.186 281.102 591.032 281.102 591.032C281.102 591.032 161.042 612.321 53.4168 506.466C7.68656 455.491 0 428.984 0 428.984C0 428.984 68.2668 370.08 82.446 310.292C96.6252 250.503 108.296 199.085 121.63 178.936C134.964 158.787 291.593 157.473 329.207 173.141C343.896 180.385 316.168 185.59 316.168 185.59Z" fill="black" fill-opacity="0.2"/>
<path d="M229.805 192.276C287.022 192.276 333.406 185.586 333.406 177.333C333.406 169.079 287.022 162.389 229.805 162.389C172.588 162.389 126.205 169.079 126.205 177.333C126.205 185.586 172.588 192.276 229.805 192.276Z" fill="#E69766"/>
<g opacity="0.59">
<path d="M229.805 192.276C287.022 192.276 333.406 185.586 333.406 177.333C333.406 169.079 287.022 162.389 229.805 162.389C172.588 162.389 126.205 169.079 126.205 177.333C126.205 185.586 172.588 192.276 229.805 192.276Z" fill="#C05452"/>
<path d="M229.805 192.276C287.022 192.276 333.406 185.586 333.406 177.333C333.406 169.079 287.022 162.389 229.805 162.389C172.588 162.389 126.205 169.079 126.205 177.333C126.205 185.586 172.588 192.276 229.805 192.276Z" fill="black" fill-opacity="0.2"/>
</g>
<g opacity="0.59">
<path d="M229.805 192.276C287.022 192.276 333.406 185.586 333.406 177.333C333.406 169.079 287.022 162.389 229.805 162.389C172.588 162.389 126.205 169.079 126.205 177.333C126.205 185.586 172.588 192.276 229.805 192.276Z" fill="#C05452"/>
<path d="M229.805 192.276C287.022 192.276 333.406 185.586 333.406 177.333C333.406 169.079 287.022 162.389 229.805 162.389C172.588 162.389 126.205 169.079 126.205 177.333C126.205 185.586 172.588 192.276 229.805 192.276Z" fill="black" fill-opacity="0.2"/>
</g>
<path d="M236.983 192.284C236.983 192.284 229.229 230.663 181.326 277.386" stroke="#A26D4B" stroke-width="2.7851" stroke-linecap="round" stroke-linejoin="round"/>
<path d="M166.783 189.201C166.783 189.201 141.926 193.682 126.231 258.742C97.5101 377.743 21.3555 463.65 21.3555 463.65" stroke="#A26D4B" stroke-width="2.7851" stroke-linecap="round" stroke-linejoin="round"/>
<path d="M178.899 338.841C77.6859 512.103 218.995 588.486 218.995 588.486" stroke="#A26D4B" stroke-width="2.7851" stroke-linecap="round" stroke-linejoin="round"/>
<path d="M122.772 556.117C122.772 556.117 109.022 475.254 153.143 394.444" stroke="#A26D4B" stroke-width="2.7851" stroke-linecap="round" stroke-linejoin="round"/>
<path d="M98.1138 541.134C98.1138 541.134 103.265 491.018 132.482 444.201" stroke="#A26D4B" stroke-width="2.7851" stroke-linecap="round" stroke-linejoin="round"/>
<path d="M255.828 416.875C224.974 398.899 213.585 377.664 213.585 377.664" stroke="#532210" stroke-width="2.7851" stroke-linecap="round" stroke-linejoin="round"/>
<path d="M212.208 373.677C212.208 373.677 197.452 428.019 232.84 451.481C244.47 426.758 256.047 417.69 256.047 417.69C256.047 417.69 230.787 409.507 212.208 373.677Z" fill="#EFB6AB"/>
<path d="M313.63 143.314C313.63 143.314 318.339 132.354 334.49 101.648C350.641 70.9422 338.514 35.1924 338.514 35.1924C338.514 35.1924 344.873 60.9618 326.347 89.2531C307.822 117.544 303.422 135.802 308.908 142.16C312.49 146.399 313.63 143.314 313.63 143.314Z" fill="#38646D"/>
<path d="M260.024 16.1338C260.024 16.1338 248.944 51.991 261.902 82.6567C274.861 113.322 256.537 140.742 245.537 146.014C260.601 128.655 248.22 92.4494 245.537 81.0738C242.854 69.6982 242.062 59.1678 260.024 16.1338Z" fill="#6BB487"/>
<path d="M208.82 26.6641C208.82 26.6641 210.658 72.6358 223.147 84.8162C235.636 96.9967 239.808 93.6028 242.879 115.455C247.306 66.9078 227.184 54.5396 208.82 26.6641Z" fill="#C5D786"/>
<path d="M185.451 10.0527C185.451 10.0527 144.576 63.2952 164.081 101.688C172.833 118.957 187.12 132.796 204.66 140.992C204.66 140.992 206.511 122.735 194.76 101.943C184.364 83.511 173.243 54.7769 185.451 10.0527Z" fill="#38646D"/>
<path d="M181.845 19.3311C181.845 19.3311 161.026 53.4443 183.911 93.8624C200.666 123.375 204.757 142.504 204.757 142.504" stroke="#1D1E40" stroke-width="1.85328" stroke-linecap="round" stroke-linejoin="round"/>
<path d="M64 110.491C64 110.491 99.7901 85.0038 130.094 100.632C160.397 116.26 168.151 137.28 168.151 137.28L174.576 139.118C174.576 139.118 163.845 93.3073 127.183 84.8159C90.5206 76.3245 64 110.491 64 110.491Z" fill="#6BB487"/>
<path d="M135.672 54.4531C136.705 52.6556 196.937 90.4445 178.277 139.931C163.816 118.454 161.576 83.1469 135.672 54.4531Z" fill="#C5D786"/>
<path d="M364.028 62.3711C364.028 62.3711 342.9 75.1284 343.598 105.298C344.43 140.981 318.875 142.443 318.875 142.443" stroke="#1D1E40" stroke-width="1.85328" stroke-linecap="round" stroke-linejoin="round"/>
<path d="M318.298 4.82324C318.298 4.82324 268.664 37.0852 279.758 145.207" stroke="#38646D" stroke-width="1.85328" stroke-linecap="round" stroke-linejoin="round"/>
<path d="M312.356 2C312.356 2 304.696 9.6329 305.488 15.4146" stroke="#38646D" stroke-width="2.7851" stroke-linecap="round" stroke-linejoin="round"/>
<path d="M300.764 7.7627C300.764 7.7627 295.787 15.959 300.764 23.109" stroke="#38646D" stroke-width="2.7851" stroke-linecap="round" stroke-linejoin="round"/>
<path d="M293.09 16.751C291.439 19.4034 290.619 22.4892 290.737 25.6114C290.854 28.7335 291.902 31.7492 293.748 34.2704" stroke="#38646D" stroke-width="2.7851" stroke-linecap="round" stroke-linejoin="round"/>
<path d="M285.032 25.5273C285.032 25.5273 282.349 37.131 289.942 43.9188" stroke="#38646D" stroke-width="2.7851" stroke-linecap="round" stroke-linejoin="round"/>
<path d="M278.294 34.2803C278.294 34.2803 277.824 47.1986 285.001 56.468" stroke="#38646D" stroke-width="2.7851" stroke-linecap="round" stroke-linejoin="round"/>
<path d="M275.021 49.0566C275.021 49.0566 275.692 64.2822 281.635 70.3054" stroke="#38646D" stroke-width="2.7851" stroke-linecap="round" stroke-linejoin="round"/>
<path d="M270.06 61.249C270.06 61.249 270.569 76.166 279.825 85.3953" stroke="#38646D" stroke-width="2.7851" stroke-linecap="round" stroke-linejoin="round"/>
<path d="M267.363 77.8525C267.363 77.8525 270.488 88.8122 278.363 95.9622" stroke="#38646D" stroke-width="2.7851" stroke-linecap="round" stroke-linejoin="round"/>
<path d="M265.752 93.3643C265.752 93.3643 269.843 104.552 277.664 109.757" stroke="#38646D" stroke-width="2.7851" stroke-linecap="round" stroke-linejoin="round"/>
<path d="M265.752 105.902C265.752 105.902 267.268 121.691 277.45 128.586" stroke="#38646D" stroke-width="2.7851" stroke-linecap="round" stroke-linejoin="round"/>
<path d="M317.697 10.6641C317.697 10.6641 313.055 16.6336 306.965 15.8153" stroke="#38646D" stroke-width="2.7851" stroke-linecap="round" stroke-linejoin="round"/>
<path d="M316.059 16.751C316.059 16.751 310.694 23.7937 302.43 23.2705" stroke="#38646D" stroke-width="2.7851" stroke-linecap="round" stroke-linejoin="round"/>
<path d="M314.034 25.5273C314.034 25.5273 310.009 33.1602 295.669 33.831" stroke="#38646D" stroke-width="2.7851" stroke-linecap="round" stroke-linejoin="round"/>
<path d="M306.976 38.1055C304.887 40.2518 302.334 41.8912 299.514 42.8981C296.693 43.9049 293.679 44.2525 290.704 43.914" stroke="#38646D" stroke-width="2.7851" stroke-linecap="round" stroke-linejoin="round"/>
<path d="M305.462 46.3965C305.462 46.3965 297.064 55.3574 289.244 51.3599" stroke="#38646D" stroke-width="2.7851" stroke-linecap="round" stroke-linejoin="round"/>
<path d="M304.574 54.0283C304.574 54.0283 295.331 64.2771 286.062 60.2393" stroke="#38646D" stroke-width="2.7851" stroke-linecap="round" stroke-linejoin="round"/>
<path d="M303.876 61.249C303.876 61.249 291.146 77.0514 282.507 72.6514" stroke="#38646D" stroke-width="2.7851" stroke-linecap="round" stroke-linejoin="round"/>
<path d="M303.878 70.2979C303.878 70.2979 291 86.8782 281.664 85.3221" stroke="#38646D" stroke-width="2.7851" stroke-linecap="round" stroke-linejoin="round"/>
<path d="M298.214 86.2236C298.214 86.2236 288.301 100.55 279.608 100.55" stroke="#38646D" stroke-width="2.7851" stroke-linecap="round" stroke-linejoin="round"/>
<path d="M298.215 95.8018C298.215 95.8018 286.424 108.291 280.119 107.311" stroke="#38646D" stroke-width="2.7851" stroke-linecap="round" stroke-linejoin="round"/>
<path d="M292.246 109.752C292.246 109.752 284.305 117.935 278.724 117.626" stroke="#38646D" stroke-width="2.7851" stroke-linecap="round" stroke-linejoin="round"/>
<path d="M225.991 145.22C225.991 145.22 238.601 131.228 234.63 102.293" stroke="#6BB487" stroke-width="1.85328" stroke-linecap="round" stroke-linejoin="round"/>
<path d="M190.871 56.4688C191.729 57.2736 226.124 133.066 217.324 145.005" stroke="#38646D" stroke-width="1.85328" stroke-linecap="round" stroke-linejoin="round"/>
<path d="M183.456 52.9414C183.456 52.9414 187.091 62.9889 193.463 64.7596" stroke="#38646D" stroke-width="2.7851" stroke-linecap="round" stroke-linejoin="round"/>
<path d="M182.043 62.9893C182.043 62.9893 192.158 74.727 197.953 73.4795" stroke="#38646D" stroke-width="2.7851" stroke-linecap="round" stroke-linejoin="round"/>
<path d="M189.81 85.4199C189.81 85.4199 200.421 95.2931 206.511 94.448" stroke="#38646D" stroke-width="2.7851" stroke-linecap="round" stroke-linejoin="round"/>
<path d="M197.632 105.902C201.718 110.144 207.125 112.868 212.965 113.629" stroke="#38646D" stroke-width="2.7851" stroke-linecap="round" stroke-linejoin="round"/>
<path d="M200.448 118.997C200.448 118.997 209.758 124.604 215.204 122.726" stroke="#38646D" stroke-width="2.7851" stroke-linecap="round" stroke-linejoin="round"/>
<path d="M194.762 50.3672C194.762 50.3672 197.364 57.7855 194.762 62.9904" stroke="#38646D" stroke-width="2.7851" stroke-linecap="round" stroke-linejoin="round"/>
<path d="M201.788 59.6758C201.555 63.8306 200.526 67.9019 198.756 71.6683" stroke="#38646D" stroke-width="2.7851" stroke-linecap="round" stroke-linejoin="round"/>
<path d="M204.692 70.2979C204.692 70.2979 208.327 79.4868 203.672 84.0611C199.017 88.6355 185.67 75.7442 185.67 75.7442" stroke="#38646D" stroke-width="2.7851" stroke-linecap="round" stroke-linejoin="round"/>
<path d="M211.036 83.1025C211.036 83.1025 211.814 90.4134 206.515 94.4646" stroke="#38646D" stroke-width="2.7851" stroke-linecap="round" stroke-linejoin="round"/>
<path d="M216.815 89.123C216.815 89.123 217.996 102.296 209.84 103.571C204.568 104.389 194.762 95.9645 194.762 95.9645" stroke="#38646D" stroke-width="2.7851" stroke-linecap="round" stroke-linejoin="round"/>
<path d="M220.787 99.7949C221.035 105.59 219.014 111.254 215.153 115.584" stroke="#38646D" stroke-width="2.7851" stroke-linecap="round" stroke-linejoin="round"/>
<path d="M225.991 113.685C225.991 113.685 225.427 124.671 218.733 127.797" stroke="#38646D" stroke-width="2.7851" stroke-linecap="round" stroke-linejoin="round"/>
<path d="M227.214 128.625C227.214 128.625 227.214 138.243 219.165 141.624" stroke="#38646D" stroke-width="2.7851" stroke-linecap="round" stroke-linejoin="round"/>
<path d="M343.974 134.415C357.053 86.9274 410.363 70.736 410.363 70.736C410.363 70.736 381.481 61.6275 354.974 88.1749C331.901 111.261 342.673 140.599 342.673 140.599L343.974 134.415Z" fill="#6BB487"/>
</svg>
