<svg width="711" height="64" viewBox="0 0 711 64" fill="none" xmlns="http://www.w3.org/2000/svg">
<g filter="url(#filter0_d_90_8)">
<path d="M5.5 47C89.5 13.6667 154 -5.33333 110 28C66 61.3333 86 61.3333 170 28C254 -5.33333 274 -5.33333 230 28C186 61.3333 206 61.3333 290 28C374 -5.33333 409.5 -5.33333 365.5 28C321.5 61.3333 326 61.3333 410 28C494 -5.33333 514 -5.33333 470 28C426 61.3333 446 61.3333 530 28C614 -5.33333 634 -5.33333 590 28C546 61.3333 621.5 61.3333 705.5 28" stroke="#38646D" stroke-width="4.58"/>
</g>
<defs>
<filter id="filter0_d_90_8" x="0.655273" y="0.709961" width="709.689" height="62.5801" filterUnits="userSpaceOnUse" color-interpolation-filters="sRGB">
<feFlood flood-opacity="0" result="BackgroundImageFix"/>
<feColorMatrix in="SourceAlpha" type="matrix" values="0 0 0 0 0 0 0 0 0 0 0 0 0 0 0 0 0 0 127 0" result="hardAlpha"/>
<feOffset dy="4"/>
<feGaussianBlur stdDeviation="2"/>
<feComposite in2="hardAlpha" operator="out"/>
<feColorMatrix type="matrix" values="0 0 0 0 0 0 0 0 0 0 0 0 0 0 0 0 0 0 0.25 0"/>
<feBlend mode="normal" in2="BackgroundImageFix" result="effect1_dropShadow_90_8"/>
<feBlend mode="normal" in="SourceGraphic" in2="effect1_dropShadow_90_8" result="shape"/>
</filter>
</defs>
</svg>
