<svg width="1440" height="691" viewBox="0 0 1440 691" fill="none" xmlns="http://www.w3.org/2000/svg">
<path fill-rule="evenodd" clip-rule="evenodd" d="M1000.55 913.435L1021.3 776.08C1042.67 640.791 1084.15 366.082 1194.48 316.532C1304.82 266.982 1483.37 440.525 1602.55 419.894C1721.72 399.263 1782.15 186.525 1901.33 165.894C2020.51 145.263 2199.06 318.806 2288.02 404.545L2377.61 492.349L2404.77 581.174L2347.4 598.719C2290.02 616.264 2175.26 651.355 2060.51 686.445C1945.75 721.536 1831 756.626 1716.24 791.716C1601.49 826.807 1486.73 861.897 1371.98 896.988C1257.22 932.078 1142.47 967.169 1085.09 984.714L1027.72 1002.26L1000.55 913.435Z" fill="#E2C581" fill-opacity="0.6"/>
<path fill-rule="evenodd" clip-rule="evenodd" d="M-250.531 485.417L-141.939 398.79C-34.2878 314.107 182.896 140.853 297.496 179.526C412.095 218.2 425.051 466.856 526.474 532.75C627.897 598.643 816.847 483.718 918.27 549.611C1019.69 615.505 1032.65 864.162 1039.6 987.518L1045.6 1112.82L1005.14 1196.42L951.13 1170.28C897.124 1144.14 789.113 1091.86 681.102 1039.57C573.09 987.289 465.079 935.006 357.068 882.722C249.056 830.439 141.045 778.155 33.0338 725.872C-74.9775 673.588 -182.989 621.305 -236.994 595.163L-291 569.021L-250.531 485.417Z" fill="#006376" fill-opacity="0.45"/>
<path fill-rule="evenodd" clip-rule="evenodd" d="M-325.412 522.127L-225.271 425.856C-125.887 331.607 74.3962 139.065 192.073 167.006C309.75 194.948 345.579 441.351 452.647 497.611C559.714 553.872 737.261 422.013 844.329 478.273C951.396 534.534 987.225 780.937 1005.52 903.127L1023.05 1027.34L990.466 1114.32L934.28 1093.27C878.094 1072.22 765.722 1030.12 653.349 988.017C540.977 945.916 428.605 903.815 316.233 861.713C203.861 819.612 91.4886 777.511 -20.8835 735.41C-133.256 693.309 -245.628 651.208 -301.814 630.158L-358 609.107L-325.412 522.127Z" stroke="#006376" stroke-width="6"/>
<path fill-rule="evenodd" clip-rule="evenodd" d="M943.554 975.435L964.295 838.08C985.668 702.791 1027.15 428.082 1137.48 378.532C1247.82 328.982 1426.37 502.525 1545.55 481.894C1664.72 461.263 1725.15 248.525 1844.33 227.894C1963.51 207.263 2142.06 380.806 2231.02 466.545L2320.61 554.35L2347.77 643.174L2290.4 660.719C2233.02 678.264 2118.26 713.355 2003.51 748.445C1888.75 783.536 1774 818.626 1659.24 853.716C1544.49 888.807 1429.73 923.897 1314.98 958.988C1200.22 994.078 1085.47 1029.17 1028.09 1046.71L970.715 1064.26L943.554 975.435Z" stroke="#E2C581" stroke-width="6"/>
</svg>
