<svg width="300" height="408" viewBox="0 0 300 408" fill="none" xmlns="http://www.w3.org/2000/svg">
<path d="M178.698 39.3354H266.413C266.413 39.3354 266.536 27.6813 257.65 25.2305C254.974 24.5275 252.178 24.4069 249.451 24.8769C246.724 25.3468 244.13 26.3963 241.844 27.9545C241.844 27.9545 249.778 20.3555 242.02 15.7715C236.149 12.2452 231.062 18.3015 231.062 18.3015C231.062 18.3015 236.281 -0.105332 221.365 0.000454235C205.806 0.123872 210.108 18.1781 210.108 18.1781C210.108 18.1781 203.434 7.43196 195.315 9.91794C187.196 12.4039 192.671 26.5441 192.671 26.5441C192.671 26.5441 181.81 23.3969 177.887 26.9408C173.964 30.4846 178.698 39.3354 178.698 39.3354Z" fill="#006376" fill-opacity="0.65"/>
<path d="M136.16 74.5263H225.841C225.841 74.5263 228.688 63.9477 217.175 58.6143C202.673 51.8792 192.976 63.9653 192.976 63.9653C192.976 63.9653 193.655 47.1012 176.368 46.3342C159.997 45.6378 158.19 60.8446 158.19 60.8446C158.19 60.8446 151.376 52.7784 142.322 56.8071C133.269 60.8358 136.16 74.5263 136.16 74.5263Z" fill="#006376"/>
<path d="M222.017 92.4063H300C300 92.4063 299.674 81.3604 291.713 79.9235C283.753 78.4866 278.684 84.8954 278.684 84.8954C278.684 84.8954 285.084 70.0854 274.823 66.8941C264.561 63.7029 261.009 73.9466 261.009 73.9466C261.009 73.9466 263.301 54.8698 253.956 56.3155C244.612 57.7613 245.634 78.5394 245.634 78.5394C245.634 78.5394 225.605 72.5625 222.062 83.6613C219.725 89.7352 222.017 92.4063 222.017 92.4063Z" fill="#006376" fill-opacity="0.72"/>
<path d="M239.189 223.084C239.189 223.084 219.795 258.963 218.984 264.993C218.172 271.023 203.468 316.123 174.73 332.872C156.517 343.451 139.467 332.872 139.467 332.872L127.002 358.111C127.002 358.111 80.1653 327.257 63.8301 333.736C75.449 309.934 105.193 273.033 105.616 257.129C106.039 241.226 76.7184 212.117 96.9148 197.519C117.111 182.92 190.183 187.628 216.392 200.093C242.6 212.558 239.189 223.084 239.189 223.084Z" fill="#EFB6AB"/>
<path d="M196.667 198.016C196.667 198.016 201.48 226.075 231.788 228.87C259.213 230.897 260.826 208.753 260.826 203.931C260.826 199.109 258.613 190.355 250.723 185.612C242.833 180.869 193.511 152.342 121.691 148.851C105.637 148.076 81.8621 188.68 80.6808 214.254C79.5436 238.602 92.855 249.102 85.4059 269.748C81.0863 281.719 74.5893 284.302 80.002 290.023C86.6224 297.076 91.5151 288.551 94.8826 282.636C98.2501 276.721 108.679 250.018 108.679 250.018C108.679 250.018 88.7293 231.726 102.076 211.653C112.708 197.689 123.877 211.971 126.407 218.758C128.937 225.546 128.937 235.252 136.518 236.839C144.1 238.426 151.134 229.91 154.29 225.176C157.446 220.442 165.116 194.533 196.667 198.016Z" fill="#A26D4B"/>
<path d="M111.255 225.904C111.255 225.904 118.924 223.339 122.027 237.232C122.027 237.232 124.593 229.633 119.101 220.87C113.609 212.108 105.957 219.53 105.957 219.53" stroke="#532210" stroke-width="2.69" stroke-linecap="round" stroke-linejoin="round"/>
<path d="M215.537 252.289C215.537 252.289 227.129 285.867 225.551 293.652C223.973 301.436 217.485 303.781 211.314 301.691C206.598 300.096 196.936 295.106 196.936 295.106" fill="#EFB6AB"/>
<path d="M192.339 257.41C192.339 257.41 194.596 270.633 207.325 266.225" stroke="black" stroke-width="5.38" stroke-miterlimit="10" stroke-linecap="round"/>
<path d="M194.536 245.296C194.536 245.296 206.658 241.197 215.623 245.296" stroke="#A26D4B" stroke-width="7.18" stroke-linecap="round" stroke-linejoin="round"/>
<path d="M169.392 314.034C169.392 314.034 183.109 304.038 188.786 311.875" stroke="#532210" stroke-width="3.59" stroke-linecap="round" stroke-linejoin="round"/>
<path d="M139.486 332.844C109.337 318.845 114.291 283.794 114.291 283.794" stroke="#532210" stroke-width="2.69" stroke-linecap="round" stroke-linejoin="round"/>
<path d="M114.294 291.249C114.294 291.249 112.689 307.919 112.628 308.88C112.169 316.982 110.432 339.541 131.66 348.717C136.764 338.386 139.488 332.85 139.488 332.85C139.488 332.85 117.679 327.41 114.294 291.249Z" fill="#EFB6AB"/>
<path d="M34.7874 356.953C34.7874 356.953 44.4844 323.075 86.0232 336.616C127.562 350.156 139.287 377.017 178.436 391.836C192.321 397.125 210.172 400.881 210.172 400.881C210.172 400.881 119.293 433.278 34.7874 356.953Z" fill="#006376"/>
<path opacity="0.62" d="M257.812 194.018C256.102 199.457 224.013 194.256 186.124 182.372C148.235 170.489 118.906 156.464 120.598 151.024C122.291 145.585 166.818 153.572 192.939 161.083C229.118 171.512 259.523 188.579 257.812 194.018Z" fill="#A26D4B"/>
<path d="M42.9837 66.1049H130.698C130.698 66.1049 130.822 54.4508 121.936 52.0001C119.259 51.2971 116.464 51.1765 113.737 51.6464C111.01 52.1163 108.416 53.1658 106.129 54.7241C106.129 54.7241 114.063 47.1251 106.306 42.541C100.435 39.0148 95.3479 45.0711 95.3479 45.0711C95.3479 45.0711 100.567 26.6642 85.6509 26.77C70.0915 26.8934 74.3935 44.9476 74.3935 44.9476C74.3935 44.9476 67.7201 34.2015 59.601 36.6875C51.4819 39.1735 56.9564 53.3136 56.9564 53.3136C56.9564 53.3136 46.0956 50.1664 42.1727 53.7103C38.2498 57.2541 42.9837 66.1049 42.9837 66.1049Z" fill="#006376" fill-opacity="0.65"/>
<path d="M0.439304 101.277H90.1198C90.1198 101.277 92.9672 90.6982 81.4541 85.3648C66.9526 78.6297 57.2555 90.7158 57.2555 90.7158C57.2555 90.7158 57.9343 73.8517 40.647 73.0847C24.2766 72.3883 22.4693 87.5951 22.4693 87.5951C22.4693 87.5951 15.6549 79.5289 6.60136 83.5576C-2.4522 87.5863 0.439304 101.277 0.439304 101.277Z" fill="#006376"/>
<path d="M86.2924 119.178H164.275C164.275 119.178 163.949 108.132 155.988 106.695C148.028 105.258 142.959 111.667 142.959 111.667C142.959 111.667 149.359 96.8568 139.097 93.6656C128.836 90.4744 125.284 100.718 125.284 100.718C125.284 100.718 127.576 81.6413 118.231 83.087C108.887 84.5327 109.909 105.311 109.909 105.311C109.909 105.311 89.8803 99.334 86.3364 110.433C84.0003 116.507 86.2924 119.178 86.2924 119.178Z" fill="#006376" fill-opacity="0.72"/>
</svg>
