<svg width="289" height="162" viewBox="0 0 289 162" fill="none" xmlns="http://www.w3.org/2000/svg">
<path d="M75.372 68.9797H229.191C229.191 68.9797 229.407 48.5426 213.824 44.245C209.131 43.0122 204.228 42.8007 199.447 43.6247C194.665 44.4488 190.116 46.2893 186.106 49.0218C186.106 49.0218 200.019 35.696 186.415 27.6573C176.119 21.4736 167.199 32.0941 167.199 32.0941C167.199 32.0941 176.351 -0.184714 150.194 0.00079656C122.909 0.217225 130.453 31.8776 130.453 31.8776C130.453 31.8776 118.75 13.0329 104.513 17.3924C90.2746 21.7519 99.8748 46.5484 99.8748 46.5484C99.8748 46.5484 80.8291 41.0295 73.9497 47.2441C67.0704 53.4586 75.372 68.9797 75.372 68.9797Z" fill="#006376" fill-opacity="0.65"/>
<path d="M0.770376 130.65H158.037C158.037 130.65 163.03 112.099 142.84 102.746C117.41 90.9354 100.405 112.13 100.405 112.13C100.405 112.13 101.595 82.5566 71.2798 81.2116C42.5721 79.9903 39.4029 106.657 39.4029 106.657C39.4029 106.657 27.4529 92.5123 11.5763 99.5771C-4.30025 106.642 0.770376 130.65 0.770376 130.65Z" fill="#006376"/>
<path d="M151.33 161.989H288.082C288.082 161.989 287.51 142.619 273.55 140.099C259.591 137.579 250.702 148.818 250.702 148.818C250.702 148.818 261.925 122.847 243.93 117.251C225.936 111.654 219.706 129.618 219.706 129.618C219.706 129.618 223.725 96.1644 207.339 98.6997C190.952 101.235 192.745 137.672 192.745 137.672C192.745 137.672 157.622 127.191 151.407 146.654C147.31 157.305 151.33 161.989 151.33 161.989Z" fill="#006376" fill-opacity="0.72"/>
</svg>
