<svg width="260" height="360" viewBox="0 0 260 360" fill="none" xmlns="http://www.w3.org/2000/svg">
<path d="M147.566 359.596C147.566 359.596 121.59 304.183 85.8448 280.151C50.0997 256.12 28.0815 308.103 28.0815 308.103C28.0815 308.103 74.6137 361.051 147.566 359.596Z" fill="#E2C581"/>
<path d="M189.604 121.232C189.604 121.232 201.923 144.804 205.398 173.092C222.739 188.557 221.476 195.807 221.476 195.807C221.476 195.807 217.472 201.564 203.339 206.908C202.971 218.836 196.923 247.668 182.928 257.107C174.714 262.658 159.915 265.131 147.337 260.17C140.89 257.62 121.414 300.638 120.342 317.703C119.27 334.768 115.81 348.12 89.9255 317.703C64.0411 287.287 44.58 266.218 57.1202 245.157C69.6605 224.095 104.916 214.151 104.916 214.151C104.916 214.151 69.0863 210.652 84.352 183.083C94.1132 165.414 109.945 188.618 109.945 188.618C109.945 188.618 96.877 138.205 112.61 138.473C128.342 138.741 180.004 120.42 189.604 121.232Z" fill="#EFB6AB"/>
<path d="M191.143 155.974C191.143 155.974 183.281 153.532 174.714 161.747" stroke="#A26D4B" stroke-width="5.38" stroke-linecap="round" stroke-linejoin="round"/>
<path d="M180.318 177.211C180.318 177.211 183.273 180.74 189.153 179.737C193.103 179.064 194.16 174.378 194.16 174.378" stroke="black" stroke-width="5.38" stroke-linecap="round" stroke-linejoin="round"/>
<path d="M179.613 221.048C179.613 221.048 191.579 236.613 200.95 222.802L179.613 221.048Z" fill="#CB4646"/>
<path d="M90.0635 190.686C90.0635 190.686 93.6923 182.448 100.598 185.947C107.503 189.445 107.044 198.694 107.044 198.694C107.044 198.694 99.9012 189.66 96.5556 198.694" stroke="#532210" stroke-width="2.69" stroke-linecap="round" stroke-linejoin="round"/>
<path d="M180.44 127.54C180.44 127.54 175.25 151.273 131.65 169.777C110.979 178.543 111.783 191.788 111.783 191.788C111.783 191.788 97.5659 166.11 86.2735 183.213C70.1963 207.597 104.931 214.12 104.931 214.12C104.931 214.12 84.7041 252.667 89.4354 286.085C91.1886 298.571 96.3256 310.974 107.044 321.508C145.966 359.588 160.428 358.93 160.428 358.93C160.428 358.93 91.9082 371.08 30.4855 310.668C4.3868 281.575 0 266.447 0 266.447C0 266.447 38.9605 232.831 47.0527 198.709C55.1449 164.587 61.8055 135.242 69.4154 123.743C77.0253 112.244 166.415 111.494 187.882 120.436C196.265 124.57 180.44 127.54 180.44 127.54Z" fill="#C05452"/>
<path d="M180.44 127.54C180.44 127.54 175.25 151.273 131.65 169.777C110.979 178.543 111.783 191.788 111.783 191.788C111.783 191.788 97.5659 166.11 86.2735 183.213C70.1963 207.597 104.931 214.12 104.931 214.12C104.931 214.12 84.7041 252.667 89.4354 286.085C91.1886 298.571 96.3256 310.974 107.044 321.508C145.966 359.588 160.428 358.93 160.428 358.93C160.428 358.93 91.9082 371.08 30.4855 310.668C4.3868 281.575 0 266.447 0 266.447C0 266.447 38.9605 232.831 47.0527 198.709C55.1449 164.587 61.8055 135.242 69.4154 123.743C77.0253 112.244 166.415 111.494 187.882 120.436C196.265 124.57 180.44 127.54 180.44 127.54Z" fill="black" fill-opacity="0.2"/>
<path d="M131.152 131.353C163.806 131.353 190.278 127.535 190.278 122.825C190.278 118.114 163.806 114.296 131.152 114.296C98.4975 114.296 72.0259 118.114 72.0259 122.825C72.0259 127.535 98.4975 131.353 131.152 131.353Z" fill="#E69766"/>
<g opacity="0.59">
<path d="M131.152 131.353C163.806 131.353 190.278 127.535 190.278 122.825C190.278 118.114 163.806 114.296 131.152 114.296C98.4975 114.296 72.0259 118.114 72.0259 122.825C72.0259 127.535 98.4975 131.353 131.152 131.353Z" fill="#C05452"/>
<path d="M131.152 131.353C163.806 131.353 190.278 127.535 190.278 122.825C190.278 118.114 163.806 114.296 131.152 114.296C98.4975 114.296 72.0259 118.114 72.0259 122.825C72.0259 127.535 98.4975 131.353 131.152 131.353Z" fill="black" fill-opacity="0.2"/>
</g>
<g opacity="0.59">
<path d="M131.152 131.353C163.806 131.353 190.278 127.535 190.278 122.825C190.278 118.114 163.806 114.296 131.152 114.296C98.4975 114.296 72.0259 118.114 72.0259 122.825C72.0259 127.535 98.4975 131.353 131.152 131.353Z" fill="#C05452"/>
<path d="M131.152 131.353C163.806 131.353 190.278 127.535 190.278 122.825C190.278 118.114 163.806 114.296 131.152 114.296C98.4975 114.296 72.0259 118.114 72.0259 122.825C72.0259 127.535 98.4975 131.353 131.152 131.353Z" fill="black" fill-opacity="0.2"/>
</g>
<path d="M135.248 131.36C135.248 131.36 130.823 153.264 103.484 179.929" stroke="#A26D4B" stroke-width="2.69" stroke-linecap="round" stroke-linejoin="round"/>
<path d="M95.1848 129.6C95.1848 129.6 80.9986 132.157 72.0413 169.287C55.6502 237.202 12.188 286.23 12.188 286.23" stroke="#A26D4B" stroke-width="2.69" stroke-linecap="round" stroke-linejoin="round"/>
<path d="M102.098 215C44.3348 313.883 124.981 357.475 124.981 357.475" stroke="#A26D4B" stroke-width="2.69" stroke-linecap="round" stroke-linejoin="round"/>
<path d="M70.0661 339.001C70.0661 339.001 62.2189 292.852 87.3989 246.733" stroke="#A26D4B" stroke-width="2.69" stroke-linecap="round" stroke-linejoin="round"/>
<path d="M55.9946 330.45C55.9946 330.45 58.9345 301.848 75.6089 275.129" stroke="#A26D4B" stroke-width="2.69" stroke-linecap="round" stroke-linejoin="round"/>
<path d="M146.004 259.534C128.396 249.275 121.896 237.156 121.896 237.156" stroke="#532210" stroke-width="2.69" stroke-linecap="round" stroke-linejoin="round"/>
<path d="M121.108 234.883C121.108 234.883 112.686 265.897 132.882 279.287C139.52 265.177 146.127 260.002 146.127 260.002C146.127 260.002 131.711 255.332 121.108 234.883Z" fill="#EFB6AB"/>
<path d="M190.531 103.071C190.531 103.071 193.899 95.2326 205.45 73.272C217.001 51.3115 208.328 25.7437 208.328 25.7437C208.328 25.7437 212.876 44.1736 199.626 64.4072C186.377 84.6409 183.23 97.6982 187.154 102.246C189.716 105.277 190.531 103.071 190.531 103.071Z" fill="#38646D"/>
<path d="M152.196 12.1113C152.196 12.1113 144.272 37.756 153.54 59.6877C162.807 81.6195 149.702 101.23 141.835 105C152.609 92.5854 143.754 66.6913 141.835 58.5557C139.916 50.42 139.35 42.8887 152.196 12.1113Z" fill="#6BB487"/>
<path d="M115.574 19.6353C115.574 19.6353 116.889 52.5137 125.821 61.225C134.753 69.9363 137.736 67.5091 139.933 83.1376C143.099 48.4171 128.708 39.5715 115.574 19.6353Z" fill="#C5D786"/>
<path d="M98.8627 7.75342C98.8627 7.75342 69.6299 45.8318 83.5795 73.2897C89.8388 85.6407 100.057 95.5378 112.601 101.4C112.601 101.4 113.925 88.3426 105.521 73.472C98.0856 60.2899 90.1322 39.7396 98.8627 7.75342Z" fill="#38646D"/>
<path d="M96.2847 14.3926C96.2847 14.3926 81.3949 38.79 97.7622 67.6965C109.745 88.8032 112.671 102.484 112.671 102.484" stroke="#1D1E40" stroke-width="1.79" stroke-linecap="round" stroke-linejoin="round"/>
<path d="M12 79.5865C12 79.5865 37.5967 61.358 59.2694 72.535C80.9421 83.7119 86.4874 98.7456 86.4874 98.7456L91.0829 100.06C91.0829 100.06 83.4077 67.2966 57.1875 61.2237C30.9672 55.1507 12 79.5865 12 79.5865Z" fill="#6BB487"/>
<path d="M63.2588 39.5118C63.9975 38.2262 107.074 65.2524 93.7292 100.644C83.3869 85.2845 81.7847 60.0332 63.2588 39.5118Z" fill="#C5D786"/>
<path d="M226.575 45.1714C226.575 45.1714 211.465 54.2952 211.964 75.872C212.559 101.392 194.282 102.438 194.282 102.438" stroke="#1D1E40" stroke-width="1.79" stroke-linecap="round" stroke-linejoin="round"/>
<path d="M193.871 4.02197C193.871 4.02197 158.373 27.0954 166.308 104.423" stroke="#38646D" stroke-width="1.79" stroke-linecap="round" stroke-linejoin="round"/>
<path d="M189.622 2C189.622 2 184.144 7.45896 184.71 11.5939" stroke="#38646D" stroke-width="2.69" stroke-linecap="round" stroke-linejoin="round"/>
<path d="M181.33 6.11719C181.33 6.11719 177.771 11.9791 181.33 17.0927" stroke="#38646D" stroke-width="2.69" stroke-linecap="round" stroke-linejoin="round"/>
<path d="M175.844 12.5547C174.663 14.4516 174.077 16.6586 174.161 18.8915C174.244 21.1245 174.995 23.2812 176.314 25.0844" stroke="#38646D" stroke-width="2.69" stroke-linecap="round" stroke-linejoin="round"/>
<path d="M170.08 18.8164C170.08 18.8164 168.162 27.1152 173.592 31.9697" stroke="#38646D" stroke-width="2.69" stroke-linecap="round" stroke-linejoin="round"/>
<path d="M165.262 25.083C165.262 25.083 164.927 34.322 170.059 40.9514" stroke="#38646D" stroke-width="2.69" stroke-linecap="round" stroke-linejoin="round"/>
<path d="M162.923 35.6543C162.923 35.6543 163.403 46.5435 167.653 50.8511" stroke="#38646D" stroke-width="2.69" stroke-linecap="round" stroke-linejoin="round"/>
<path d="M159.372 44.3657C159.372 44.3657 159.737 55.0342 166.356 61.6348" stroke="#38646D" stroke-width="2.69" stroke-linecap="round" stroke-linejoin="round"/>
<path d="M157.445 56.2554C157.445 56.2554 159.68 64.0936 165.312 69.2072" stroke="#38646D" stroke-width="2.69" stroke-linecap="round" stroke-linejoin="round"/>
<path d="M156.293 67.3428C156.293 67.3428 159.219 75.3441 164.812 79.0665" stroke="#38646D" stroke-width="2.69" stroke-linecap="round" stroke-linejoin="round"/>
<path d="M156.293 76.3164C156.293 76.3164 157.377 87.6085 164.659 92.5397" stroke="#38646D" stroke-width="2.69" stroke-linecap="round" stroke-linejoin="round"/>
<path d="M193.44 8.1958C193.44 8.1958 190.121 12.4651 185.765 11.8799" stroke="#38646D" stroke-width="2.69" stroke-linecap="round" stroke-linejoin="round"/>
<path d="M192.272 12.5547C192.272 12.5547 188.434 17.5916 182.524 17.2174" stroke="#38646D" stroke-width="2.69" stroke-linecap="round" stroke-linejoin="round"/>
<path d="M190.819 18.8164C190.819 18.8164 187.941 24.2754 177.685 24.7551" stroke="#38646D" stroke-width="2.69" stroke-linecap="round" stroke-linejoin="round"/>
<path d="M185.776 27.8159C184.282 29.351 182.457 30.5234 180.439 31.2435C178.422 31.9636 176.267 32.2122 174.139 31.9701" stroke="#38646D" stroke-width="2.69" stroke-linecap="round" stroke-linejoin="round"/>
<path d="M184.691 33.7549C184.691 33.7549 178.685 40.1637 173.092 37.3047" stroke="#38646D" stroke-width="2.69" stroke-linecap="round" stroke-linejoin="round"/>
<path d="M184.059 39.2148C184.059 39.2148 177.448 46.5446 170.819 43.6568" stroke="#38646D" stroke-width="2.69" stroke-linecap="round" stroke-linejoin="round"/>
<path d="M183.558 44.3657C183.558 44.3657 174.453 55.6674 168.275 52.5206" stroke="#38646D" stroke-width="2.69" stroke-linecap="round" stroke-linejoin="round"/>
<path d="M183.558 50.8516C183.558 50.8516 174.348 62.7096 167.67 61.5967" stroke="#38646D" stroke-width="2.69" stroke-linecap="round" stroke-linejoin="round"/>
<path d="M179.51 62.2324C179.51 62.2324 172.42 72.4788 166.203 72.4788" stroke="#38646D" stroke-width="2.69" stroke-linecap="round" stroke-linejoin="round"/>
<path d="M179.509 69.0815C179.509 69.0815 171.076 78.0135 166.566 77.3131" stroke="#38646D" stroke-width="2.69" stroke-linecap="round" stroke-linejoin="round"/>
<path d="M175.238 79.0674C175.238 79.0674 169.558 84.9197 165.567 84.699" stroke="#38646D" stroke-width="2.69" stroke-linecap="round" stroke-linejoin="round"/>
<path d="M127.858 104.423C127.858 104.423 136.876 94.4168 134.036 73.7227" stroke="#6BB487" stroke-width="1.79" stroke-linecap="round" stroke-linejoin="round"/>
<path d="M102.739 40.9492C103.353 41.5249 127.952 95.7307 121.658 104.269" stroke="#38646D" stroke-width="1.79" stroke-linecap="round" stroke-linejoin="round"/>
<path d="M97.4351 38.4404C97.4351 38.4404 100.035 45.6263 104.592 46.8927" stroke="#38646D" stroke-width="2.69" stroke-linecap="round" stroke-linejoin="round"/>
<path d="M96.4277 45.6128C96.4277 45.6128 103.662 54.0075 107.806 53.1153" stroke="#38646D" stroke-width="2.69" stroke-linecap="round" stroke-linejoin="round"/>
<path d="M101.98 61.6636C101.98 61.6636 109.569 68.7248 113.925 68.1203" stroke="#38646D" stroke-width="2.69" stroke-linecap="round" stroke-linejoin="round"/>
<path d="M107.574 76.3164C110.496 79.3497 114.364 81.2985 118.54 81.8425" stroke="#38646D" stroke-width="2.69" stroke-linecap="round" stroke-linejoin="round"/>
<path d="M109.588 85.6797C109.588 85.6797 116.246 89.6899 120.141 88.3468" stroke="#38646D" stroke-width="2.69" stroke-linecap="round" stroke-linejoin="round"/>
<path d="M105.524 36.5967C105.524 36.5967 107.385 41.9022 105.524 45.6246" stroke="#38646D" stroke-width="2.69" stroke-linecap="round" stroke-linejoin="round"/>
<path d="M110.548 43.2437C110.381 46.2152 109.645 49.1269 108.379 51.8206" stroke="#38646D" stroke-width="2.69" stroke-linecap="round" stroke-linejoin="round"/>
<path d="M112.62 50.8516C112.62 50.8516 115.22 57.4234 111.891 60.6949C108.562 63.9664 99.0156 54.7467 99.0156 54.7467" stroke="#38646D" stroke-width="2.69" stroke-linecap="round" stroke-linejoin="round"/>
<path d="M117.16 60.0044C117.16 60.0044 117.717 65.2331 113.927 68.1304" stroke="#38646D" stroke-width="2.69" stroke-linecap="round" stroke-linejoin="round"/>
<path d="M121.296 64.3125C121.296 64.3125 122.141 73.7338 116.308 74.6452C112.537 75.2304 105.524 69.2054 105.524 69.2054" stroke="#38646D" stroke-width="2.69" stroke-linecap="round" stroke-linejoin="round"/>
<path d="M124.132 71.9414C124.309 76.0863 122.863 80.137 120.102 83.2335" stroke="#38646D" stroke-width="2.69" stroke-linecap="round" stroke-linejoin="round"/>
<path d="M127.855 81.8687C127.855 81.8687 127.452 89.7261 122.665 91.9615" stroke="#38646D" stroke-width="2.69" stroke-linecap="round" stroke-linejoin="round"/>
<path d="M128.731 92.5679C128.731 92.5679 128.731 99.4467 122.975 101.864" stroke="#38646D" stroke-width="2.69" stroke-linecap="round" stroke-linejoin="round"/>
<path d="M212.234 96.693C221.588 62.7305 259.715 51.1506 259.715 51.1506C259.715 51.1506 239.059 44.6363 220.101 63.6227C203.6 80.1339 211.304 101.116 211.304 101.116L212.234 96.693Z" fill="#6BB487"/>
</svg>
