<svg width="499" height="655" viewBox="0 0 499 655" fill="none" xmlns="http://www.w3.org/2000/svg">
<g filter="url(#filter0_d_79_6)">
<path d="M219.12 126.056C203.29 134.316 200.12 142.366 193.25 164.526C186.56 186.196 180.88 204.356 180.88 204.356L254.3 227.066C254.3 227.066 267.07 168.336 256.3 143.476C248.88 126.356 234.99 117.806 219.12 126.056Z" fill="#C05452"/>
<path d="M219.12 126.056C203.29 134.316 200.12 142.366 193.25 164.526C186.56 186.196 180.88 204.356 180.88 204.356L254.3 227.066C254.3 227.066 267.07 168.336 256.3 143.476C248.88 126.356 234.99 117.806 219.12 126.056Z" fill="black" fill-opacity="0.2"/>
<path d="M383.92 438.366L438.97 643.716H427.48L371.59 438.366H383.92Z" fill="#1D1E40"/>
<path d="M432.63 437.086L487.67 642.436H476.17L420.3 437.086H432.63Z" fill="#1D1E40"/>
<path d="M243.87 438.996L188.83 644.346H200.33L256.2 438.996H243.87Z" fill="#1D1E40"/>
<path d="M195.17 437.726L140.12 643.066H151.62L207.5 437.726H195.17Z" fill="#1D1E40"/>
<path d="M205.29 438.366H440.59C444.364 438.353 447.98 436.847 450.648 434.177C453.316 431.507 454.819 427.89 454.83 424.116V404.996C454.819 401.222 453.316 397.607 450.647 394.938C447.979 392.27 444.363 390.766 440.59 390.756H205.29C201.516 390.766 197.9 392.27 195.232 394.938C192.564 397.607 191.06 401.222 191.05 404.996V424.156C191.071 427.923 192.579 431.53 195.246 434.191C197.912 436.852 201.522 438.353 205.29 438.366Z" fill="#EFB6AB"/>
<path d="M494.41 178.586C494.41 178.586 453.41 396.236 454.13 400.586C448.13 387.876 444.51 390.716 401.93 390.716H330.78C330.78 390.716 356.34 185.906 359.94 168.256C363.54 150.606 377.85 114.706 420.66 112.436C465.59 109.906 499.5 126.856 494.41 178.586Z" fill="#EEC4B4"/>
<path d="M448.84 114.616C474.98 131.736 476.93 142.506 473.96 172.546C473.96 172.546 433.42 386.356 434.1 390.716C434.1 390.716 445.1 390.096 448.85 393.246C451.006 395.018 452.811 397.178 454.17 399.616C454.17 399.616 488.4 204.206 494.72 174.556C497.36 137.656 474.99 116.916 448.84 114.616Z" fill="#EFB6AB"/>
<path d="M198.16 523.366L191.05 611.066H158.48L151.34 514.316L198.16 523.366Z" fill="#EEB6AB"/>
<path d="M143.79 305.456L222.71 280.906L242.63 243.896L231.43 219.996L201.65 210.786L199.16 256.396L132.73 292.926" fill="#EEB6AB"/>
<path d="M129.49 508.456L116.09 598.566L82.4502 593.656L87.8602 508.456H129.49Z" fill="#EEB6AB"/>
<path d="M345.82 345.996C345.82 345.996 356 392.176 255.3 390.486C154.6 388.796 163.84 390.486 163.84 390.486L158.92 535.796C158.92 535.796 147.39 538.886 60.9199 531.336C71.1099 447.926 83.0199 381.406 89.7599 336.856C90.798 329.981 94.009 323.62 98.9232 318.702C103.837 313.784 110.196 310.569 117.07 309.526L319.86 278.876L352.6 284.756L345.82 345.996Z" fill="#565797"/>
<path d="M345.82 347.206C345.82 347.206 356 393.386 255.3 391.696C154.6 390.006 163.84 391.696 163.84 391.696L158.92 536.996C158.92 536.996 147.39 540.096 60.9199 532.546C71.1099 449.126 83.0199 382.606 89.7599 338.066C90.796 331.19 94.0062 324.826 98.9205 319.906C103.835 314.987 110.195 311.769 117.07 310.726L319.86 280.076L352.6 285.956L345.82 347.206Z" fill="#006376"/>
<path d="M404.21 332.086C404.21 332.086 412.11 398.756 311.42 397.086C210.73 395.416 219.95 397.086 219.95 397.086L227.95 536.396C227.95 536.396 203.99 542.996 117.6 535.446C128.72 438.366 141.12 373.786 147.26 334.766C147.951 330.388 150.017 326.344 153.16 323.219C156.303 320.095 160.359 318.052 164.74 317.386L317.42 294.316L376.04 285.456L398.77 292.126L404.21 332.086Z" fill="#006376"/>
<path d="M114.08 536.306C125.2 439.216 137.6 374.646 143.75 335.626C144.438 331.247 146.503 327.201 149.647 324.076C152.79 320.951 156.847 318.909 161.23 318.246L313.9 295.176L372.52 286.316L395.26 292.976" stroke="#1D1E40" stroke-width="1.41" stroke-linecap="round" stroke-linejoin="round"/>
<path d="M407.9 340.606C407.9 340.606 358 278.826 245.25 298.916C233.25 301.056 211.95 290.996 229.16 259.746C235.22 248.746 235.22 228.686 229.16 212.796C209.35 160.916 190.43 145.016 220.74 120.796C259.42 89.8659 295.32 92.0859 322.93 112.216C360.15 139.356 369.99 171.216 383.56 207.406C401.92 256.396 407.9 340.606 407.9 340.606Z" fill="#C05452"/>
<path d="M407.9 340.606C407.9 340.606 358 278.826 245.25 298.916C233.25 301.056 211.95 290.996 229.16 259.746C235.22 248.746 235.22 228.686 229.16 212.796C209.35 160.916 190.43 145.016 220.74 120.796C259.42 89.8659 295.32 92.0859 322.93 112.216C360.15 139.356 369.99 171.216 383.56 207.406C401.92 256.396 407.9 340.606 407.9 340.606Z" fill="black" fill-opacity="0.2"/>
<path d="M224.76 169.436C224.76 169.436 248.92 234.066 248.44 246.846C247.96 259.626 288.85 247.846 297.71 235.746C306.57 223.646 272.13 155.686 272.13 155.686L224.76 169.436Z" fill="#C05452"/>
<path d="M224.76 169.436C224.76 169.436 248.92 234.066 248.44 246.846C247.96 259.626 288.85 247.846 297.71 235.746C306.57 223.646 272.13 155.686 272.13 155.686L224.76 169.436Z" fill="black" fill-opacity="0.2"/>
<path d="M399.42 340.606C399.42 340.606 396.86 340.726 392.32 340.986" stroke="white" stroke-width="1.41" stroke-linecap="round" stroke-linejoin="round"/>
<path d="M377.84 341.786C331.35 344.386 224.44 350.786 205.06 355.636C193.58 358.516 194.22 436.476 191.33 491.876" stroke="white" stroke-width="1.41" stroke-linecap="round" stroke-linejoin="round" stroke-dasharray="14.51 14.51"/>
<path d="M190.92 499.116C190.77 501.546 190.61 503.906 190.44 506.216" stroke="white" stroke-width="1.41" stroke-linecap="round" stroke-linejoin="round"/>
<path d="M203.87 312.086C207.108 310.255 210.725 309.197 214.44 308.996C222.13 308.556 234.23 309.826 236.91 321.446C240.47 336.846 213.42 353.446 207.26 357.006C206.454 357.473 205.619 357.887 204.76 358.246C201.96 359.416 198.58 360.936 196.42 360.126C193.42 359.006 212.66 347.866 212.74 346.056C212.81 344.696 188.83 363.256 184.74 357.906C183.2 355.906 198.49 349.316 205.13 341.786C203.56 341.866 181.62 356.526 176.04 353.926C170.46 351.326 191.65 343.926 198.56 335.216C188.23 340.576 176.56 348.486 173.3 345.816C170.04 343.146 197.88 328.196 199.46 324.816C201.04 321.436 181.95 329.816 181.16 323.816C180.9 321.746 195.55 316.826 203.87 312.086Z" fill="#EEB6AB"/>
<path d="M132.73 292.926C117.57 294.216 101.36 305.026 96.5499 308.926C95.8599 309.476 89.6898 316.716 90.2198 320.536C90.5898 323.236 102.58 310.206 104.32 310.536C105.65 310.776 85.4699 321.246 87.9299 328.986C88.5999 331.096 99.1799 319.986 107.36 315.376C100.06 321.936 86.5199 330.556 88.9799 336.376C90.3099 340.006 100.4 327.026 110.06 322.746C101.78 329.946 92.1899 337.046 93.6899 340.306C95.1899 343.566 117.99 324.306 121.69 323.706C125.39 323.106 111.55 336.806 116.98 338.766C118.79 339.416 127.98 328.616 135.04 322.906C137.713 320.802 139.854 318.099 141.29 315.016C142.72 311.866 144.08 307.696 143.69 303.726" fill="#EEB6AB"/>
<path d="M122.6 512.936C140.533 515.473 158.619 516.776 176.73 516.836C209.4 516.836 217.18 514.916 217.18 514.916" stroke="white" stroke-width="1.41" stroke-linecap="round" stroke-linejoin="round"/>
<path d="M66.4302 511.376C66.4302 511.376 81.3802 517.216 110.16 513.876" stroke="white" stroke-width="1.41" stroke-linecap="round" stroke-linejoin="round"/>
<path d="M237.23 259.646C237.23 259.646 275.44 269.736 312.39 232.816" stroke="#661715" stroke-width="1.41" stroke-miterlimit="10"/>
<path d="M94.9899 636.676V646.676H133.99L133.8 629.676H125.86C125.86 629.676 127.86 605.546 122.04 592.006C116.22 578.466 123.55 557.816 123.55 557.816H78.9899C78.9899 557.816 78.99 575.526 74.89 580.816C70.79 586.106 55.4799 604.356 53.1099 610.246C50.7399 616.136 15.45 620.836 11.33 632.606H5.43994V646.696H71.4399L94.9899 636.676Z" fill="#A26E4C"/>
<path d="M94.9899 636.676V646.676H133.99L133.8 629.676H125.86C125.86 629.676 127.86 605.546 122.04 592.006C116.22 578.466 123.55 557.816 123.55 557.816H78.9899C78.9899 557.816 78.99 575.526 74.89 580.816C70.79 586.106 55.4799 604.356 53.1099 610.246C50.7399 616.136 15.45 620.836 11.33 632.606H5.43994V646.696H71.4399L94.9899 636.676Z" fill="#9E4F4A"/>
<path d="M94.99 636.676V646.676H133.99L133.9 638.976L133.8 629.626H125.86C125.86 629.626 114.77 629.346 93.37 630.246C75.13 637.076 44.37 633.096 11.37 632.566H5.47998V646.696H71.48L94.99 636.676Z" fill="#9E4F4A"/>
<path opacity="0.52" d="M93.51 636.676V646.676H132.51L132.43 638.976L132.33 629.626H124.39C124.39 629.626 113.29 629.346 91.89 630.246C73.66 637.076 42.89 633.096 9.89001 632.566H4V646.696H70L93.51 636.676Z" fill="#9E4F4A"/>
<path d="M97.8798 565.466L78.0397 567.656L93.7598 584.306L73.0698 583.126L83.1797 599.606L61.1198 598.216L69.7397 616.176L48.7197 613.466" stroke="#431616" stroke-width="1.41" stroke-linecap="round" stroke-linejoin="round"/>
<path d="M122.6 600.196C122.6 600.196 106.45 604.996 103.26 617.996" stroke="#431616" stroke-width="1.41" stroke-linecap="round" stroke-linejoin="round"/>
<path d="M96.7598 639.356H133.89" stroke="black" stroke-width="1.19" stroke-miterlimit="10"/>
<path d="M84.37 639.356H5.5" stroke="#431616" stroke-width="1.41" stroke-linecap="round" stroke-linejoin="round"/>
<path d="M170.36 636.676V646.676H209.36L209.17 629.676H201.23C201.23 629.676 203.28 605.546 197.4 592.006C191.52 578.466 198.99 557.766 198.99 557.766H154.45C154.45 557.766 154.45 575.476 150.36 580.766C146.27 586.056 130.99 604.316 128.58 610.206C126.17 616.096 90.9099 620.796 86.7899 632.566H80.8999V646.696H146.9L170.36 636.676Z" fill="#9E4F4A"/>
<path opacity="0.52" d="M170.36 636.676V646.676H209.36L209.27 638.976L209.17 629.626H201.23C201.23 629.626 190.14 629.346 168.74 630.246C150.5 637.076 119.74 633.096 86.7401 632.566H80.8501V646.696H146.85L170.36 636.676Z" fill="#9E4F4A"/>
<path d="M197.99 600.196C197.99 600.196 177.39 603.726 177.39 627.256" stroke="#431616" stroke-width="1.41" stroke-linecap="round" stroke-linejoin="round"/>
<path d="M172.18 639.356H209.31" stroke="#431616" stroke-width="1.41" stroke-linecap="round" stroke-linejoin="round"/>
<path d="M159.79 639.356H80.9102" stroke="#431616" stroke-width="1.41" stroke-linecap="round" stroke-linejoin="round"/>
<path d="M86.7998 632.566C86.7998 632.566 92.0398 615.286 127.89 611.566L145.15 616.206L136.55 598.206L158.6 599.596L148.49 583.126L169.18 584.306L153.46 567.676L173.3 565.476" stroke="#431616" stroke-width="1.41" stroke-linecap="round" stroke-linejoin="round"/>
<path d="M80.3799 642.876L80.9099 632.566H86.8099" stroke="#431616" stroke-width="1.41" stroke-linecap="round" stroke-linejoin="round"/>
<path d="M157.99 32.8558C157.99 32.8558 145.2 76.0358 165.59 82.2058C185.98 88.3758 194.99 67.9058 194.99 67.9058C194.99 67.9058 178.76 19.9958 169.31 21.5658C159.86 23.1358 157.99 32.8558 157.99 32.8558Z" fill="#9E4F4A"/>
<path d="M250.3 171.506C250.3 171.506 238.72 247.636 277.87 232.806C310.25 220.526 250.3 171.506 250.3 171.506Z" stroke="white" stroke-width="1.41" stroke-miterlimit="10"/>
<path d="M250.3 171.506L276.24 233.376" stroke="white" stroke-width="1.41" stroke-miterlimit="10"/>
<path d="M248.71 189.696L260.6 196.096L263.26 183.296" stroke="white" stroke-width="1.41" stroke-miterlimit="10"/>
<path d="M248.99 203.106L265.78 208.426L271.27 191.676" stroke="white" stroke-width="1.41" stroke-miterlimit="10"/>
<path d="M250.3 213.826L270.18 218.936L278.21 200.126" stroke="white" stroke-width="1.41" stroke-miterlimit="10"/>
<path d="M253.28 223.396L275.3 231.126L284.12 209.406" stroke="white" stroke-width="1.41" stroke-miterlimit="10"/>
<path d="M237.08 326.246C259.87 320.246 332.35 293.596 336.5 285.456C340.5 277.596 344.58 196.306 344.58 196.306L303.12 199.926L306.38 266.636L226.9 310.516" fill="#EEB6AB"/>
<path d="M292.81 114.386C281.27 128.016 281.36 136.676 283.38 159.786C285.38 182.366 286.95 201.336 286.95 201.336L363.51 194.646C363.51 194.646 358.67 167.006 349.43 143.456" fill="#C05452"/>
<path d="M292.81 114.386C281.27 128.016 281.36 136.676 283.38 159.786C285.38 182.366 286.95 201.336 286.95 201.336L363.51 194.646C363.51 194.646 358.67 167.006 349.43 143.456" fill="black" fill-opacity="0.2"/>
<path d="M292.81 114.386C281.27 128.016 281.36 136.676 283.38 159.786C285.38 182.366 286.95 201.336 286.95 201.336L363.51 194.646C363.51 194.646 358.67 167.006 349.43 143.456" fill="#C05452"/>
<path d="M292.81 114.386C281.27 128.016 281.36 136.676 283.38 159.786C285.38 182.366 286.95 201.336 286.95 201.336L363.51 194.646C363.51 194.646 358.67 167.006 349.43 143.456" fill="black" fill-opacity="0.2"/>
<path d="M292.81 114.386C281.27 128.016 281.36 136.676 283.38 159.786C285.38 182.366 286.95 201.336 286.95 201.336L363.51 194.646C363.51 194.646 358.67 167.006 349.43 143.456" stroke="#661715" stroke-width="1.41" stroke-linecap="round" stroke-linejoin="round"/>
<path d="M204.87 141.226C204.87 141.226 198.74 160.226 214.99 184.016C227.99 203.016 231.44 220.016 231.44 220.016" stroke="#661715" stroke-width="1.41" stroke-linecap="round" stroke-linejoin="round"/>
<path d="M235.39 60.506C235.39 60.506 249.64 84.316 263.39 99.686C277.64 115.616 243.39 137.246 233.25 124.446C223 95.446 203.69 87.126 203.69 87.126C203.69 87.126 228.28 51.846 235.39 60.506Z" fill="#EEB6AB"/>
<path d="M233.69 56.9958C233.69 56.9958 252.87 103.446 229.37 114.346C224.76 107.046 224.76 104.656 224.76 104.656L231.57 58.8658L233.69 56.9958Z" fill="#EEB6AB"/>
<path d="M184.16 13.2958C159.38 19.8458 151.23 49.5058 165.63 70.6858C179.18 90.6858 202.63 118.686 219.56 109.796C226.97 105.906 244.24 89.6258 233.09 62.0158C240.59 56.8858 238.88 43.5158 235.67 33.5758C234.73 30.6558 203.05 8.28581 184.16 13.2958Z" fill="#EEB6AB"/>
<path d="M197.455 68.6488C199.238 67.4593 199.363 64.5176 197.735 62.0783C196.107 59.6391 193.342 58.626 191.56 59.8156C189.777 61.0051 189.652 63.9469 191.28 66.3861C192.908 68.8254 195.673 69.8384 197.455 68.6488Z" fill="#010101"/>
<path d="M180.029 79.8408C181.633 78.7708 181.744 76.1234 180.279 73.9276C178.813 71.7318 176.325 70.8192 174.722 71.8892C173.119 72.9592 173.007 75.6067 174.473 77.8025C175.938 79.9983 178.426 80.9108 180.029 79.8408Z" fill="#010101"/>
<path d="M182.47 67.9058C182.47 67.9058 183.29 95.1257 196.31 82.4857" stroke="#62210F" stroke-width="1.49" stroke-miterlimit="10" stroke-linecap="round"/>
<path d="M194.99 52.8058C194.65 54.5758 191.12 57.7358 185.37 56.8858C179.62 56.0358 178.59 52.5258 180.45 52.0758C182.31 51.6258 186.84 53.0158 189.59 50.9458C192.99 48.3658 195.29 50.9958 194.99 52.8058Z" fill="#9E4F4A"/>
<path d="M168.19 70.9958C170.07 70.9958 172.98 68.4157 172.97 64.7657C172.97 59.7657 170.77 57.7658 169.83 59.5558C168.89 61.3458 170.7 63.8858 167.9 66.1358C164.4 68.9158 166.72 70.9958 168.19 70.9958Z" fill="#9E4F4A"/>
<g style="mix-blend-mode:multiply">
<path d="M194.48 96.576C194.932 94.9172 195.728 93.3724 196.817 92.0422C197.906 90.712 199.263 89.6263 200.8 88.856C203.42 87.656 208.66 86.376 212.87 87.636C210.72 92.316 207.19 95.096 201.8 96.366C196.24 97.686 194.48 96.576 194.48 96.576Z" fill="#BC826C"/>
</g>
<path d="M231.58 45.9959C231.58 45.9959 228.73 41.5759 226.93 48.3459C226.93 48.3459 225.48 36.0359 231.29 39.3459" stroke="#62210F" stroke-width="1.49" stroke-miterlimit="10" stroke-linecap="round"/>
<path d="M164.25 38.7758C164.25 38.7758 177.17 49.8958 198.47 47.5758C219.77 45.2558 221.04 42.0758 221.04 42.0758C221.04 42.0758 226.76 25.7259 235.24 36.5659C242 45.2159 235.39 60.5059 235.39 60.5059L240 67.9059C240 67.9059 238 47.6559 240 38.9059C242 30.1559 245.25 29.2958 245.25 29.2958C245.25 29.2958 220.92 -12.1042 186.46 3.52585C152 19.1558 158.53 41.8459 158.53 41.8459L164.25 38.7758Z" fill="#9E4F4A"/>
<path d="M220.74 417.516H453.99" stroke="#62210F" stroke-width="1.41" stroke-linecap="round" stroke-linejoin="round" stroke-dasharray="16.87 16.87"/>
</g>
<defs>
<filter id="filter0_d_79_6" x="0" y="0" width="498.933" height="654.696" filterUnits="userSpaceOnUse" color-interpolation-filters="sRGB">
<feFlood flood-opacity="0" result="BackgroundImageFix"/>
<feColorMatrix in="SourceAlpha" type="matrix" values="0 0 0 0 0 0 0 0 0 0 0 0 0 0 0 0 0 0 127 0" result="hardAlpha"/>
<feOffset dy="4"/>
<feGaussianBlur stdDeviation="2"/>
<feComposite in2="hardAlpha" operator="out"/>
<feColorMatrix type="matrix" values="0 0 0 0 0 0 0 0 0 0 0 0 0 0 0 0 0 0 0.25 0"/>
<feBlend mode="normal" in2="BackgroundImageFix" result="effect1_dropShadow_79_6"/>
<feBlend mode="normal" in="SourceGraphic" in2="effect1_dropShadow_79_6" result="shape"/>
</filter>
</defs>
</svg>
