<svg width="499" height="706" viewBox="0 0 499 706" fill="none" xmlns="http://www.w3.org/2000/svg">
<g filter="url(#filter0_d_11_2060)">
<path d="M293.642 489.189H58.3623C54.5879 489.178 50.971 487.675 48.3012 485.007C45.6314 482.339 44.1255 478.723 44.1123 474.949V455.779C44.1255 452.004 45.6314 448.389 48.3012 445.721C50.971 443.053 54.5879 441.549 58.3623 441.539H293.652C297.427 441.549 301.044 443.053 303.713 445.721C306.383 448.389 307.889 452.004 307.902 455.779V474.949C307.884 478.723 306.375 482.338 303.704 485.005C301.033 487.672 297.417 489.176 293.642 489.189Z" fill="#EEC4B4"/>
<path d="M4.52193 229.409C4.52193 229.409 45.5219 447.059 44.8019 451.409C50.8019 438.699 54.4219 441.539 96.9919 441.539H168.152C168.152 441.539 142.592 236.739 138.962 219.089C135.332 201.439 121.052 165.539 78.2419 163.269C33.3419 160.739 -0.568072 177.679 4.52193 229.409Z" fill="#EEC4B4"/>
<path d="M50.0921 165.449C23.9621 182.579 21.9621 193.349 24.9621 223.379C24.9621 223.379 65.5121 437.189 64.8321 441.549C64.8321 441.549 53.8321 440.929 50.0821 444.079C47.7786 446.08 45.9769 448.594 44.8221 451.419C44.8221 451.419 10.5421 255.049 4.21207 225.419C1.57207 188.499 23.9621 167.759 50.0921 165.449Z" fill="#EEC4B4"/>
<path d="M47.5723 467.609H299.912" stroke="#62210F" stroke-width="1.41" stroke-linecap="round" stroke-linejoin="round" stroke-dasharray="16.87 16.87"/>
<path d="M261.772 489.769L316.802 695.109H305.312L249.442 489.769H261.772Z" fill="#1D1E40"/>
<path d="M310.462 488.489L365.502 693.829H354.012L298.132 488.489H310.462Z" fill="#1D1E40"/>
<path d="M111.532 489.769L56.502 695.109H67.9919L123.862 489.769H111.532Z" fill="#1D1E40"/>
<path d="M68.9321 489.769L13.8921 695.109H25.3721L81.2621 489.769H68.9321Z" fill="#1D1E40"/>
<path d="M303.892 612.719L307.882 661.889H340.452L346.412 606.179L303.892 612.719Z" fill="#EEB6AB"/>
<path d="M375.372 599.169L382.842 649.389L416.482 644.479L409.002 597.299L375.372 599.169Z" fill="#EEB6AB"/>
<path d="M370.462 648.599C370.012 655.979 368.552 682.599 370.582 686.749C390.582 687.999 491.132 686.749 491.132 686.749C491.132 686.749 487.352 669.129 461.392 662.039C435.432 654.949 428.392 643.179 423.652 633.739C418.912 624.299 407.152 636.099 404.792 640.809C402.432 645.519 383.552 652.609 378.792 645.539C376.192 641.639 373.962 642.389 372.472 643.849C371.233 645.126 370.516 646.82 370.462 648.599Z" fill="#76778E"/>
<path d="M494.432 686.759H367.052V695.999H494.432V686.759Z" fill="#1D1E40"/>
<path d="M427.582 665.999C429.692 660.739 434.942 654.409 446.802 656.449" stroke="white" stroke-width="1.41" stroke-linecap="round" stroke-linejoin="round"/>
<path d="M436.662 669.209C439.152 664.939 443.372 659.679 454.942 660.739" stroke="white" stroke-width="1.41" stroke-linecap="round" stroke-linejoin="round"/>
<path d="M419.512 662.349C420.212 658.629 425.512 649.169 438.112 651.259" stroke="white" stroke-width="1.41" stroke-linecap="round" stroke-linejoin="round"/>
<path d="M300.842 650.079C300.392 657.459 298.932 684.079 300.952 688.219C320.952 689.479 421.502 688.219 421.502 688.219C421.502 688.219 417.722 670.609 391.772 663.519C365.822 656.429 358.772 644.649 354.032 635.219C349.292 625.789 337.522 637.579 335.162 642.289C332.802 646.999 313.932 654.089 309.222 647.009C306.622 643.119 304.382 643.859 302.892 645.329C301.653 646.609 300.924 648.299 300.842 650.079Z" fill="#BABABA"/>
<path d="M424.802 688.239H297.422V697.479H424.802V688.239Z" fill="#1D1E40"/>
<path d="M357.962 667.489C360.072 662.229 365.332 655.899 377.182 657.939" stroke="white" stroke-width="1.41" stroke-linecap="round" stroke-linejoin="round"/>
<path d="M367.052 670.679C369.542 666.419 373.752 661.149 385.332 662.199" stroke="white" stroke-width="1.41" stroke-linecap="round" stroke-linejoin="round"/>
<path d="M349.882 663.829C350.582 660.099 355.882 650.639 368.482 652.739" stroke="white" stroke-width="1.41" stroke-linecap="round" stroke-linejoin="round"/>
<path d="M179.882 135.519C179.882 135.519 243.882 193.139 255.622 195.019C267.362 196.899 285.982 177.499 295.852 168.209C305.722 158.919 326.082 142.869 340.292 155.269C357.222 170.019 352.362 203.269 326.702 224.139C304.072 242.529 284.702 253.009 247.622 254.529C213.362 255.949 174.212 198.529 174.862 179.729C175.512 160.929 179.882 135.519 179.882 135.519Z" fill="#006376"/>
<path d="M153.112 396.789C153.112 396.789 142.962 442.959 243.632 441.269C344.302 439.579 335.092 441.269 335.092 441.269L340.962 614.959C340.962 614.959 341.342 624.149 427.762 616.599C430.932 532.899 415.872 432.169 409.122 387.599C408.082 380.724 404.869 374.362 399.953 369.445C395.037 364.527 388.677 361.312 381.802 360.269L179.022 329.679L146.292 335.559L153.112 396.789Z" fill="#A9C8D5"/>
<path d="M153.112 396.789C153.112 396.789 142.962 442.959 243.632 441.269C344.302 439.579 335.092 441.269 335.092 441.269L340.962 614.959C340.962 614.959 341.342 624.149 427.762 616.599C430.932 532.899 415.872 432.169 409.122 387.599C408.082 380.724 404.869 374.362 399.953 369.445C395.037 364.527 388.677 361.312 381.802 360.269L179.022 329.679L146.292 335.559L153.112 396.789Z" fill="#C05452"/>
<path d="M153.112 396.789C153.112 396.789 142.962 442.959 243.632 441.269C344.302 439.579 335.092 441.269 335.092 441.269L340.962 614.959C340.962 614.959 341.342 624.149 427.762 616.599C430.932 532.899 415.872 432.169 409.122 387.599C408.082 380.724 404.869 374.362 399.953 369.445C395.037 364.527 388.677 361.312 381.802 360.269L179.022 329.679L146.292 335.559L153.112 396.789Z" fill="black" fill-opacity="0.2"/>
<path d="M94.7221 382.919C94.7221 382.919 86.8221 449.599 187.512 447.919C288.202 446.239 278.982 447.919 278.982 447.919L284.852 621.599C284.852 621.599 283.182 629.149 369.612 621.599C372.982 531.939 357.822 424.599 351.682 385.599C350.994 381.22 348.929 377.174 345.786 374.049C342.642 370.924 338.585 368.882 334.202 368.219L122.892 336.279L90.1621 342.159L94.7221 382.919Z" fill="#C05452"/>
<path d="M94.7221 382.919C94.7221 382.919 86.8221 449.599 187.512 447.919C288.202 446.239 278.982 447.919 278.982 447.919L284.852 621.599C284.852 621.599 283.182 629.149 369.612 621.599C372.982 531.939 357.822 424.599 351.682 385.599C350.994 381.22 348.929 377.174 345.786 374.049C342.642 370.924 338.585 368.882 334.202 368.219L122.892 336.279L90.1621 342.159L94.7221 382.919Z" fill="black" fill-opacity="0.2"/>
<path d="M108.652 391.119C145.012 385.619 159.512 342.399 199.492 347.859C264.182 356.689 235.142 284.279 214.712 230.059C201.592 195.229 199.202 168.129 192.322 149.809C187.252 136.279 179.722 127.529 163.632 123.989C115.262 113.379 83.4321 120.899 64.8121 162.989C46.1921 205.079 77.5821 257.629 64.8121 294.119C52.0421 330.609 72.2921 396.599 108.652 391.119Z" fill="#006376"/>
<path d="M217 185L171.22 195.561L175.565 214.395L221.345 203.835L217 185Z" fill="white"/>
<path d="M58.7722 194.189C58.0322 212.579 58.3022 254.669 54.1422 269.429C40.6422 317.289 67.6822 348.169 105.142 351.359C142.602 354.549 168.932 329.509 195.582 319.359C220.962 309.679 217.672 288.679 212.432 272.919C207.562 258.319 208.042 239.209 167.062 255.569C137.222 267.469 125.062 280.059 125.062 280.059C125.062 280.059 136.112 265.619 132.122 263.209C128.132 260.799 117.062 280.059 117.062 280.059C117.062 280.059 124.292 259.559 122.712 257.869C119.992 254.959 114.262 263.589 114.262 263.589C114.262 263.589 121.362 234.589 119.762 215.469" fill="#006376"/>
<path d="M59.9624 194.189C59.2324 212.579 59.5024 254.669 55.3424 269.429C41.8424 317.289 68.8824 348.169 106.342 351.359C143.802 354.549 170.132 329.509 196.782 319.359C222.142 309.679 218.962 288.679 213.672 272.919C208.802 258.319 209.282 239.209 168.292 255.569C138.462 267.469 126.342 280.059 126.342 280.059C126.342 280.059 137.392 265.619 133.402 263.209C129.412 260.799 118.322 280.059 118.322 280.059C118.322 280.059 125.552 259.559 123.982 257.869C121.252 254.959 115.532 263.589 115.532 263.589C115.532 263.589 122.632 234.589 121.022 215.469" stroke="#1D1E40" stroke-width="1.41" stroke-linecap="round" stroke-linejoin="round"/>
<path d="M137.212 391.439C137.212 391.439 268.962 400.219 293.872 406.439C306.392 409.589 303.872 558.759 307.872 613.829" stroke="white" stroke-width="1.41" stroke-linecap="round" stroke-linejoin="round" stroke-dasharray="14.24 14.24"/>
<path d="M163.433 116.119L169.053 143.629L134.583 120.939L163.433 116.119Z" fill="#76778E"/>
<path d="M123.962 132.099C123.962 132.099 129.062 144.209 144.312 143.629C158.182 143.109 158.182 136.629 158.182 136.629L146.082 125.629L123.962 132.099Z" fill="#1D1E40"/>
<path d="M140.992 102.369L106.862 104.149L108.312 116.689L139.262 122.709L140.992 102.369Z" fill="#76778E"/>
<path d="M153.872 133.639L163.432 116.119L128.292 106.349L125.092 119.959L153.872 133.639Z" fill="white"/>
<path d="M113.962 89.1589C113.962 89.1589 119.322 107.619 114.702 119.939C110.082 132.259 134.702 139.789 153.922 133.639C156.172 110.639 158.192 89.1589 158.192 89.1589C158.192 89.1589 116.452 78.2489 113.962 89.1589Z" fill="#EEB6AB"/>
<path d="M143.042 129.209L145.402 135.829L136.032 136.619L125.092 127.599L143.042 129.209Z" fill="#8E8D8D"/>
<path d="M106.862 104.149L103.152 130.599L136.032 154.259L143.042 129.209L106.862 104.149Z" fill="white"/>
<path d="M188.322 143.009C188.322 143.009 202.162 167.159 205.162 191.279" stroke="#1D1E40" stroke-width="1.41" stroke-linecap="round" stroke-linejoin="round"/>
<path d="M370.412 618.529C370.412 618.529 357.742 383.789 343.412 374.529C320.892 360.019 216.082 353.159 216.082 353.159" stroke="white" stroke-width="1.41" stroke-linecap="round" stroke-linejoin="round"/>
<path d="M338.312 119.379C335.727 122.47 333.895 126.119 332.962 130.039C331.022 138.139 330.052 151.249 341.902 156.329C357.622 163.059 380.482 137.459 385.442 131.579C386.096 130.814 386.697 130.005 387.242 129.159C389.022 126.409 391.242 123.099 390.862 120.659C390.242 117.199 374.692 135.589 372.752 135.339C371.272 135.149 395.642 113.179 390.752 107.809C388.902 105.809 378.972 120.809 369.682 126.409C370.072 124.739 389.882 104.219 388.182 97.7689C386.482 91.3189 374.572 112.459 363.942 118.159C371.632 108.159 382.292 97.2989 380.082 93.2989C377.872 89.2989 356.612 116.069 352.662 117.119C348.712 118.169 361.342 99.4289 355.112 97.4289C353.022 96.7689 344.962 111.419 338.312 119.379Z" fill="#EEB6AB"/>
<path d="M228.302 232.579C224.668 234.61 221.556 237.458 219.212 240.899C216.81 244.31 214.98 248.09 213.792 252.089C212.232 257.889 194.912 270.619 200.442 275.969C204.982 289.339 222.732 272.789 225.562 273.459C240.352 276.969 263.502 264.929 269.342 261.699C270.25 261.195 271.125 260.634 271.962 260.019C274.692 258.019 272.112 254.859 271.552 254.809C267.942 254.429 255.682 260.659 255.682 260.659C255.682 260.659 262.572 257.039 271.052 251.589C275.922 248.439 272.282 243.359 267.392 245.789C261.982 248.489 258.842 250.099 255.992 250.899C256.592 250.009 262.612 247.609 270.612 242.289C275.772 238.859 274.662 233.009 266.692 236.039C261.692 237.919 258.862 240.129 253.502 240.829C257.742 238.229 262.442 235.659 266.602 233.209C273.322 229.259 270.132 223.729 261.932 227.609C253.732 231.489 245.092 235.899 242.962 235.679C238.772 235.229 257.832 221.779 252.562 217.569C250.812 216.139 237.652 227.349 228.302 232.579Z" fill="#EEB6AB"/>
<path d="M222.762 286.399L211.362 290.859C211.362 290.859 202.962 289.109 198.242 274.679C193.522 260.249 197.242 254.599 197.242 254.599L208.642 250.149L222.762 286.399Z" fill="white"/>
<path d="M357.502 162.289L351.092 172.679C351.092 172.679 343.332 176.349 330.892 167.679C318.452 159.009 317.962 152.359 317.962 152.359L324.372 141.929L357.502 162.289Z" fill="white"/>
<path d="M118.872 90.1492C118.872 90.1492 122.502 118.969 147.192 123.959C148.885 124.364 150.669 124.1 152.172 123.223C153.675 122.346 154.782 120.922 155.262 119.249L156.132 108.759L118.872 90.1492Z" fill="#EEB6AB"/>
<path d="M130.322 15.0791C154.562 6.78915 179.562 25.6292 179.322 51.2392C179.122 75.3691 173.442 112.979 154.402 115.009C146.102 115.889 120.132 110.869 113.872 82.7891C104.772 82.6991 101.542 70.5991 98.6819 60.5491C97.8919 57.5991 111.832 21.4091 130.322 15.0791Z" fill="#EEB6AB"/>
<path d="M149.722 67.329C151.705 67.329 153.312 65.1263 153.312 62.409C153.312 59.6918 151.705 57.489 149.722 57.489C147.739 57.489 146.132 59.6918 146.132 62.409C146.132 65.1263 147.739 67.329 149.722 67.329Z" fill="#010101"/>
<path d="M169.662 66.819C171.44 66.819 172.882 64.8446 172.882 62.409C172.882 59.9735 171.44 57.999 169.662 57.999C167.884 57.999 166.442 59.9735 166.442 62.409C166.442 64.8446 167.884 66.819 169.662 66.819Z" fill="#010101"/>
<path d="M162.542 67.3291C162.542 67.3291 171.542 83.9191 158.142 80.9191" stroke="#62210F" stroke-width="1.49" stroke-miterlimit="10" stroke-linecap="round"/>
<path d="M155.562 47.5491C154.332 46.2191 149.172 44.8191 144.762 48.6091C140.352 52.3991 141.832 56.5291 143.652 55.9091C145.472 55.2891 148.552 51.7191 151.982 51.9991C156.272 52.3491 156.782 48.8791 155.562 47.5491Z" fill="#76778E"/>
<path d="M166.762 47.909C168.242 46.739 172.462 46.739 175.312 50.459C178.312 54.389 177.492 57.459 175.722 56.519C173.952 55.579 172.852 52.959 169.282 52.719C164.792 52.419 165.302 49.089 166.762 47.909Z" fill="#76778E"/>
<path d="M103.872 72.6191C100.872 66.0091 103.152 58.6191 108.752 57.4891C113.872 56.4891 118.002 65.8791 118.002 65.8791L119.222 42.8191C125.006 39.2678 130.394 35.1074 135.292 30.4091C143.082 22.8591 161.122 37.1691 170.292 31.0791C175.699 27.558 180.283 22.9124 183.732 17.4591C183.732 17.4591 150.872 -12.9109 112.642 6.45906C98.762 13.4591 92.8221 23.1791 90.8521 32.6691C87.4221 49.3191 96.292 65.3291 96.292 65.3291L115.962 102.139C115.962 102.139 115.842 90.1391 113.912 82.0491C109.872 81.2791 106.962 79.2191 103.872 72.6191Z" fill="#76778E"/>
<g style="mix-blend-mode:multiply">
<path d="M167.062 85.679C167.062 85.679 160.142 90.329 148.132 88.679C151.762 93.029 156.582 95.919 161.762 93.999C167.112 91.979 167.062 85.679 167.062 85.679Z" fill="#BC826C"/>
</g>
<path d="M108.652 70.7592C108.652 70.7592 109.112 64.4492 115.262 70.2992C115.262 70.2992 109.722 56.4692 105.572 62.8992" stroke="#62210F" stroke-width="1.49" stroke-miterlimit="10" stroke-linecap="round"/>
<path d="M91.7222 29.4091C91.7222 29.4091 105.722 32.4991 113.912 24.8791C129.712 10.2391 139.022 28.4191 139.022 28.4191" stroke="white" stroke-width="1.41" stroke-miterlimit="10"/>
<path d="M91.0918 31.729C91.0918 31.729 108.542 34.909 113.912 30.029C120.742 23.839 133.342 32.209 133.342 32.209" stroke="white" stroke-width="1.41" stroke-miterlimit="10"/>
<path d="M90.6519 33.8391C90.6519 33.8391 104.812 38.9991 112.532 35.7191C114.677 34.7517 117.086 34.5395 119.367 35.117C121.648 35.6945 123.666 37.0276 125.092 38.8991" stroke="white" stroke-width="1.41" stroke-miterlimit="10"/>
<path d="M153.712 78.1391C157.307 78.1391 160.222 75.2245 160.222 71.6292C160.222 68.0338 157.307 65.1191 153.712 65.1191C150.116 65.1191 147.202 68.0338 147.202 71.6292C147.202 75.2245 150.116 78.1391 153.712 78.1391Z" stroke="#1D1E40" stroke-width="1.41" stroke-linecap="round" stroke-linejoin="round"/>
<path d="M173.472 78.1391C177.067 78.1391 179.982 75.2245 179.982 71.6292C179.982 68.0338 177.067 65.1191 173.472 65.1191C169.877 65.1191 166.962 68.0338 166.962 71.6292C166.962 75.2245 169.877 78.1391 173.472 78.1391Z" stroke="#1D1E40" stroke-width="1.41" stroke-linecap="round" stroke-linejoin="round"/>
<path d="M117.092 62.8191L147.202 71.6291" stroke="#1D1E40" stroke-width="1.41" stroke-linecap="round" stroke-linejoin="round"/>
<path d="M160.152 70.7591C160.152 70.7591 161.462 68.1292 163.432 68.1292C165.722 68.1292 166.432 71.6191 166.432 71.6191" stroke="#1D1E40" stroke-width="1.41" stroke-linecap="round" stroke-linejoin="round"/>
<path d="M148.132 38.8991C148.132 38.8991 164.022 41.6691 170.632 36.3691C163.179 37.5877 155.669 38.4321 148.132 38.8991Z" fill="#EEB6AB"/>
<path d="M146.142 41.819C146.142 41.819 165.482 47.669 172.892 40.189C163.432 43.889 146.142 41.819 146.142 41.819Z" fill="#EEB6AB"/>
</g>
<defs>
<filter id="filter0_d_11_2060" x="0" y="0" width="498.432" height="705.479" filterUnits="userSpaceOnUse" color-interpolation-filters="sRGB">
<feFlood flood-opacity="0" result="BackgroundImageFix"/>
<feColorMatrix in="SourceAlpha" type="matrix" values="0 0 0 0 0 0 0 0 0 0 0 0 0 0 0 0 0 0 127 0" result="hardAlpha"/>
<feOffset dy="4"/>
<feGaussianBlur stdDeviation="2"/>
<feComposite in2="hardAlpha" operator="out"/>
<feColorMatrix type="matrix" values="0 0 0 0 0 0 0 0 0 0 0 0 0 0 0 0 0 0 0.25 0"/>
<feBlend mode="normal" in2="BackgroundImageFix" result="effect1_dropShadow_11_2060"/>
<feBlend mode="normal" in="SourceGraphic" in2="effect1_dropShadow_11_2060" result="shape"/>
</filter>
</defs>
</svg>
