<svg width="800" height="800" viewBox="0 0 800 800" fill="none" xmlns="http://www.w3.org/2000/svg">
<g id="speechBalloon">
<g id="Vector" filter="url(#filter0_d_119_5)">
<path d="M30.3787 713.633C13.7257 721.796 4.41955 739.755 7.19506 758.041C9.97057 776.49 24.1747 790.857 42.6236 793.633C52.9094 795.265 63.8481 796.082 75.1134 796.082C104.175 796.082 158.869 790.367 213.399 753.959C270.705 784.163 334.869 800 400.011 800C506.95 800 607.358 758.367 682.95 682.776C838.869 526.857 838.869 272.98 682.95 117.061C607.358 41.6326 506.95 0 400.011 0C293.073 0 192.664 41.6326 117.236 117.061C-27.7437 262.041 -39.009 492.898 88.3379 650.776C72.3379 681.469 52.9094 702.531 30.3787 713.633ZM156.746 156.735C221.726 91.7551 308.093 56 400.011 56C491.93 56 578.297 91.7551 643.277 156.735C777.481 290.939 777.481 509.225 643.277 643.265C578.297 708.245 491.93 744 400.011 744C338.624 744 278.379 727.674 225.807 696.653C221.399 694.041 216.501 692.735 211.603 692.735C205.562 692.735 199.522 694.694 194.46 698.612C156.746 728 117.562 736.98 90.9502 739.265C113.154 719.347 131.93 691.918 146.95 657.469C151.358 647.51 149.562 635.918 142.215 627.755C22.0522 492.082 28.4196 285.061 156.746 156.735Z" fill="#006376"/>
</g>
<path id="ballThree" d="M500.093 428.081C515.602 428.081 528.175 415.509 528.175 400C528.175 384.491 515.602 371.918 500.093 371.918C484.584 371.918 472.011 384.491 472.011 400C472.011 415.509 484.584 428.081 500.093 428.081Z" fill="#38646D"/>
<path id="ballTwo" d="M400.011 428.081C415.52 428.081 428.093 415.509 428.093 400C428.093 384.491 415.52 371.918 400.011 371.918C384.502 371.918 371.93 384.491 371.93 400C371.93 415.509 384.502 428.081 400.011 428.081Z" fill="#38646D"/>
<path id="ballOne" d="M300.093 428.081C315.602 428.081 328.175 415.509 328.175 400C328.175 384.491 315.602 371.918 300.093 371.918C284.584 371.918 272.011 384.491 272.011 400C272.011 415.509 284.584 428.081 300.093 428.081Z" fill="#38646D"/>
</g>
<defs>
<filter id="filter0_d_119_5" x="-3.89062" y="0" width="807.78" height="808" filterUnits="userSpaceOnUse" color-interpolation-filters="sRGB">
<feFlood flood-opacity="0" result="BackgroundImageFix"/>
<feColorMatrix in="SourceAlpha" type="matrix" values="0 0 0 0 0 0 0 0 0 0 0 0 0 0 0 0 0 0 127 0" result="hardAlpha"/>
<feOffset dy="4"/>
<feGaussianBlur stdDeviation="2"/>
<feComposite in2="hardAlpha" operator="out"/>
<feColorMatrix type="matrix" values="0 0 0 0 0 0 0 0 0 0 0 0 0 0 0 0 0 0 0.25 0"/>
<feBlend mode="normal" in2="BackgroundImageFix" result="effect1_dropShadow_119_5"/>
<feBlend mode="normal" in="SourceGraphic" in2="effect1_dropShadow_119_5" result="shape"/>
</filter>
</defs>
</svg>
